<svg xmlns="http://www.w3.org/2000/svg" xmlns:xlink="http://www.w3.org/1999/xlink" width="798" height="397" viewBox="0 0 798 397">
  <defs>
    <style>
      .cls-1 {
        fill: rgba(108,92,255,0.25);
        opacity: 0.75;
      }

      .cls-1, .cls-2, .cls-3, .cls-4, .cls-5 {
        fill-rule: evenodd;
      }

      .cls-2 {
        filter: url(#filter);
      }

      .cls-3 {
        fill: rgba(108,92,255,1.0);
      }

      .cls-4, .cls-5 {
        stroke: rgba(108,92,255,1.0);
        stroke-linejoin: round;
        stroke-width: 6px;
      }

      .cls-4 {
        filter: url(#filter-2);
      }

      .cls-5 {
        filter: url(#filter-3);
      }
    </style>
    <filter id="filter-2" x="186.469" y="91.5" width="140.219" height="205.594" filterUnits="userSpaceOnUse">
      <feFlood result="flood" flood-color="#fff"/>
      <feComposite result="composite" operator="in" in2="SourceGraphic"/>
      <feBlend result="blend" in2="SourceGraphic"/>
    </filter>
    <filter id="filter-3" x="549.344" y="87.75" width="150.875" height="209.625" filterUnits="userSpaceOnUse">
      <feFlood result="flood" flood-color="#fff"/>
      <feComposite result="composite" operator="in" in2="SourceGraphic"/>
      <feBlend result="blend" in2="SourceGraphic"/>
    </filter>
  </defs>
  <path id="Прямоугольник_скругл._углы_1_копия_7" data-name="Прямоугольник, скругл. углы 1 копия 7" class="cls-1" d="M97,0H269a16,16,0,0,1,0,32H97A16,16,0,0,1,97,0Zm65,256H334a16,16,0,0,1,0,32H162A16,16,0,0,1,162,256ZM25,64H369a16,16,0,0,1,0,32H25A16,16,0,0,1,25,64Zm-9,64H446a16,16,0,0,1,0,32H16A16,16,0,0,1,16,128Zm42,64H403a16,16,0,0,1,0,32H58A16,16,0,0,1,58,192ZM98,32H270a16,16,0,0,1,0,32H98A16,16,0,0,1,98,32Zm154,0h18a16,16,0,0,1,0,32H252A16,16,0,0,1,252,32ZM98,32h18a16,16,0,0,1,0,32H98A16,16,0,0,1,98,32Zm64,192H334a16,16,0,0,1,0,32H162A16,16,0,0,1,162,224Zm154,0h18a16,16,0,0,1,0,32H316A16,16,0,0,1,316,224Zm-154,0h18a16,16,0,0,1,0,32H162A16,16,0,0,1,162,224ZM27,96H191a16,16,0,0,1,0,32H27A16,16,0,0,1,27,96Zm147.969,0H191a16,16,0,0,1,0,32H174.969A16,16,0,0,1,174.969,96ZM27,96H43.031a16,16,0,0,1,0,32H27A16,16,0,0,1,27,96Zm175,0H366a16,16,0,0,1,0,32H202A16,16,0,0,1,202,96Zm147.969,0H366a16,16,0,0,1,0,32H349.969A16,16,0,0,1,349.969,96ZM202,96h16.031a16,16,0,0,1,0,32H202A16,16,0,0,1,202,96ZM60,160H224a16,16,0,0,1,0,32H60A16,16,0,0,1,60,160Zm147.969,0H224a16,16,0,0,1,0,32H207.969A16,16,0,0,1,207.969,160ZM60,160H76.031a16,16,0,0,1,0,32H60A16,16,0,0,1,60,160Zm175,0H399a16,16,0,0,1,0,32H235A16,16,0,0,1,235,160Zm147.969,0H399a16,16,0,0,1,0,32H382.969A16,16,0,0,1,382.969,160ZM235,160h16.031a16,16,0,0,1,0,32H235A16,16,0,0,1,235,160Z"/>
  <path id="_0" data-name="0" class="cls-3" d="M380.946,205.48q-21.594,18.72-21.6,50.675v70.83q0,31.96,21.6,50.676t54.13,18.715q32.244,0,53.7-18.715t21.45-50.676v-70.83q0-31.959-21.45-50.675t-53.7-18.715Q402.536,186.765,380.946,205.48Zm34.983,138.637q-7.342-6.187-7.342-18V257.307q0-11.8,7.342-18.283t19.147-6.479q11.512,0,18.86,6.479t7.342,18.283v68.815q0,11.518-7.342,17.851t-18.86,6.335Q423.266,350.308,415.929,344.117Z"/>
  <path id="Прямоугольник_скругл._углы_2_копия_2" data-name="Прямоугольник, скругл. углы 2 копия 2" class="cls-3" d="M442,34a4,4,0,0,1,4,4V167a4,4,0,0,1-8,0V38A4,4,0,0,1,442,34ZM415,92a4,4,0,0,1,4,4v56a4,4,0,0,1-8,0V96A4,4,0,0,1,415,92Zm53-27a4,4,0,0,1,4,4v67a4,4,0,0,1-8,0V69A4,4,0,0,1,468,65Z"/>
  <path id="_1" data-name="1" class="cls-1" d="M485,225H757a11,11,0,0,1,0,22H485A11,11,0,0,1,485,225Zm-32,44H787a11,11,0,0,1,0,22H453A11,11,0,0,1,453,269Zm53,44H780a11,11,0,0,1,0,22H506A11,11,0,0,1,506,313Zm-15-66H608a11,11,0,0,1,0,22H491A11,11,0,0,1,491,247Zm104.938,0H608a11,11,0,0,1,0,22H595.938A11,11,0,0,1,595.938,247ZM491,247h12.063a11,11,0,0,1,0,22H491A11,11,0,0,1,491,247Zm29,44H637a11,11,0,0,1,0,22H520A11,11,0,0,1,520,291Zm104.938,0H637a11,11,0,0,1,0,22H624.938A11,11,0,0,1,624.938,291ZM520,291h12.063a11,11,0,0,1,0,22H520A11,11,0,0,1,520,291Zm84-44H762a11,11,0,0,1,0,22H604A11,11,0,0,1,604,247Zm135.875,0H762a11,11,0,0,1,0,22H739.875A11,11,0,0,1,739.875,247ZM604,247h22.125a11,11,0,0,1,0,22H604A11,11,0,0,1,604,247Zm33,44H795a11,11,0,0,1,0,22H637A11,11,0,0,1,637,291Zm135.875,0H795a11,11,0,0,1,0,22H772.875A11,11,0,0,1,772.875,291ZM637,291h22.125a11,11,0,0,1,0,22H637A11,11,0,0,1,637,291Z"/>
  <g style="fill: ; filter: url(#filter-2)">
    <path id="_5" data-name="5" class="cls-4" d="M317.191,135.273V91.508H191.367V200.92q2.874,0,11.661-.72t14.684-.863q5.9-.142,15.98.144,43.19,1.727,43.189,27.929,0,10.365-6.046,17.131t-16.124,6.767q-22.175,0-22.458-19.58H186.472q0.574,29.659,20.011,47.508t49.38,17.852q33.107,0,51.971-21.019t18.859-48.659q0-66.222-76.013-67.663-5.474,0-16.412.576v-25.05h82.923Z" style="stroke: inherit; filter: none; fill: inherit"/>
  </g>
  <use xlink:href="#_5" style="stroke: rgba(108,92,255,1.0); filter: none; fill: none"/>
  <g style="fill: ; filter: url(#filter-3)">
    <path id="_0-2" data-name="0" class="cls-5" d="M570.946,106.48q-21.594,18.72-21.6,50.675v70.83q0,31.96,21.6,50.676t54.13,18.715q32.244,0,53.7-18.715t21.45-50.676v-70.83q0-31.959-21.45-50.675t-53.7-18.715Q592.537,87.765,570.946,106.48Zm34.983,138.637q-7.342-6.187-7.342-17.995V158.307q0-11.8,7.342-18.283t19.147-6.479q11.512,0,18.86,6.479t7.342,18.283v68.815q0,11.518-7.342,17.851t-18.86,6.335Q613.267,251.308,605.929,245.117Z" style="stroke: inherit; filter: none; fill: inherit"/>
  </g>
  <use xlink:href="#_0-2" style="stroke: rgba(108,92,255,1.0); filter: none; fill: none"/>
</svg>
