<svg id="_Layer_" data-name="&lt;Layer&gt;" xmlns="http://www.w3.org/2000/svg" viewBox="0 0 2450.62 1427.06"><defs><style>.cls-1{fill:#ebf3fa;}.cls-2{fill:#b5453c;}.cls-3{fill:#efcbab;}.cls-4{fill:#ed7d2b;}.cls-5{fill:#f99746;}.cls-6{fill:#fff;}.cls-7{fill:#f2f7fe;}.cls-8{fill:#8fadef;}.cls-9{fill:#bbd0ff;}.cls-10{fill:#aec3ff;}.cls-11{fill:#d2e0ff;}.cls-12{fill:#c0d8fb;}.cls-13{fill:#dfebfd;}.cls-14{fill:#b7d3f3;}.cls-15{fill:#d4e4f8;}.cls-16{fill:#c4d9e8;}.cls-17{fill:#dfebf5;}.cls-18{fill:#223156;}.cls-19{fill:#2c3a64;}.cls-20{fill:#163560;}.cls-21{fill:#35488b;}.cls-22{fill:#ffb27d;}.cls-23{fill:#f4a269;}.cls-24{fill:#dde7fe;}.cls-25{fill:#6c7aff;}.cls-26{fill:#cde2fc;}.cls-27{fill:#a4c8f4;}.cls-28{fill:#d9e8fe;}.cls-29{fill:#96c1ea;}.cls-30{fill:#f5fbff;}.cls-31{fill:#bdd8ff;}.cls-32{fill:#f77d48;}.cls-33{fill:#ff8c64;}.cls-34{fill:#9fc1f4;}.cls-35{fill:#ffb93e;}.cls-36{fill:#ffa412;}.cls-37{fill:#8c9df4;}.cls-38{fill:#a9baff;}.cls-39{fill:#cad7ff;}.cls-40{fill:#6980e2;}.cls-41{fill:#0b0755;}.cls-42{fill:#e9f0ff;}.cls-43{fill:#bbc9f9;}.cls-44{fill:#2e3552;}.cls-45{fill:#0b233f;}.cls-46{fill:#f9ddbf;}.cls-47{fill:#ffefe1;}.cls-48{fill:#2a4e96;}</style></defs><path class="cls-1" d="M332.25,1602.47s-205.28-338-107.8-736.82C290.43,595.73,653.35,404,881.17,489c122,45.51,268.08,77.16,456.76-133.37C1652.87,4.21,2616.27,171.12,2435.38,892.48c-87.54,349.09,266.42,361.78,86.06,710.73Z" transform="translate(-187.18 -178.31)"/><rect class="cls-2" x="2222.57" y="1013.85" width="10.13" height="119.44" transform="translate(-329.19 188.38) rotate(-9.12)"/><polygon class="cls-3" points="2027.66 815.53 2025.99 837.1 2035.99 835.49 2027.66 815.53"/><rect class="cls-2" x="2310.62" y="1023.68" width="10.13" height="119.44" transform="translate(49.75 -583.18) rotate(10.53)"/><polygon class="cls-3" points="2143.26 825.7 2134.43 845.45 2144.4 847.3 2143.26 825.7"/><rect class="cls-2" x="2297.99" y="989.24" width="10.13" height="119.44" transform="matrix(0.98, 0.18, -0.18, 0.98, 43.26, -581.47)"/><polygon class="cls-3" points="2130.63 791.25 2121.8 811 2131.77 812.85 2130.63 791.25"/><rect class="cls-4" x="2063.5" y="885.28" width="79.82" height="115.04"/><rect class="cls-5" x="2023.59" y="885.28" width="79.82" height="115.04"/><path class="cls-6" d="M2256.89,1147.59c-.75,1.81-2.13,11.36-5.07,19.35h0c-1.77,4.81-4.1,9-7.19,10.69-8.25,4.41-22.85-1.56-22.85-1.56s-24.23,4.16-26.66,3.17-6.83-37.46-6.83-37.46,17.88-20.76,19.54-21.41,16,5.89,18.32,5.76,15.76-10,19.61-7.9S2258.09,1144.7,2256.89,1147.59Z" transform="translate(-187.18 -178.31)"/><path class="cls-7" d="M2226.15,1126.14s-3.7,9.8-4.84,10.71-13.48-16.47-13.48-16.47C2209.49,1119.72,2223.78,1126.27,2226.15,1126.14Z" transform="translate(-187.18 -178.31)"/><path class="cls-7" d="M2246,1127.77s-16.44,17-16.13,18.49,19.42,11.17,20.07,10.75-4.65-12.35-4.53-14.43S2246,1127.77,2246,1127.77Z" transform="translate(-187.18 -178.31)"/><path class="cls-7" d="M2256.89,1147.59c-.75,1.81-2.13,11.36-5.07,19.35h0l1.07-18-7.13-30.7C2249.61,1120.32,2258.09,1144.7,2256.89,1147.59Z" transform="translate(-187.18 -178.31)"/><path class="cls-7" d="M2221.78,1176.08s-24.23,4.16-26.66,3.17-6.83-37.46-6.83-37.46,6.34,18.48,6.51,19.4,7.56-1.53,7.56-1.53Z" transform="translate(-187.18 -178.31)"/><polygon class="cls-7" points="2007.46 963.12 2010.71 972.68 2016.29 972.37 2011.92 968.52 2007.46 963.12"/><path class="cls-8" d="M2040.5,1184.71v10.39c0,3.63,1.18,6.6,2.62,6.6h379.07c1.44,0,2.62-3,2.62-6.6v-10.39c0-3.63-1.18-6.61-2.62-6.61H2043.12C2041.68,1178.1,2040.5,1181.08,2040.5,1184.71Z" transform="translate(-187.18 -178.31)"/><path class="cls-9" d="M2040.5,1184.71v10.39c0,3.63,1.08,6.6,2.4,6.6h300.95c1.31,0,2.4-3,2.4-6.6v-10.39c0-3.63-1.09-6.61-2.4-6.61H2042.9C2041.58,1178.1,2040.5,1181.08,2040.5,1184.71Z" transform="translate(-187.18 -178.31)"/><rect class="cls-10" x="2136.44" y="1201.71" width="269.12" height="392.26" transform="translate(4354.83 2617.35) rotate(180)"/><rect class="cls-11" x="2061.03" y="1201.71" width="269.12" height="392.26" transform="translate(4203.99 2617.35) rotate(180)"/><path class="cls-10" d="M2075.48,1212.79h240.2V1572.3h-240.2Zm237.61,2.59h-235v354.33h235Z" transform="translate(-187.18 -178.31)"/><rect class="cls-10" x="1889.6" y="1153.4" width="237.61" height="2.59"/><rect class="cls-10" x="1889.6" y="1274.65" width="237.61" height="2.59"/><path class="cls-10" d="M2171.24,1236h44.09a3.9,3.9,0,0,0,3.89-3.89h0a3.9,3.9,0,0,0-3.89-3.89h-44.09a3.9,3.9,0,0,0-3.89,3.89h0A3.9,3.9,0,0,0,2171.24,1236Z" transform="translate(-187.18 -178.31)"/><path class="cls-10" d="M2171.24,1354.54h44.09a3.9,3.9,0,0,0,3.89-3.89h0a3.9,3.9,0,0,0-3.89-3.89h-44.09a3.9,3.9,0,0,0-3.89,3.89h0A3.9,3.9,0,0,0,2171.24,1354.54Z" transform="translate(-187.18 -178.31)"/><path class="cls-10" d="M2171.24,1478.14h44.09a3.9,3.9,0,0,0,3.89-3.89h0a3.9,3.9,0,0,0-3.89-3.89h-44.09a3.9,3.9,0,0,0-3.89,3.89h0A3.9,3.9,0,0,0,2171.24,1478.14Z" transform="translate(-187.18 -178.31)"/><rect class="cls-12" x="1629.17" y="108.84" width="184.32" height="178.82" rx="13.18"/><rect class="cls-13" x="1637.15" y="116.59" width="168.35" height="163.33" rx="12.04"/><path class="cls-14" d="M1904.69,311.22a3.82,3.82,0,1,1,3.82,3.82A3.82,3.82,0,0,1,1904.69,311.22Z" transform="translate(-187.18 -178.31)"/><path class="cls-14" d="M1935.5,316.62a3.82,3.82,0,1,1,1.48,5.19A3.81,3.81,0,0,1,1935.5,316.62Z" transform="translate(-187.18 -178.31)"/><path class="cls-14" d="M1961.89,337.59a3.82,3.82,0,1,1-1.14,5.28A3.82,3.82,0,0,1,1961.89,337.59Z" transform="translate(-187.18 -178.31)"/><path class="cls-14" d="M1975,370.05a3.82,3.82,0,1,1-3.82,3.82A3.82,3.82,0,0,1,1975,370.05Z" transform="translate(-187.18 -178.31)"/><path class="cls-14" d="M1968.29,407.71a3.82,3.82,0,1,1-5.4,0A3.82,3.82,0,0,1,1968.29,407.71Z" transform="translate(-187.18 -178.31)"/><path class="cls-14" d="M1944.31,431.75a3.81,3.81,0,1,1-5.39,0A3.8,3.8,0,0,1,1944.31,431.75Z" transform="translate(-187.18 -178.31)"/><path class="cls-14" d="M1904.69,444.14a3.82,3.82,0,1,1,3.82,3.82A3.82,3.82,0,0,1,1904.69,444.14Z" transform="translate(-187.18 -178.31)"/><path class="cls-14" d="M1881.39,316.62a3.82,3.82,0,1,0-1.48,5.19A3.81,3.81,0,0,0,1881.39,316.62Z" transform="translate(-187.18 -178.31)"/><path class="cls-14" d="M1855,337.59a3.82,3.82,0,1,0,1.14,5.28A3.83,3.83,0,0,0,1855,337.59Z" transform="translate(-187.18 -178.31)"/><path class="cls-14" d="M1841.93,370.05a3.82,3.82,0,1,0,3.81,3.82A3.82,3.82,0,0,0,1841.93,370.05Z" transform="translate(-187.18 -178.31)"/><path class="cls-14" d="M1848.6,407.71a3.82,3.82,0,1,0,5.4,0A3.82,3.82,0,0,0,1848.6,407.71Z" transform="translate(-187.18 -178.31)"/><path class="cls-14" d="M1872.58,431.75a3.82,3.82,0,1,0,5.4,0A3.82,3.82,0,0,0,1872.58,431.75Z" transform="translate(-187.18 -178.31)"/><path class="cls-14" d="M1907.48,373.87a3.82,3.82,0,1,1,3.82,3.81A3.82,3.82,0,0,1,1907.48,373.87Z" transform="translate(-187.18 -178.31)"/><rect class="cls-14" x="1723.59" y="147.85" width="1.04" height="47.7"/><rect class="cls-14" x="1907.38" y="362.31" width="32.15" height="3.13" transform="translate(-1.36 1087.06) rotate(-38.13)"/><path class="cls-10" d="M541.05,1330.2s42.32-49.37,2.61-80.73c0,0-29-17.56-52.66-16.14,0,0,33.51,56.2,22.67,61.79s-32.83-65.31-32.83-65.31-66-6.4-87.24,3.81c0,0,56.43,46.17,44.55,48.92S365.31,1240,365.31,1240s-61.43,10.45-58.16,47.93,24.45,49,33.75,48,63.73-21.77,64.91-14.15-31.57,32.54-54.51,33.71c0,0,43.31,47.76,72.1,34s31.24-35.64,49.18-43.84,33.27-8.17,25.86.19-39.89,16.48-50.15,34.63-19.47,30.4,10.32,25.91,78.19-26.27,80.31-51.22Z" transform="translate(-187.18 -178.31)"/><path class="cls-10" d="M337.34,1288.91s166.86-6.43,203.71,41.29c0,0,8.15,24.41,33.23,46.63l3.9,10.66s-28.91-30.49-39.26-32.33C538.92,1355.16,555.1,1296,337.34,1288.91Z" transform="translate(-187.18 -178.31)"/><path class="cls-10" d="M574.28,1376.83s35.81,26.49,38.3,73.82l-6.5.58s-11.44-48.94-32.12-68.07S574.28,1376.83,574.28,1376.83Z" transform="translate(-187.18 -178.31)"/><path class="cls-15" d="M689,1268.11s-67.33-37.7-35.91-88.86c0,0,25.13-31.42,52.06-39.5,0,0-14.36,76.3,0,78.09s9.87-86.17,9.87-86.17,70.92-34.11,98.74-31.41c0,0-44,74.5-29.62,72.7s63.73-77.19,63.73-77.19,72.71-13.46,84.38,29.62-7.18,64.63-18,67.32-79.88,1.8-78.09,10.77,48.47,23.34,74.5,15.26c0,0-28.72,70.91-66.42,67.32s-49.37-26.93-72.71-28.72-40.39,4.49-28.72,10.77,51.16,2.06,70,18.08,34.11,25.9-.89,33.08S714.15,1322,701.58,1295Z" transform="translate(-187.18 -178.31)"/><path class="cls-15" d="M899.05,1138.85s-188.49,61-210,129.26c0,0,.89,30.52-18,65.52v13.47s19.75-45.78,30.52-52.06C701.58,1295,659.39,1235.8,899.05,1138.85Z" transform="translate(-187.18 -178.31)"/><path class="cls-15" d="M671.06,1333.63s-29.07,44.15-12.49,97.88l7.47-2s-7.25-59.18,8-89S671.06,1333.63,671.06,1333.63Z" transform="translate(-187.18 -178.31)"/><path class="cls-11" d="M581.91,1216.12s88.74-49.7,47.33-117.14c0,0-33.13-41.41-68.62-52.06,0,0,18.93,100.57,0,102.94s-13-113.59-13-113.59-93.47-45-130.15-41.41c0,0,58,98.2,39,95.84s-84-101.76-84-101.76-95.84-17.75-111.22,39,9.47,85.19,23.67,88.74,105.3,2.36,102.94,14.2S324,1161.69,289.66,1151c0,0,37.86,93.47,87.56,88.74s65.07-35.49,95.84-37.86,53.24,5.91,37.86,14.2-67.44,2.71-92.29,23.84-45,34.13,1.18,43.6,129,3.55,145.54-32Z" transform="translate(-187.18 -178.31)"/><path class="cls-11" d="M305,1045.73s248.48,80.46,276.87,170.39c0,0-1.18,40.23,23.67,86.37v17.75s-26-60.34-40.23-68.63C565.35,1251.61,621,1173.52,305,1045.73Z" transform="translate(-187.18 -178.31)"/><path class="cls-11" d="M605.58,1302.49s38.32,58.19,16.47,129l-9.86-2.64s9.57-78-10.48-117.26S605.58,1302.49,605.58,1302.49Z" transform="translate(-187.18 -178.31)"/><path class="cls-10" d="M584.9,1585.12a173.83,173.83,0,0,1-173.83-173.83H758.73A173.83,173.83,0,0,1,584.9,1585.12Z" transform="translate(-187.18 -178.31)"/><path class="cls-10" d="M408.67,1594H761.13a21.44,21.44,0,0,0-21.44-21.44H430.12A21.45,21.45,0,0,0,408.67,1594Z" transform="translate(-187.18 -178.31)"/><rect class="cls-11" x="407.12" y="1411.29" width="357.33" height="5.33" transform="translate(984.39 2649.59) rotate(180)"/><path class="cls-6" d="M943,1567.62c-.62,1.52-1.74,9.6-4.18,16.37h0c-1.48,4.07-3.42,7.65-6,9.07-6.95,3.76-19.32-1.21-19.32-1.21S893,1595.5,891,1594.67s-6-31.62-6-31.62,15-17.63,16.41-18.19,13.51,4.9,15.51,4.78,13.27-8.5,16.53-6.77S944,1565.17,943,1567.62Z" transform="translate(-187.18 -178.31)"/><path class="cls-7" d="M916.93,1549.64s-3.08,8.3-4,9.08-11.47-13.86-11.47-13.86C902.82,1544.3,914.93,1549.76,916.93,1549.64Z" transform="translate(-187.18 -178.31)"/><path class="cls-7" d="M933.71,1550.92s-13.81,14.45-13.54,15.71,16.46,9.33,17,9-4-10.42-3.91-12.17S933.71,1550.92,933.71,1550.92Z" transform="translate(-187.18 -178.31)"/><path class="cls-7" d="M943,1567.62c-.62,1.52-1.74,9.6-4.18,16.37h0l.82-15.22-6.18-25.91C936.73,1544.61,944,1565.17,943,1567.62Z" transform="translate(-187.18 -178.31)"/><path class="cls-7" d="M913.48,1591.86S893,1595.5,891,1594.67s-6-31.62-6-31.62,5.46,15.58,5.6,16.37,6.38-1.34,6.38-1.34Z" transform="translate(-187.18 -178.31)"/><polygon class="cls-7" points="703.2 1384.41 705.99 1392.47 710.71 1392.18 707 1388.95 703.2 1384.41"/><path class="cls-6" d="M1390,1567.62c-.63,1.52-1.74,9.6-4.19,16.37h0c-1.47,4.07-3.42,7.65-6,9.07-7,3.76-19.31-1.21-19.31-1.21s-20.45,3.64-22.52,2.81-6-31.62-6-31.62,15-17.63,16.4-18.19,13.51,4.9,15.51,4.78,13.27-8.5,16.53-6.77S1391,1565.17,1390,1567.62Z" transform="translate(-187.18 -178.31)"/><path class="cls-7" d="M1363.92,1549.64s-3.08,8.3-4,9.08-11.48-13.86-11.48-13.86C1349.81,1544.3,1361.92,1549.76,1363.92,1549.64Z" transform="translate(-187.18 -178.31)"/><path class="cls-7" d="M1380.71,1550.92s-13.81,14.45-13.54,15.71,16.46,9.33,17,9-4-10.42-3.9-12.17S1380.71,1550.92,1380.71,1550.92Z" transform="translate(-187.18 -178.31)"/><path class="cls-7" d="M1390,1567.62c-.63,1.52-1.74,9.6-4.19,16.37h0l.82-15.22-6.18-25.91C1383.72,1544.61,1391,1565.17,1390,1567.62Z" transform="translate(-187.18 -178.31)"/><path class="cls-7" d="M1360.48,1591.86s-20.45,3.64-22.52,2.81-6-31.62-6-31.62,5.45,15.58,5.6,16.37,6.38-1.34,6.38-1.34Z" transform="translate(-187.18 -178.31)"/><polygon class="cls-7" points="1150.19 1384.41 1152.98 1392.47 1157.7 1392.18 1153.99 1388.95 1150.19 1384.41"/><path class="cls-6" d="M2181.79,1563.74c-.84,1.73-2.71,11-6,18.72h0c-2,4.62-4.52,8.65-7.65,10.1-8.33,3.88-22.34-2.77-22.34-2.77s-24,2.77-26.35,1.66-4.67-37.15-4.67-37.15,18.68-19.4,20.35-20,15.34,6.66,17.67,6.66,16-8.93,19.68-6.69S2183.12,1561,2181.79,1563.74Z" transform="translate(-187.18 -178.31)"/><path class="cls-7" d="M2152.77,1541s-4.17,9.42-5.33,10.25-12.34-16.91-12.34-16.91C2136.76,1533.8,2150.44,1541,2152.77,1541Z" transform="translate(-187.18 -178.31)"/><path class="cls-7" d="M2172.17,1543.69s-17.06,15.8-16.84,17.27,18.45,12,19.12,11.65-3.89-12.38-3.67-14.42S2172.17,1543.69,2172.17,1543.69Z" transform="translate(-187.18 -178.31)"/><path class="cls-7" d="M2181.79,1563.74c-.84,1.73-2.71,11-6,18.72h0l2-17.62-5.34-30.53C2176.12,1536.57,2183.12,1561,2181.79,1563.74Z" transform="translate(-187.18 -178.31)"/><path class="cls-7" d="M2145.77,1589.8s-24,2.77-26.35,1.66-4.67-37.15-4.67-37.15,5.23,18.49,5.34,19.41,7.5-1.1,7.5-1.1Z" transform="translate(-187.18 -178.31)"/><polygon class="cls-7" points="1933.83 1376 1936.49 1385.56 1942 1385.56 1937.91 1381.54 1933.83 1376"/><path class="cls-6" d="M2119.9,1155.9c-.58,1.23-1.66,7.7-3.94,13.14h0c-1.38,3.27-3.19,6.15-5.59,7.3-6.4,3.08-17.72-.79-17.72-.79s-18.79,3.1-20.68,2.45-5.29-25.24-5.29-25.24,13.88-14.24,15.17-14.7,12.37,3.8,14.21,3.68,12.22-6.91,15.21-5.56S2120.83,1153.94,2119.9,1155.9Z" transform="translate(-187.18 -178.31)"/><path class="cls-16" d="M2096.06,1141.75s-2.88,6.68-3.76,7.3-10.45-11-10.45-11C2083.14,1137.61,2094.22,1141.87,2096.06,1141.75Z" transform="translate(-187.18 -178.31)"/><path class="cls-17" d="M2111.46,1142.63s-12.76,11.68-12.52,12.69,15,7.32,15.56,7-3.6-8.3-3.51-9.7S2111.46,1142.63,2111.46,1142.63Z" transform="translate(-187.18 -178.31)"/><path class="cls-16" d="M2119.9,1155.9c-.58,1.23-1.66,7.7-3.94,13.14h0l.84-12.19-5.52-20.67C2114.26,1137.55,2120.83,1153.94,2119.9,1155.9Z" transform="translate(-187.18 -178.31)"/><path class="cls-17" d="M2092.65,1175.56s-18.79,3.1-20.68,2.45-5.29-25.24-5.29-25.24,4.92,12.42,5.05,13,5.86-1.12,5.86-1.12Z" transform="translate(-187.18 -178.31)"/><polygon class="cls-17" points="1884.43 974.14 1886.94 980.57 1891.28 980.29 1887.89 977.74 1884.43 974.14"/><path class="cls-18" d="M1101.07,1422.76s14.37,38.48,11.32,52.75,1.87,41.94-4,54.31-16.27,30.36-6.26,34.92c3.8,1.72,48-32.57,50.55-42.69s4.5-40,13-56.18,1.37-29.28-10.86-35.24-29.27-38.59-29.27-38.59Z" transform="translate(-187.18 -178.31)"/><path class="cls-10" d="M1233.08,1595.38h-.65a8.71,8.71,0,0,1-8.81-9.33l35.05-350.15,30.6,2.73-50.34,352A5.7,5.7,0,0,1,1233.08,1595.38Z" transform="translate(-187.18 -178.31)"/><path class="cls-10" d="M1570.68,1595.38h.64a8.72,8.72,0,0,0,8.82-9.33l-35.06-350.15-30.59,2.73,50.34,352A5.69,5.69,0,0,0,1570.68,1595.38Z" transform="translate(-187.18 -178.31)"/><path class="cls-10" d="M985.73,1595.38h-.64a8.72,8.72,0,0,1-8.82-9.33l35.06-350.15,30.59,2.73-50.34,352A5.7,5.7,0,0,1,985.73,1595.38Z" transform="translate(-187.18 -178.31)"/><path class="cls-11" d="M1560.24,1185l62.23-307.34c8-41.61-26.49-79.66-71.26-78.63l-120,2.74a94.8,94.8,0,0,0-88.91,68.44l-91,314.79Z" transform="translate(-187.18 -178.31)"/><path class="cls-10" d="M1522.59,1185l62.23-307.34c8-41.61-26.49-79.66-71.26-78.63l-120,2.74a94.8,94.8,0,0,0-88.91,68.44l-91,314.79Z" transform="translate(-187.18 -178.31)"/><path class="cls-11" d="M880.85,1006.64h492.21a0,0,0,0,1,0,0v38.71a17.35,17.35,0,0,1-17.35,17.35H880.85a17.35,17.35,0,0,1-17.35-17.35V1024A17.35,17.35,0,0,1,880.85,1006.64Z"/><rect class="cls-10" x="816.18" y="1006.64" width="330.66" height="56.05" rx="13.97"/><path class="cls-19" d="M1339.73,1059.2s-252.48-4-286.16,17.41,33.67,363.54,33.67,363.54,65.3,2.08,70.49-15.2c0,0-11.75-160.3-1.47-188s3.94-66.08,3.94-66.08,127.72,19.49,168.28,9.9S1339.73,1059.2,1339.73,1059.2Z" transform="translate(-187.18 -178.31)"/><path class="cls-20" d="M1058.19,1482.46s-13.85,38.67-25.39,47.61-25.63,33.25-38.08,38.93-32,12.7-27.31,22.64c1.79,3.77,57.7,6.09,66.16,0s29.23-27.64,46.15-34.56,19.94-21.48,14.44-33.93,2.54-48.38,2.54-48.38Z" transform="translate(-187.18 -178.31)"/><path class="cls-21" d="M1482.9,1050.21s-299.61,46.89-322.7,73.55-114.5,373.93-114.5,373.93,26.67,15,51,1.11c0,0,69.6-117.69,100.35-154.62s42.55-151.15,47.61-152.31,166.3,19.47,225.7-19.83C1505.36,1148.87,1482.9,1050.21,1482.9,1050.21Z" transform="translate(-187.18 -178.31)"/><path class="cls-22" d="M1204.58,985.89s-10.62.77-18.07-3.93c-2.5-1.58-20.1-7.68-28.15-4s-25,16.1-20.37,19.78,19.63,1.53,23.28.34,9.93,7.92,16.52,7.43,16-4.07,30-1.88,11.6-18,9.56-19.66S1204.58,985.89,1204.58,985.89Z" transform="translate(-187.18 -178.31)"/><path class="cls-22" d="M1189.8,984.63s-12-9.71-15.78-13.18-5.13-3-5.56-.83,9,9.62,6.11,15.63S1191.25,988.51,1189.8,984.63Z" transform="translate(-187.18 -178.31)"/><path class="cls-20" d="M1462.55,893.28l-.79-1.44c14.74-8.09,26-17.56,33.33-28.16a57.32,57.32,0,0,0,10.31-27.3,56.42,56.42,0,0,0-4.69-28.85l0-1.69c.27.52,9.35,13.34,7.67,30.28a61.2,61.2,0,0,1-10.65,28.66C1490.16,875.59,1477.52,885.07,1462.55,893.28Z" transform="translate(-187.18 -178.31)"/><path class="cls-22" d="M1210.41,713.61s4.2-10.7,4.71-13.39-4.17-19.89.86-26.32,20-18.91,22.23-13.94-2.94,18-4.81,21,4.93,10.65,3,16.45-9.48,15-10.6,28-16.34,5-17.43,2.75S1210.41,713.61,1210.41,713.61Z" transform="translate(-187.18 -178.31)"/><path class="cls-20" d="M1263.53,626.34c25.53-8.72,33.18-7.38,49.18-7.74,23.41-.52,48.81-10,61.12,15,18.63,37.77,30.87,7.81,72.56,25.14S1469,713,1464.64,723.32c-19.2,45.38,31,63.75,39.44,89.7s-22.4,72.18-62.26,72.76-225-22.23-207.23-84.25S1219.66,705.8,1217,689.69C1213.55,669.17,1227.38,638.67,1263.53,626.34Z" transform="translate(-187.18 -178.31)"/><path class="cls-5" d="M1494.85,1075.12q-35.86,5-66.72,9.49c-41.06,5.94-114.33-3-114.64-13-.49-16.43,5.22-33.8,6.42-50.11.57-7.79.12-15.35-2.53-22.43-.9-2.39-2-5.13-3.26-8.16-2.56-6.17-5.73-13.5-8.92-21.39-1.8-4.45-3.6-9.1-5.3-13.81q-1.15-3.13-2.2-6.3c-.16-.46-.32-.94-.47-1.41q-.76-2.29-1.46-4.59c-.45-1.46-.87-2.92-1.28-4.37a133.08,133.08,0,0,1-3.35-15.17,70.12,70.12,0,0,1-.91-11.1c0-15.67-8.4-20.17-18.75-21.68-4.59-.67-9.53-.76-14.28-1h0a68,68,0,0,1-10.66-1.11c-6.92-1.48-14.18-39.7-5.16-59.27,2.78-6,7.11-10.28,13.48-11.15h.07a233.17,233.17,0,0,0,45.42-10.9c4-1.46,56.41-17.48,59.72-17.82,27.72-2.82,52.55-5.64,78.34,14.51C1500.94,853.29,1495,1074.75,1494.85,1075.12Z" transform="translate(-187.18 -178.31)"/><path class="cls-20" d="M1225.36,708.6c-4.94-4.21-15.33-14-15.85-26.89-.45-11.14,5.1-22.57,16.48-34,18.11-18.12,36.3-26.09,48.38-29.59,13.12-3.8,38.21,1.87,38.58,1.89l-8,2c-12.93-5-43.76-7.82-77.82,26.88-10.94,11.15-15.38,20.21-15,30.87.5,12.27,8.08,18.8,12.81,22.83.24.2,6.34,1.7,6.34,1.7S1225.5,708.71,1225.36,708.6Z" transform="translate(-187.18 -178.31)"/><path class="cls-22" d="M1331.78,823.44c-23.27,6-26.51-1.87-29.68-10.41-1.31-3.53-3.12-9.76-5.25-17.23-.88-3.13-1.83-6.47-2.83-9.93-1.9-6.67-4.11-13.48-5.89-18.76-1.94-5.78-3.38-9.74-3.38-9.74l44.49-22.71,2.65-1.34c10.25,36.65,25.37,50.45,28.1,56.43C1365.74,802.32,1347,819.47,1331.78,823.44Z" transform="translate(-187.18 -178.31)"/><path class="cls-23" d="M1333.28,751.45c-1.92,14.89-10.56,36-36.43,44.35-.88-3.13-1.83-6.47-2.83-9.93-1.9-6.67-4.11-13.48-5.89-18.76Z" transform="translate(-187.18 -178.31)"/><path class="cls-22" d="M1284.91,787.53s62.38-17.87,50.65-56.54-11.57-67-51.89-57.25-43.54,26.87-42.77,40.73S1268.39,791.18,1284.91,787.53Z" transform="translate(-187.18 -178.31)"/><path class="cls-20" d="M1278.22,684.78c-17.36,9.68-20.44,26.25-39.41,28.4-15.56,1.76-23.37-41.42,9.14-58.15,39.44-20.29,34.29-34.82,51.3-36.37,28.09-2.58,48.47,90.81,46.92,92.68s-8.25,15.89-8.25,15.89-10.47-6.44-9.6-10.45c2.82-12.93-7.22-24.3-15.47-14.54C1305.89,710.49,1290.64,677.85,1278.22,684.78Z" transform="translate(-187.18 -178.31)"/><path class="cls-5" d="M1231.46,746.18s-5.37,17.32-15.09,41.55h0c-3.25,8.09-7,16.95-11.16,26.2-1.59,3.51-3.14,6.78-4.65,9.85l-.14.26c-14.35,29-25.68,38.51-38.85,40.72-5.52.93-11,1.39-15.5,0-7.45-2.21-12.47-9.3-11.4-27.24,1.72-28.86,77.74-129.17,77.74-129.17,6.39,1.79,10.73,8.26,13.63,15.35A90.84,90.84,0,0,1,1231.46,746.18Z" transform="translate(-187.18 -178.31)"/><path class="cls-5" d="M1289.31,815.14S1177,826.46,1162.19,827.78,1143.86,864,1143.86,864s70.94,28.06,144,27.47S1289.31,815.14,1289.31,815.14Z" transform="translate(-187.18 -178.31)"/><path class="cls-20" d="M1472,685c-3.28-15.56-13-31.33-27.65-36.74-11.13-4.12-25.72-5.12-42.19-2.9-7.91,1.07-14.93-.66-20.85-5.14-4.35-3.28-8.94-9.48-9.12-9.75h0l1.92,5.31c-2.46,3.76.75,4.1,5.51,7.72h0c4.39,3.33,12.22,5.3,22.82,3.88,16.13-2.18,28.3-.66,39.12,3.34,11.66,4.32,20.24,11.21,24.55,22.08h0a41.88,41.88,0,0,1,2,6.7l3.69,5.2h0Z" transform="translate(-187.18 -178.31)"/><path class="cls-4" d="M1216.36,787.73c-3.25,8.09-7,16.95-11.16,26.2-1.59,3.51-3.14,6.78-4.65,9.85-.45.15-.92.28-1.4.39h0a26.92,26.92,0,0,1-8.14.81c-7.26-.69-5-6.87.7-10.9C1199,809,1216.07,788.09,1216.36,787.73Z" transform="translate(-187.18 -178.31)"/><path class="cls-4" d="M1422.1,917.62s-35.72,92.25-102.19,103.9c.57-7.79.12-15.35-2.53-22.43-.9-2.39-2-5.13-3.26-8.16,3.94-1.87,6.58-3,6.58-3Z" transform="translate(-187.18 -178.31)"/><path class="cls-4" d="M1366.11,883.49l-32.84,86.08h-28l0,0c-1.8-4.45-3.6-9.1-5.3-13.81q-1.15-3.13-2.2-6.3c-.16-.46-.32-.94-.47-1.41C1316.56,941.58,1350.55,907.44,1366.11,883.49Z" transform="translate(-187.18 -178.31)"/><path class="cls-5" d="M1412.15,815.14s-78.87,126.41-112.25,140.6c-19,8.08-104.58,26.46-104.58,26.46l1.73,19s122.6,4.5,136.23,0c40.11-13.25,105.11-100.58,105.11-100.58Z" transform="translate(-187.18 -178.31)"/><rect class="cls-21" x="1308.57" y="987.52" width="60.32" height="204.11"/><rect class="cls-19" x="1368.89" y="987.52" width="145.46" height="204.11"/><ellipse class="cls-24" cx="1338.73" cy="1013.01" rx="10.07" ry="10.56"/><path class="cls-25" d="M1518.79,1191.32a7.13,7.13,0,1,1,7.12,7.47A7.29,7.29,0,0,1,1518.79,1191.32Z" transform="translate(-187.18 -178.31)"/><rect class="cls-8" x="1324.76" y="1038.45" width="28.37" height="53.76"/><rect class="cls-26" x="1439.76" y="1118.13" width="113.99" height="38.54"/><rect class="cls-27" x="1553.75" y="1118.13" width="113.99" height="38.54"/><rect class="cls-8" x="1439.77" y="1136.98" width="28.44" height="0.84"/><rect class="cls-8" x="1475.18" y="1125.12" width="78.57" height="0.84"/><rect class="cls-8" x="1439.77" y="1147.36" width="50.29" height="0.84"/><rect class="cls-28" x="1404.41" y="1079.59" width="113.99" height="38.54"/><rect class="cls-29" x="1518.4" y="1079.59" width="113.99" height="38.54"/><rect class="cls-8" x="1404.41" y="1098.44" width="28.45" height="0.84"/><rect class="cls-8" x="1439.83" y="1086.58" width="78.57" height="0.84"/><rect class="cls-8" x="1404.41" y="1108.82" width="50.29" height="0.84"/><rect class="cls-15" x="1468.21" y="970.94" width="113.99" height="38.54"/><rect class="cls-27" x="1582.2" y="970.94" width="113.99" height="38.54"/><rect class="cls-8" x="1468.21" y="989.79" width="28.45" height="0.84"/><rect class="cls-8" x="1503.63" y="977.93" width="78.57" height="0.84"/><rect class="cls-8" x="1468.21" y="999.63" width="50.29" height="0.84"/><rect class="cls-30" x="1432.86" y="932.4" width="113.99" height="38.54"/><rect class="cls-31" x="1546.84" y="932.4" width="113.99" height="38.54"/><rect class="cls-8" x="1432.86" y="951.25" width="28.45" height="0.84"/><rect class="cls-8" x="1540.96" y="951.25" width="28.45" height="0.84"/><rect class="cls-8" x="1530.45" y="939.39" width="78.57" height="0.84"/><rect class="cls-8" x="1432.86" y="961.63" width="50.29" height="0.84"/><rect class="cls-31" x="1748.45" y="1187.74" width="113.99" height="70.16" transform="translate(3423.7 2267.33) rotate(180)"/><rect class="cls-30" x="1634.46" y="1187.74" width="113.99" height="70.16" transform="translate(3195.73 2267.33) rotate(180)"/><rect class="cls-8" x="1646.81" y="1043.94" width="28.44" height="1.13"/><rect class="cls-21" x="1483.15" y="1022.62" width="156.69" height="0.6"/><rect class="cls-8" x="1624.97" y="1062.83" width="50.29" height="1.13"/><rect class="cls-21" x="1528.17" y="1035.19" width="54.02" height="0.6"/><rect class="cls-32" x="1352.27" y="1156.81" width="335.61" height="260.09"/><rect class="cls-33" x="1241.94" y="1156.81" width="266.09" height="260.09"/><rect class="cls-19" x="1317.59" y="1181.94" width="84.44" height="17.33" rx="7.95"/><polygon class="cls-34" points="1404.23 1316.77 1341.39 1305.19 1352.42 1239.28 1415.26 1250.86 1404.23 1316.77"/><polygon class="cls-8" points="1413.48 1261.51 1350.64 1249.93 1352.42 1239.28 1415.26 1250.86 1413.48 1261.51"/><polygon class="cls-35" points="1495.88 1250.78 1434.17 1267.78 1417.96 1203.06 1479.67 1186.05 1495.88 1250.78"/><polygon class="cls-36" points="1482.29 1196.51 1420.58 1213.52 1417.96 1203.06 1479.67 1186.05 1482.29 1196.51"/><rect class="cls-37" x="1437.77" y="616.73" width="279" height="206.14"/><rect class="cls-38" x="1346.05" y="616.73" width="221.21" height="206.14"/><rect class="cls-21" x="1408.94" y="636.64" width="70.2" height="13.74" rx="6.45"/><rect class="cls-39" x="1335.2" y="581.65" width="232.06" height="45.41"/><rect class="cls-40" x="1567.26" y="581.65" width="156.47" height="45.41"/><rect class="cls-33" x="1662.11" y="846.2" width="73.37" height="73.37" transform="translate(-355.75 282.26) rotate(-14.72)"/><rect class="cls-32" x="1654.29" y="847.2" width="73.37" height="11.86" transform="matrix(0.97, -0.25, 0.25, 0.97, -348.45, 279.3)"/><polygon class="cls-32" points="1489.59 489.11 1547.77 442.27 1634.08 452.82 1634.08 489.11 1489.59 489.11"/><rect class="cls-33" x="1639.06" y="571.76" width="47.29" height="144.49" transform="translate(2119.52 -1197.01) rotate(90)"/><path class="cls-24" d="M1716.9,636.64a7.48,7.48,0,1,1-7.48,7.48A7.48,7.48,0,0,1,1716.9,636.64Z" transform="translate(-187.18 -178.31)"/><path class="cls-41" d="M1716.9,639.94a4.18,4.18,0,1,1-4.18,4.18A4.18,4.18,0,0,1,1716.9,639.94Z" transform="translate(-187.18 -178.31)"/><rect class="cls-31" x="1666" y="621.92" width="21.07" height="44.72" transform="translate(2133.63 -1210.56) rotate(90)"/><rect class="cls-24" x="1411.95" y="535.49" width="143.19" height="46.16"/><rect class="cls-37" x="1555.15" y="535.49" width="143.2" height="46.16"/><rect class="cls-37" x="1411.95" y="558.07" width="35.73" height="1"/><rect class="cls-37" x="1456.44" y="543.87" width="98.7" height="1"/><rect class="cls-37" x="1411.95" y="570.5" width="63.17" height="1"/><rect class="cls-42" x="1367.54" y="489.33" width="143.2" height="46.16"/><rect class="cls-43" x="1510.74" y="489.33" width="143.19" height="46.16"/><rect class="cls-8" x="1367.54" y="511.91" width="35.73" height="1"/><rect class="cls-8" x="1412.03" y="497.71" width="98.7" height="1"/><rect class="cls-8" x="1367.54" y="524.34" width="63.17" height="1"/><rect class="cls-44" y="1415.65" width="2450.62" height="11.41" rx="3.68"/><path class="cls-6" d="M2035.2,835.55s102.21-8.12,184.24-130.18l-62.58-135.61s-83.6,108.43-153.75,116.77Z" transform="translate(-187.18 -178.31)"/><path class="cls-6" d="M1636.06,527.22s-76.23-6.05-137.41-97.08L1545.32,329s62.35,80.87,114.67,87.09Z" transform="translate(-187.18 -178.31)"/><path class="cls-6" d="M734.27,944.9s-84.92-6.74-153.08-108.16l52-112.68s69.46,90.1,127.76,97Z" transform="translate(-187.18 -178.31)"/><path class="cls-6" d="M1050.51,1383s-28.32,70.29-132.54,101.16L836.16,1410s95-35,116.35-82.62Z" transform="translate(-187.18 -178.31)"/><path class="cls-45" d="M1098.17,1001.18h140.61A11.21,11.21,0,0,0,1227.57,990h-129.4Z" transform="translate(-187.18 -178.31)"/><polygon class="cls-45" points="911.39 669.73 694 669.73 746.14 822.86 964.94 822.86 911.39 669.73"/><polygon class="cls-20" points="690.79 669.72 742.94 822.86 961.74 822.86 908.19 669.72 690.79 669.72"/><path class="cls-6" d="M995.18,923.19c1.35,5.85,7.19,10.6,13,10.6s9.5-4.75,8.15-10.6-7.19-10.59-13-10.59S993.83,917.34,995.18,923.19Z" transform="translate(-187.18 -178.31)"/><rect class="cls-42" x="1256.15" y="781.02" width="127.29" height="46.16"/><rect class="cls-40" x="1383.44" y="781.02" width="127.29" height="46.16"/><rect class="cls-8" x="1256.15" y="803.59" width="31.76" height="1"/><rect class="cls-8" x="1295.7" y="789.39" width="87.74" height="1"/><rect class="cls-8" x="1256.15" y="816.02" width="56.16" height="1"/><rect class="cls-4" x="1599.05" y="656.17" width="51.67" height="166.69"/><rect class="cls-5" x="1650.73" y="656.17" width="124.61" height="166.69"/><circle class="cls-24" cx="1812.07" cy="855.3" r="8.62" transform="translate(-261.23 1353.52) rotate(-45)"/><path class="cls-25" d="M1806,855.3a6.1,6.1,0,1,1,6.1,6.1A6.09,6.09,0,0,1,1806,855.3Z" transform="translate(-187.18 -178.31)"/><rect class="cls-8" x="1612.93" y="697.77" width="24.3" height="43.91"/><polygon class="cls-40" points="654.86 810.75 660.66 810.75 660.66 710.97 601.37 559.68 707.23 477.65 703.68 473.07 594.39 557.76 654.86 712.06 654.86 810.75"/><path class="cls-40" d="M906.37,666.42h0a5.92,5.92,0,0,0,1.41-8.25L899,645.74a5.9,5.9,0,0,0-8.24-1.4h0a5.91,5.91,0,0,0-1.41,8.24L898.13,665A5.91,5.91,0,0,0,906.37,666.42Z" transform="translate(-187.18 -178.31)"/><path class="cls-40" d="M794.05,736.25a7.67,7.67,0,1,0-7.67,7.68A7.67,7.67,0,0,0,794.05,736.25Z" transform="translate(-187.18 -178.31)"/><path class="cls-40" d="M816.81,986.19h58.31a0,0,0,0,1,0,0v5.46A11.14,11.14,0,0,1,864,1002.79H827.52a10.71,10.71,0,0,1-10.71-10.71v-5.89A0,0,0,0,1,816.81,986.19Z" transform="translate(1504.74 1810.67) rotate(180)"/><rect class="cls-40" x="838.85" y="896.35" width="12.25" height="92.72" transform="translate(1502.76 1707.1) rotate(180)"/><path class="cls-5" d="M893.25,752.48c.27.31.55.62.84.91l.06.06c.26.3.54.59.81.87,7.92,6.87,34.17-5.44,59.56-28.15s40.54-47.41,34.6-56c-.25-.31-.51-.61-.78-.91l-.05-.07c-.26-.31-.54-.62-.81-.93a63.2,63.2,0,1,0-94.23,84.26Z" transform="translate(-187.18 -178.31)"/><path class="cls-46" d="M894.08,753.39l.06.06.26.32a4.94,4.94,0,0,0,.57.55c7.91,6.87,34.16-5.43,59.54-28.15s40.55-47.4,34.61-56a7.87,7.87,0,0,0-.49-.62,2,2,0,0,0-.29-.29l-.06-.07c-5.39-5.1-20-.55-37.11,10.51a186.41,186.41,0,0,0-22.65,17.45,195.45,195.45,0,0,0-16.15,16.2C897,730.79,889.2,746.93,894.08,753.39Z" transform="translate(-187.18 -178.31)"/><path class="cls-47" d="M912.37,713.31a26.06,26.06,0,0,0,38.8-33.65,186.41,186.41,0,0,0-22.65,17.45A195.45,195.45,0,0,0,912.37,713.31Z" transform="translate(-187.18 -178.31)"/><rect class="cls-48" x="570.29" y="822.86" width="1230.01" height="34.45" rx="16.71"/><path class="cls-48" d="M779.84,1603.15l-.41-.05a8.74,8.74,0,0,1-7.72-9.72l74.32-575,41.65,1.2L787.8,1597.37A7.13,7.13,0,0,1,779.84,1603.15Z" transform="translate(-187.18 -178.31)"/><path class="cls-48" d="M1991.21,1603.15l.41-.05a8.74,8.74,0,0,0,7.72-9.72l-74.33-575-41.65,1.2,99.89,577.77A7.13,7.13,0,0,0,1991.21,1603.15Z" transform="translate(-187.18 -178.31)"/></svg>