<svg width="22" height="22" viewBox="0 0 22 22" fill="none" xmlns="http://www.w3.org/2000/svg">
<path d="M7.69166 2C5.55513 2 4.79452 2.14688 4.01266 2.56502C3.38342 2.90155 2.90155 3.38342 2.56502 4.01266C2.14688 4.79452 2 5.55513 2 7.69166V14.3083C2 16.4449 2.14688 17.2055 2.56502 17.9873C2.90155 18.6166 3.38342 19.0985 4.01266 19.435C4.79452 19.8531 5.55513 20 7.69166 20H14.3083C16.4449 20 17.2055 19.8531 17.9873 19.435C18.6166 19.0985 19.0985 18.6166 19.435 17.9873C19.8531 17.2055 20 16.4449 20 14.3083V7.69166C20 5.55513 19.8531 4.79452 19.435 4.01266C19.0985 3.38342 18.6166 2.90155 17.9873 2.56502C17.2055 2.14688 16.4449 2 14.3083 2H7.69166ZM7.69166 0H14.3083C16.9829 0 17.9528 0.278477 18.9305 0.801398C19.9083 1.32432 20.6757 2.09168 21.1986 3.06946C21.7215 4.04724 22 5.0171 22 7.69166V14.3083C22 16.9829 21.7215 17.9528 21.1986 18.9305C20.6757 19.9083 19.9083 20.6757 18.9305 21.1986C17.9528 21.7215 16.9829 22 14.3083 22H7.69166C5.0171 22 4.04724 21.7215 3.06946 21.1986C2.09168 20.6757 1.32432 19.9083 0.801398 18.9305C0.278477 17.9528 0 16.9829 0 14.3083V7.69166C0 5.0171 0.278477 4.04724 0.801398 3.06946C1.32432 2.09168 2.09168 1.32432 3.06946 0.801398C4.04724 0.278477 5.0171 0 7.69166 0Z" fill="black"/>
<path d="M10.9824 17.8823C10.7404 17.6403 10.5661 17.3389 10.4771 17.0083L8.95363 11.3496C8.67297 10.3071 9.29053 9.23455 10.333 8.95388C10.6658 8.86427 11.0165 8.86427 11.3493 8.95388L17.008 10.4774C18.0505 10.758 18.668 11.8306 18.3874 12.8731C18.2984 13.2037 18.1241 13.5051 17.8821 13.7471L13.7469 17.8823C12.9835 18.6457 11.7458 18.6457 10.9824 17.8823ZM12.388 16.4128L16.4125 12.3883L10.9053 10.9055L12.388 16.4128Z" fill="black"/>
<path d="M6.50893 11.0089C5.54836 10.3977 5.09625 9.64414 5.00893 8.50893C4.86067 6.58162 6.58162 4.86067 8.50893 5.00893C9.64414 5.09625 10.3977 5.54836 11.0089 6.50893" stroke="black" stroke-width="2" stroke-linecap="round"/>
</svg>
