<?xml version="1.0" encoding="UTF-8" ?>
<!DOCTYPE svg PUBLIC "-//W3C//DTD SVG 1.1//EN" "http://www.w3.org/Graphics/SVG/1.1/DTD/svg11.dtd">
<svg width="500pt" height="500pt" viewBox="0 0 500 500" version="1.1" xmlns="http://www.w3.org/2000/svg">
<g id="#ffffffff">
</g>
<g id="#000000ff">
<path fill="#000000" opacity="1.00" d=" M 95.51 1.80 C 103.98 1.12 112.48 0.60 120.98 0.69 C 208.32 0.63 295.66 0.67 383.00 0.68 C 404.48 1.22 426.85 2.63 446.24 12.81 C 468.74 23.84 485.84 44.64 493.22 68.49 C 499.32 88.70 499.30 110.07 499.35 130.98 C 499.31 214.99 499.35 298.99 499.33 383.00 C 498.75 403.52 497.57 424.82 488.47 443.62 C 479.55 463.06 463.63 479.12 444.25 488.17 C 425.63 497.37 404.45 498.69 384.04 499.32 C 303.36 499.34 222.67 499.33 141.98 499.33 C 129.30 499.26 116.60 499.64 103.93 498.80 C 88.24 497.94 72.27 495.81 57.87 489.16 C 37.80 480.34 21.12 464.16 11.84 444.28 C 2.63 425.64 1.30 404.45 0.69 384.02 C 0.65 295.36 0.67 206.70 0.67 118.04 C 1.03 102.97 1.74 87.74 5.48 73.06 C 11.72 48.77 27.85 26.96 49.94 14.84 C 63.80 6.83 79.67 3.08 95.51 1.80 M 101.59 39.84 C 90.19 40.66 78.49 42.52 68.54 48.49 C 54.23 56.35 44.53 71.25 41.66 87.17 C 39.06 101.28 39.16 115.69 39.00 129.98 C 39.00 209.99 39.00 289.99 39.00 370.00 C 39.15 383.98 39.08 398.07 41.48 411.89 C 43.38 423.24 48.64 434.04 56.60 442.37 C 65.35 451.26 77.16 456.92 89.46 458.76 C 105.18 461.21 121.14 460.90 137.00 461.00 C 198.66 461.00 260.31 461.00 321.96 461.00 C 343.98 460.90 366.00 461.24 388.01 460.72 C 401.87 460.06 416.39 459.47 428.94 452.88 C 438.80 447.98 447.07 440.00 452.19 430.24 C 459.22 417.75 460.00 403.06 460.68 389.07 C 461.27 367.40 460.89 345.71 461.00 324.03 C 461.00 263.36 461.00 202.68 461.00 142.00 C 460.94 127.32 461.20 112.59 459.84 97.95 C 458.94 87.78 456.84 77.48 451.55 68.60 C 443.70 54.26 428.78 44.53 412.83 41.66 C 399.37 39.17 385.62 39.17 371.97 39.01 C 295.99 38.98 220.00 39.01 144.02 39.00 C 129.87 39.05 115.71 38.82 101.59 39.84 Z" />
<path fill="#000000" opacity="1.00" d=" M 132.94 129.91 C 149.37 113.85 172.03 104.35 195.01 104.00 C 215.76 103.46 236.58 110.26 253.00 122.95 C 269.43 135.47 281.31 153.67 286.37 173.69 C 282.83 173.85 279.74 171.89 276.31 171.62 L 276.51 171.11 C 274.12 172.02 271.86 170.21 269.53 169.85 C 266.79 169.48 264.13 168.73 261.42 168.21 L 261.51 167.70 C 258.41 167.92 255.60 166.26 252.52 166.36 C 252.52 166.20 252.51 165.90 252.51 165.75 C 249.70 165.59 247.07 164.39 244.25 164.37 L 244.28 163.86 C 241.86 163.79 239.32 163.20 237.79 161.17 C 229.46 151.45 217.63 144.78 204.95 142.96 C 190.56 140.73 175.34 144.74 163.93 153.79 C 152.16 162.93 144.52 177.16 143.52 192.04 C 142.28 207.60 148.29 223.58 159.59 234.36 C 160.89 235.70 162.60 236.89 162.97 238.85 C 166.50 254.27 170.14 269.68 173.77 285.08 C 151.31 279.31 131.35 264.63 119.06 244.98 C 108.00 227.55 103.22 206.32 105.53 185.82 C 107.76 164.74 117.68 144.61 132.94 129.91 Z" />
<path fill="#000000" opacity="1.00" d=" M 236.52 203.72 C 242.84 203.00 249.26 203.26 255.42 204.85 L 255.28 205.33 C 260.94 205.68 266.25 208.21 271.94 208.62 L 271.45 209.13 C 274.56 209.20 277.45 210.62 280.57 210.69 C 284.54 212.37 288.92 212.33 292.91 213.93 C 294.51 214.47 296.22 214.49 297.88 214.73 C 299.22 215.24 300.57 215.71 301.92 216.21 C 307.93 216.73 313.60 219.41 319.66 219.67 L 319.68 220.12 C 326.74 221.77 333.86 223.02 340.75 225.23 C 343.28 225.40 345.78 225.92 348.14 226.89 C 351.27 227.39 354.34 228.15 357.45 228.70 C 357.45 228.83 357.45 229.08 357.45 229.21 C 360.28 229.27 362.93 230.35 365.71 230.71 L 365.58 231.21 C 367.88 231.43 370.13 232.15 371.97 233.60 L 372.91 233.42 C 373.73 234.49 374.89 235.19 376.11 235.74 C 377.82 236.40 378.65 238.49 380.62 238.60 L 380.48 239.71 L 383.38 239.17 L 380.59 241.03 C 381.30 240.84 382.73 240.46 383.44 240.27 C 383.60 241.68 383.41 243.41 385.17 243.76 C 392.40 253.00 395.83 265.30 393.34 276.87 C 391.86 283.54 389.15 290.32 383.99 295.00 C 353.65 325.28 323.36 355.62 293.04 385.93 C 291.27 387.73 288.94 388.76 286.73 389.87 C 284.83 390.92 282.76 391.56 280.74 392.30 C 280.12 392.51 278.88 392.94 278.26 393.16 C 275.59 393.52 272.89 393.65 270.24 394.09 C 269.10 393.59 268.06 393.65 267.12 394.27 C 263.68 393.35 260.09 393.18 256.65 392.20 L 256.47 391.35 C 256.13 391.42 255.45 391.54 255.10 391.61 C 253.82 390.94 252.52 390.29 251.22 389.67 C 249.10 388.51 246.78 387.58 245.10 385.80 C 242.36 382.89 239.37 380.25 236.72 377.26 C 233.21 372.54 231.06 366.93 229.85 361.21 C 221.71 326.51 213.64 291.80 205.51 257.10 C 204.44 253.50 203.89 249.75 203.99 246.00 C 204.13 241.02 203.40 235.86 205.23 231.09 C 207.96 221.92 214.96 214.84 222.43 209.23 C 225.26 207.45 228.29 205.69 231.68 205.30 C 231.67 205.14 231.65 204.81 231.64 204.65 C 233.30 204.58 234.99 204.39 236.52 203.72 M 242.57 241.31 C 241.66 243.14 242.19 245.13 242.61 247.01 C 250.97 282.64 259.28 318.29 267.60 353.93 C 267.95 354.48 268.64 355.59 268.99 356.14 C 297.98 327.39 326.86 298.51 355.61 269.52 C 355.36 266.47 350.52 266.91 348.17 266.30 C 343.75 264.77 339.10 264.22 334.58 263.07 L 334.57 262.63 C 331.55 262.70 328.75 261.45 325.79 261.10 C 322.83 260.18 319.83 259.33 316.73 259.14 C 313.68 257.51 310.16 257.69 306.96 256.60 C 303.43 255.19 299.47 255.52 296.07 253.69 C 294.73 253.57 293.40 253.44 292.08 253.29 C 290.63 252.75 289.15 252.35 287.63 252.10 L 287.60 251.59 C 284.47 251.89 281.66 250.14 278.56 250.26 L 278.74 249.67 C 275.52 249.46 272.44 248.36 269.27 247.87 C 266.87 246.96 264.38 246.38 261.82 246.27 C 258.11 244.40 253.85 244.71 250.05 243.12 C 247.61 242.27 244.88 242.63 242.57 241.31 Z" />
</g>
</svg>
