<?xml version="1.0" encoding="UTF-8" ?>
<!DOCTYPE svg PUBLIC "-//W3C//DTD SVG 1.1//EN" "http://www.w3.org/Graphics/SVG/1.1/DTD/svg11.dtd">
<svg width="768pt" height="768pt" viewBox="0 0 768 768" version="1.1" xmlns="http://www.w3.org/2000/svg">
<g id="#fff">
</g>
<g id="#fff">
<path fill="#fff" opacity="1.00" d=" M 365.75 26.55 C 369.84 25.82 374.04 25.76 378.14 26.50 C 380.24 28.45 383.42 29.83 383.97 32.93 C 384.49 35.10 385.81 37.58 384.09 39.58 C 384.36 52.56 381.55 65.28 381.40 78.23 C 381.27 81.55 380.19 84.74 378.48 87.58 C 374.52 91.60 366.20 91.29 364.27 85.43 L 363.50 85.68 C 361.99 74.68 361.07 63.62 360.34 52.53 C 359.87 45.87 358.22 39.21 359.21 32.52 C 360.75 29.91 363.11 27.98 365.75 26.55 Z" />
<path fill="#fff" opacity="1.00" d=" M 243.88 80.85 C 246.97 76.43 251.61 73.23 256.94 72.23 C 260.05 73.05 262.99 74.42 265.30 76.70 C 266.14 78.04 267.15 79.26 268.21 80.44 C 270.30 83.42 273.08 85.82 275.20 88.80 C 276.50 90.88 278.36 92.50 280.17 94.12 C 280.31 94.47 280.57 95.17 280.70 95.52 C 283.67 98.82 286.48 102.26 289.31 105.68 C 290.40 107.31 291.72 108.78 293.22 110.05 C 295.82 112.87 295.17 116.74 295.26 120.23 C 294.25 121.55 293.18 122.82 292.08 124.06 C 290.43 124.62 288.75 125.12 287.14 125.80 C 282.15 125.07 278.50 121.40 274.85 118.27 C 270.71 115.06 266.79 111.58 262.72 108.29 C 262.02 107.63 261.33 106.96 260.64 106.30 C 257.05 103.55 253.61 100.60 250.09 97.75 C 247.98 95.75 245.90 93.72 243.64 91.89 C 242.75 88.23 242.91 84.46 243.88 80.85 Z" />
<path fill="#fff" opacity="1.00" d=" M 475.92 78.00 C 478.17 74.66 482.18 72.47 486.18 72.40 C 490.97 73.75 495.47 76.51 498.13 80.81 C 499.14 84.27 499.17 87.89 498.64 91.44 C 492.77 97.53 485.90 102.55 479.53 108.11 C 476.32 110.72 472.97 113.18 470.06 116.15 C 468.90 116.98 467.77 117.83 466.64 118.69 C 463.86 121.51 460.67 123.85 457.10 125.56 C 453.31 125.69 448.24 124.42 447.26 120.21 C 446.67 117.69 447.08 115.06 447.18 112.50 C 448.85 110.15 450.75 107.98 452.57 105.74 C 456.77 101.23 460.53 96.33 464.52 91.64 C 466.14 89.86 467.61 87.95 469.17 86.12 C 471.43 83.41 473.90 80.90 475.92 78.00 Z" />
<path fill="#fff" opacity="1.00" d=" M 348.91 108.75 C 368.72 104.11 390.04 105.67 408.59 114.22 C 411.50 115.75 414.46 117.19 417.42 118.63 C 421.43 121.14 425.36 123.80 429.02 126.82 C 435.38 131.46 440.18 137.74 445.22 143.70 C 455.34 158.16 461.92 175.31 462.66 193.03 C 462.56 198.06 462.84 203.10 462.50 208.12 C 461.17 217.43 459.84 226.85 456.18 235.58 C 454.58 240.60 452.00 245.20 449.76 249.94 C 447.72 253.75 445.31 257.35 443.21 261.12 C 440.58 265.73 437.32 269.93 434.68 274.53 C 430.12 281.70 425.50 288.89 422.00 296.66 C 419.09 302.09 417.68 308.12 415.16 313.71 C 414.82 316.87 414.37 320.04 413.43 323.09 C 412.15 326.94 412.97 331.09 411.86 334.97 C 411.73 338.65 412.00 342.33 411.71 346.01 C 410.91 350.01 407.62 353.97 403.25 353.94 C 382.84 354.10 362.42 353.92 342.01 354.02 C 339.97 353.97 337.88 354.15 335.92 353.52 C 333.33 351.74 330.99 349.15 330.32 346.00 C 330.06 342.01 330.39 338.01 330.12 334.02 C 328.56 318.02 324.06 302.05 315.68 288.22 C 314.34 284.77 312.04 281.86 310.10 278.76 C 307.33 274.43 304.72 270.00 301.72 265.83 C 299.43 261.88 296.94 258.04 294.71 254.06 C 294.46 253.58 293.97 252.63 293.73 252.15 C 293.25 251.30 292.78 250.46 292.30 249.62 C 287.49 240.59 283.68 230.94 281.64 220.91 C 281.05 215.24 279.12 209.73 279.40 203.99 C 279.64 197.12 278.69 190.12 280.62 183.42 C 281.91 172.13 286.43 161.50 291.80 151.59 C 296.51 143.94 302.02 136.72 308.53 130.53 C 313.91 126.15 319.22 121.60 325.36 118.30 C 326.92 117.50 328.52 116.77 330.08 115.96 C 335.90 112.44 342.55 110.91 348.91 108.75 M 346.79 134.74 C 343.63 136.20 340.30 137.33 337.38 139.28 C 333.49 141.66 329.61 144.13 326.19 147.17 C 321.61 151.29 317.75 156.10 314.29 161.18 C 311.70 164.82 309.92 168.96 308.22 173.07 C 307.15 174.93 306.69 177.04 306.12 179.10 C 304.17 184.65 304.26 190.70 303.54 196.49 C 303.90 207.16 304.44 218.16 309.17 227.95 C 309.44 229.03 309.71 230.12 309.99 231.21 C 312.27 234.97 313.74 239.17 316.23 242.82 C 322.95 255.15 331.50 266.38 338.13 278.77 C 346.92 294.64 352.58 312.29 354.00 330.40 C 365.34 330.37 376.68 330.37 388.02 330.40 C 389.10 323.73 389.12 316.71 391.77 310.40 C 394.03 297.34 400.39 285.38 406.69 273.84 C 409.56 269.59 411.93 265.02 414.81 260.77 C 416.17 258.81 417.37 256.74 418.71 254.76 C 422.41 249.36 425.51 243.58 428.69 237.86 C 432.57 230.38 435.61 222.35 437.20 214.04 C 438.05 206.05 439.12 198.01 438.04 189.98 C 437.56 186.23 437.17 182.46 435.80 178.91 C 434.59 172.14 430.50 166.47 427.67 160.34 C 427.25 159.98 426.41 159.26 425.99 158.90 C 420.80 150.61 413.06 144.23 404.70 139.32 C 401.16 136.66 396.69 135.69 392.71 133.88 C 382.63 129.87 371.62 130.26 361.00 130.87 C 356.19 131.85 351.43 133.13 346.79 134.74 Z" />
<path fill="#fff" opacity="1.00" d=" M 356.00 152.01 C 366.10 152.08 376.21 152.07 386.32 152.02 C 386.36 164.02 386.30 176.03 386.35 188.03 C 386.49 192.77 385.36 197.41 384.79 202.09 C 383.50 205.39 383.92 209.02 383.26 212.45 C 381.34 221.07 381.10 229.95 378.81 238.51 C 373.62 238.45 368.43 238.48 363.24 238.53 C 361.18 226.79 359.20 215.02 357.68 203.19 C 356.60 198.53 355.98 193.76 355.99 188.97 C 356.01 176.65 355.99 164.33 356.00 152.01 Z" />
<path fill="#fff" opacity="1.00" d=" M 198.42 192.37 C 200.43 190.49 202.26 188.08 205.12 187.51 C 209.14 186.71 213.17 188.04 217.19 188.18 C 223.33 189.66 229.76 188.71 235.93 190.02 C 238.97 190.01 242.02 190.18 245.01 190.81 C 249.00 191.04 253.03 191.18 256.89 192.29 C 259.02 194.37 262.04 196.57 261.56 199.94 C 262.01 204.63 258.01 208.74 253.51 209.34 C 248.97 209.79 244.41 209.89 239.86 210.10 C 231.96 211.55 223.90 211.81 215.91 212.49 C 210.92 213.13 205.44 213.90 200.87 211.27 C 196.15 206.21 196.04 198.54 198.42 192.37 Z" />
<path fill="#fff" opacity="1.00" d=" M 522.90 188.56 C 528.95 187.96 535.77 185.55 541.14 189.66 C 541.91 190.63 542.72 191.57 543.58 192.48 C 545.28 196.06 545.23 200.10 544.88 203.96 C 544.31 208.17 541.33 212.33 536.89 212.91 C 530.59 213.53 524.36 212.09 518.08 211.78 C 508.68 211.67 499.44 209.52 490.03 209.53 C 486.42 209.50 483.70 206.81 481.36 204.38 C 480.36 201.65 480.08 198.42 481.63 195.83 C 482.36 195.15 483.07 194.44 483.77 193.72 C 487.45 190.48 492.64 191.47 497.13 190.83 C 505.64 189.42 514.34 189.57 522.90 188.56 Z" />
<path fill="#fff" opacity="1.00" d=" M 113.82 251.72 C 130.32 240.28 153.93 239.78 170.45 251.44 C 179.36 257.55 185.87 266.71 189.25 276.94 C 190.62 285.51 191.96 294.32 190.15 302.94 C 189.85 307.25 189.72 311.58 189.05 315.85 C 187.07 326.88 184.41 337.98 179.16 347.96 C 177.74 350.32 176.47 352.76 174.93 355.05 C 174.02 356.08 173.12 357.14 172.23 358.20 C 170.09 360.51 167.69 362.57 165.05 364.28 C 163.16 365.10 161.27 365.89 159.39 366.72 C 152.22 368.84 144.60 367.12 138.10 363.80 C 131.80 360.48 126.26 355.83 121.64 350.44 C 112.38 340.45 105.25 328.51 100.12 315.91 C 95.65 305.26 92.55 293.55 94.53 281.95 C 94.88 278.12 96.71 274.71 97.78 271.08 C 101.34 263.37 107.11 256.86 113.82 251.72 Z" />
<path fill="#fff" opacity="1.00" d=" M 584.03 249.56 C 599.32 240.74 619.40 240.55 634.60 249.65 C 639.27 252.49 643.45 255.98 647.11 260.04 C 648.72 262.35 650.35 264.65 651.84 267.06 C 656.24 274.75 658.30 283.72 657.77 292.53 C 657.08 302.73 653.15 312.27 649.20 321.57 C 645.81 328.70 641.66 335.44 637.25 341.98 C 635.65 344.15 633.86 346.16 632.20 348.27 C 631.58 348.95 630.98 349.64 630.38 350.34 C 625.32 355.81 619.59 360.67 613.03 364.25 C 608.52 365.91 603.92 367.95 599.01 367.60 C 594.73 367.83 590.73 366.03 586.93 364.30 C 584.26 362.62 581.86 360.57 579.76 358.23 C 579.09 357.55 578.43 356.89 577.77 356.24 C 576.74 354.71 575.74 353.18 574.70 351.67 C 573.48 348.85 571.75 346.31 570.30 343.62 C 565.65 331.27 562.35 318.29 561.89 305.06 C 561.72 304.62 561.39 303.75 561.22 303.31 C 561.04 297.51 560.96 291.69 561.09 285.89 C 561.57 282.88 562.29 279.92 562.74 276.91 C 565.67 268.33 570.29 260.14 577.43 254.38 C 579.52 252.64 581.84 251.19 584.03 249.56 Z" />
<path fill="#fff" opacity="1.00" d=" M 357.10 257.16 C 366.38 257.13 375.66 257.09 384.95 257.19 C 384.96 266.43 384.99 275.67 384.93 284.91 C 375.67 285.04 366.40 285.00 357.14 284.93 C 356.99 275.68 357.11 266.42 357.10 257.16 Z" />
<path fill="#fff" opacity="1.00" d=" M 283.17 276.11 C 285.90 274.40 289.17 275.05 292.18 275.44 C 293.09 276.41 294.05 277.34 295.02 278.26 C 297.47 281.39 297.33 285.86 294.91 288.96 C 288.62 297.22 281.50 304.81 275.12 313.00 C 271.81 316.64 268.73 320.47 265.56 324.23 C 262.20 328.08 256.36 327.43 251.95 326.12 C 247.22 323.26 243.36 317.81 243.86 312.11 C 244.11 310.97 244.35 309.83 244.58 308.69 C 249.52 303.60 255.23 299.32 260.65 294.76 C 261.35 294.11 262.05 293.46 262.75 292.82 C 269.72 287.46 276.13 281.40 283.17 276.11 Z" />
<path fill="#fff" opacity="1.00" d=" M 449.89 275.37 C 452.69 274.78 455.55 275.05 458.36 275.49 C 459.32 276.36 460.26 277.24 461.20 278.14 C 461.45 278.28 461.95 278.55 462.21 278.68 C 468.67 283.89 474.92 289.36 481.37 294.60 C 483.39 296.34 485.42 298.09 487.54 299.72 C 491.70 303.69 497.69 306.54 498.68 312.82 C 497.89 317.47 496.06 322.26 491.86 324.85 C 488.62 327.61 484.14 327.23 480.21 326.78 C 476.73 325.44 474.87 322.02 472.45 319.44 C 469.74 316.16 467.06 312.86 464.28 309.65 C 461.08 305.89 457.96 302.07 454.80 298.29 C 451.78 294.30 447.88 290.85 445.74 286.31 C 443.92 282.04 446.84 278.08 449.89 275.37 Z" />
<path fill="#fff" opacity="1.00" d=" M 332.64 366.47 C 334.50 365.07 336.52 363.50 339.01 363.74 C 360.01 363.70 381.00 363.76 402.00 363.71 C 403.84 363.61 405.61 364.19 407.37 364.68 C 408.17 365.60 408.99 366.51 409.81 367.42 C 413.13 371.47 411.07 376.49 409.27 380.68 C 411.04 383.31 412.74 387.00 411.06 390.05 C 410.50 391.17 409.90 392.27 409.31 393.38 C 407.95 394.37 406.61 395.39 405.27 396.41 C 402.07 396.44 398.88 396.45 395.69 396.40 C 396.11 400.10 396.58 404.17 394.29 407.39 C 391.70 408.76 389.13 410.68 386.07 410.57 C 375.70 410.56 365.32 410.58 354.95 410.55 C 351.58 410.69 348.97 408.27 346.72 406.09 C 345.76 402.93 345.85 399.61 346.48 396.39 C 343.01 396.47 339.54 396.53 336.09 396.15 C 334.54 394.64 332.98 393.14 331.43 391.64 C 331.00 390.09 330.50 388.56 330.31 386.96 C 330.52 384.44 332.21 382.38 332.79 379.96 C 332.07 377.91 330.73 376.11 330.27 373.96 C 330.10 371.24 331.76 368.93 332.64 366.47 Z" />
<path fill="#fff" opacity="1.00" d=" M 176.46 383.60 C 188.83 386.29 201.62 387.99 213.11 393.69 C 216.94 395.88 220.94 397.99 223.95 401.31 C 229.30 406.92 231.84 414.42 235.51 421.11 C 240.50 431.51 246.13 441.61 250.65 452.23 C 255.47 461.68 260.12 471.22 264.89 480.70 C 268.37 487.40 271.49 494.28 275.21 500.84 C 279.32 508.64 284.13 516.04 288.28 523.80 C 304.59 533.90 321.85 542.35 338.79 551.31 C 361.60 563.59 384.86 575.23 406.37 589.74 C 411.80 593.53 417.51 597.81 419.84 604.29 C 421.47 607.79 420.87 611.72 420.91 615.45 C 419.30 618.29 417.99 621.40 415.53 623.64 C 413.32 625.89 410.28 626.99 407.57 628.49 C 402.08 629.21 396.27 629.63 391.14 627.14 C 381.75 630.55 370.78 630.37 362.03 625.25 C 358.33 623.04 355.71 619.58 354.43 615.48 C 334.40 607.32 314.29 599.22 295.12 589.17 C 290.74 586.83 286.48 584.26 282.03 582.08 C 271.59 575.60 260.88 569.45 251.31 561.71 C 241.51 553.49 236.32 541.60 229.84 530.90 C 227.65 527.17 225.26 523.56 222.64 520.13 C 223.73 528.51 226.57 536.52 228.34 544.76 C 233.21 560.88 237.12 577.33 239.12 594.07 C 240.01 599.31 239.43 604.65 239.87 609.94 C 240.33 615.61 239.39 621.38 240.68 626.98 C 241.52 632.77 240.49 638.66 241.30 644.46 C 242.29 650.96 241.38 657.55 241.93 664.08 C 243.04 672.99 241.84 682.00 242.78 690.93 C 243.34 699.63 242.74 708.37 243.09 717.08 C 243.35 720.05 243.94 722.99 243.86 725.99 C 243.85 739.99 243.85 754.00 243.85 768.00 L 181.39 768.00 C 180.74 761.90 181.39 755.67 179.82 749.68 C 179.26 749.70 178.14 749.73 177.58 749.74 C 177.31 755.83 177.12 761.97 176.18 768.00 L 114.29 768.00 C 114.28 748.33 114.29 728.66 114.28 708.99 C 114.04 704.24 113.53 699.50 113.64 694.74 C 109.21 694.80 104.77 694.88 100.34 694.58 C 101.33 684.09 101.38 673.55 102.22 663.04 C 102.04 655.32 103.42 647.69 103.07 639.96 C 104.51 631.70 103.86 623.32 104.02 614.98 C 104.63 603.34 104.55 591.66 104.02 580.02 C 103.82 574.70 104.34 569.35 103.75 564.05 C 103.15 561.41 102.97 558.72 103.03 556.03 C 102.15 539.54 101.20 523.04 99.40 506.60 C 97.92 511.02 94.89 514.68 92.92 518.87 C 89.28 525.19 85.99 531.71 83.06 538.40 C 80.45 543.48 80.56 549.34 80.02 554.89 C 79.99 575.94 79.98 596.99 80.02 618.03 C 81.61 632.01 81.06 646.20 83.47 660.11 C 83.66 668.26 86.57 676.55 83.85 684.58 C 82.74 689.86 78.80 693.67 75.04 697.23 C 70.95 699.27 66.60 701.29 61.90 701.00 C 56.09 701.03 50.62 698.37 46.28 694.67 C 43.35 691.46 41.28 687.52 39.86 683.44 C 38.21 676.09 37.36 668.59 36.71 661.10 C 34.71 651.78 34.61 642.19 32.85 632.83 C 32.15 628.39 32.41 623.86 31.67 619.43 C 30.17 611.06 30.07 602.54 29.05 594.12 C 26.98 575.55 26.72 556.82 27.10 538.15 C 27.14 531.05 30.58 524.72 33.16 518.30 C 38.44 506.12 43.94 494.04 49.84 482.15 C 56.95 467.66 64.53 453.39 72.71 439.48 C 74.05 436.69 75.54 433.98 77.13 431.34 C 77.68 430.49 78.22 429.64 78.77 428.79 C 83.10 420.79 88.83 413.56 92.29 405.10 C 94.18 400.91 97.86 397.76 101.87 395.66 C 111.12 390.70 120.96 386.81 131.07 384.04 C 142.55 388.72 155.36 388.25 167.45 386.83 C 170.42 385.67 173.50 384.81 176.46 383.60 Z" />
<path fill="#fff" opacity="1.00" d=" M 575.53 384.82 C 576.67 384.06 577.83 383.32 579.00 382.60 C 576.07 391.01 572.86 399.36 570.95 408.09 C 568.03 422.30 564.79 436.66 565.03 451.25 C 571.70 433.11 577.94 414.73 586.73 397.47 C 589.89 397.45 593.05 397.45 596.22 397.49 C 593.52 407.16 590.49 416.75 588.29 426.55 C 586.65 435.99 584.70 445.39 584.05 454.97 C 583.99 459.23 582.60 463.40 583.27 467.69 C 583.87 465.62 584.35 463.51 585.17 461.51 C 592.61 442.24 600.92 423.27 610.91 405.18 C 611.86 403.64 612.80 402.09 613.73 400.53 C 617.25 394.63 620.89 388.81 624.83 383.17 C 627.39 383.01 630.03 383.02 632.51 383.83 C 645.17 387.50 657.91 391.00 670.16 395.93 C 673.28 397.26 675.94 399.43 678.30 401.84 C 679.93 407.04 683.78 410.98 686.87 415.33 C 692.88 422.96 698.42 430.94 704.25 438.70 C 710.10 447.32 716.46 455.59 722.03 464.39 C 729.97 475.83 737.29 487.72 744.18 499.83 C 748.67 508.32 753.42 516.85 755.72 526.25 C 757.49 538.63 752.76 550.48 749.68 562.23 C 741.85 586.82 732.70 610.96 723.16 634.93 C 719.85 643.27 716.54 651.62 712.98 659.85 C 709.63 668.21 706.71 677.23 699.61 683.25 C 696.74 684.94 693.75 686.46 690.53 687.37 C 683.85 688.88 676.65 686.82 671.37 682.57 C 671.61 686.53 671.54 690.50 671.48 694.47 C 668.19 694.45 664.90 694.28 661.63 693.99 C 661.92 700.18 661.00 706.33 660.56 712.49 C 659.60 722.65 659.66 732.88 659.35 743.08 C 658.43 751.35 658.97 759.69 658.83 768.00 L 528.27 768.00 C 529.07 754.35 529.32 740.64 530.98 727.06 C 530.94 716.66 531.81 706.30 532.16 695.92 C 528.13 695.73 524.12 695.41 520.10 695.42 C 520.08 690.01 519.95 684.60 520.51 679.22 C 521.47 671.18 520.65 663.08 521.24 655.02 C 521.90 645.70 520.93 636.32 522.01 627.03 C 522.47 621.76 521.82 616.45 522.57 611.20 C 523.46 605.20 522.53 599.10 523.53 593.10 C 524.08 581.87 523.88 570.57 525.18 559.38 C 523.51 560.70 521.84 562.02 520.17 563.34 C 514.31 567.87 508.28 572.21 501.96 576.08 C 501.62 576.37 500.95 576.95 500.62 577.24 C 497.28 579.36 493.89 581.36 490.50 583.37 C 482.22 589.06 472.97 593.04 464.09 597.66 C 453.66 602.73 442.89 607.07 432.31 611.79 C 432.05 610.29 431.76 608.81 431.44 607.35 C 430.08 593.22 417.90 584.03 406.73 577.17 C 404.80 575.99 402.75 575.03 400.75 574.00 C 410.24 569.24 419.27 563.64 428.68 558.74 C 436.12 554.51 443.57 550.29 450.85 545.78 C 456.94 542.28 462.86 538.49 468.82 534.77 C 469.65 534.24 470.48 533.72 471.33 533.21 C 475.89 530.12 480.59 527.22 485.16 524.14 C 487.67 522.66 488.87 519.90 490.38 517.54 C 511.04 484.05 526.84 447.80 540.56 411.01 C 540.76 409.39 540.68 407.76 540.72 406.15 C 550.04 395.89 562.81 389.73 575.53 384.82 M 672.90 506.97 C 672.94 521.63 672.88 536.29 672.93 550.95 C 672.95 553.13 672.68 555.30 672.39 557.46 C 672.73 559.10 672.56 560.78 672.46 562.44 C 671.41 568.84 672.36 575.38 671.89 581.84 C 671.19 592.89 671.92 603.99 670.83 615.02 C 671.03 623.01 670.41 631.07 671.17 639.03 C 673.63 632.10 676.46 625.29 678.55 618.23 C 679.83 613.76 682.04 609.60 682.82 605.00 C 690.43 582.07 695.01 558.28 701.57 535.06 C 701.00 534.04 700.42 533.04 699.82 532.06 C 698.83 530.43 697.93 528.76 696.83 527.21 C 693.66 521.71 689.62 516.80 686.35 511.37 C 685.14 509.93 684.03 508.43 682.90 506.95 C 680.23 503.08 676.79 499.88 673.78 496.31 C 673.69 499.88 672.81 503.39 672.90 506.97 Z" />
</g>
</svg>
