<?xml version="1.0" encoding="UTF-8" ?>
<!DOCTYPE svg PUBLIC "-//W3C//DTD SVG 1.1//EN" "http://www.w3.org/Graphics/SVG/1.1/DTD/svg11.dtd">
<svg width="768pt" height="768pt" viewBox="0 0 768 768" version="1.1" xmlns="http://www.w3.org/2000/svg">
<g id="#fff">
<path fill="#fff" opacity="1.00" d=" M 418.44 184.28 C 419.84 184.46 421.85 183.67 422.53 185.41 C 422.88 187.64 422.80 189.92 422.87 192.18 C 425.61 192.31 428.35 192.44 431.08 192.82 C 430.30 194.08 429.58 195.38 428.64 196.53 C 426.74 196.95 424.78 197.02 422.85 197.19 C 422.66 202.84 422.71 208.50 422.80 214.15 C 424.89 214.21 426.99 214.25 429.09 214.32 C 429.20 215.03 429.43 216.46 429.55 217.17 C 427.27 217.21 425.00 217.25 422.73 217.44 C 424.76 217.69 426.80 217.83 428.85 217.95 L 428.91 218.74 C 426.87 218.79 424.82 218.83 422.79 218.87 C 422.70 236.35 422.73 253.83 422.75 271.31 C 424.93 271.44 427.13 271.53 429.31 271.68 C 429.53 272.66 429.73 273.64 429.93 274.63 C 427.56 274.61 425.19 274.60 422.82 274.63 C 422.76 276.99 422.72 279.35 422.64 281.71 C 421.50 282.10 420.37 282.51 419.24 282.91 C 418.62 280.59 418.13 278.25 417.72 275.89 C 413.36 274.49 408.82 274.85 404.34 275.00 C 404.28 274.32 404.16 272.96 404.10 272.28 C 408.91 272.79 413.62 271.15 418.45 271.65 C 417.89 254.05 418.42 236.44 418.20 218.83 C 413.93 218.78 409.65 219.03 405.39 218.70 C 404.63 217.62 404.11 216.40 403.55 215.22 C 400.18 218.58 395.49 219.25 390.93 218.95 C 390.83 222.73 390.84 226.51 390.64 230.29 C 390.22 228.11 389.79 225.93 389.34 223.76 C 388.38 230.94 390.85 237.95 390.26 245.12 C 390.75 243.34 391.11 241.53 391.64 239.76 C 392.46 250.90 390.60 262.08 391.54 273.20 C 391.85 269.83 391.81 266.44 391.84 263.06 L 392.84 263.05 C 392.91 267.05 392.88 271.05 392.80 275.05 C 391.36 274.44 389.94 273.81 388.51 273.20 C 388.18 265.73 389.38 258.24 388.45 250.80 C 388.11 254.51 388.18 258.24 388.16 261.96 L 387.11 261.94 C 386.74 250.29 388.29 238.54 386.39 226.99 C 386.11 224.09 385.96 221.18 385.56 218.30 C 383.91 222.67 384.80 227.46 384.47 232.02 C 383.94 239.41 386.33 246.62 385.77 254.02 C 385.81 260.76 384.64 267.66 386.41 274.29 C 385.21 274.40 384.02 274.49 382.82 274.58 C 380.60 269.51 382.17 263.92 381.28 258.62 C 379.07 245.55 380.74 232.28 380.22 219.11 C 379.60 218.76 378.36 218.06 377.74 217.72 C 377.66 233.84 377.51 249.97 377.16 266.09 C 377.66 264.61 378.15 263.14 378.68 261.68 C 378.99 266.28 379.04 270.92 378.60 275.52 C 376.55 275.59 374.50 275.61 372.45 275.65 C 371.80 261.45 372.36 247.22 372.16 233.00 C 372.07 227.72 372.70 222.37 371.43 217.18 C 370.38 217.89 369.35 218.63 368.33 219.38 C 368.58 238.08 367.93 256.82 368.68 275.51 C 366.96 275.45 365.25 275.47 363.54 275.46 C 363.25 265.64 362.94 255.79 363.32 245.98 C 365.24 236.93 364.55 227.67 364.50 218.48 C 363.52 217.94 362.54 217.40 361.57 216.87 C 361.90 223.38 362.32 229.96 361.42 236.45 C 360.88 233.27 360.66 230.05 360.42 226.84 C 360.04 242.99 360.96 259.17 360.61 275.33 C 358.88 275.33 357.15 275.34 355.42 275.38 C 354.63 270.21 355.52 265.10 356.49 260.04 C 356.45 245.93 356.14 231.81 355.99 217.70 L 354.61 217.64 C 354.83 227.74 355.04 237.85 354.78 247.95 L 353.81 247.90 C 353.71 242.89 354.05 237.86 353.47 232.87 C 352.74 246.77 354.08 260.69 353.86 274.60 C 353.18 274.67 351.82 274.83 351.14 274.90 C 351.21 275.49 351.36 276.66 351.43 277.25 C 350.76 276.67 350.09 276.10 349.43 275.54 C 349.45 268.96 349.18 262.40 349.07 255.83 C 349.66 256.49 350.25 257.16 350.85 257.84 C 350.47 251.22 350.39 244.58 350.16 237.96 C 349.83 233.46 352.34 229.40 352.56 224.97 C 352.28 222.87 351.54 220.86 351.02 218.81 C 345.71 219.24 338.45 218.46 336.49 212.56 C 336.21 209.33 335.59 205.49 337.94 202.85 C 340.38 200.25 344.10 197.41 347.75 199.40 C 348.02 199.18 348.55 198.74 348.81 198.52 C 347.23 197.57 345.66 196.62 344.08 195.68 C 344.46 194.54 344.84 193.40 345.23 192.26 C 357.81 192.53 370.41 192.31 383.00 192.39 C 387.73 192.50 392.56 191.82 397.21 193.05 C 396.61 194.61 395.97 196.16 395.32 197.70 C 399.65 198.75 403.19 201.86 404.97 205.92 C 406.15 208.55 404.96 211.41 404.71 214.11 C 409.20 214.29 413.70 214.27 418.19 214.21 C 418.22 208.44 418.26 202.66 418.16 196.89 C 413.61 196.96 409.05 197.03 404.52 196.50 C 404.32 195.53 404.15 194.56 404.02 193.59 C 408.72 192.37 413.58 192.20 418.40 192.58 C 418.25 189.81 418.27 187.04 418.44 184.28 M 405.73 195.55 C 410.20 195.92 414.70 195.96 419.17 195.46 C 414.70 195.06 410.19 195.05 405.73 195.55 M 341.98 205.02 C 340.05 206.58 340.38 209.57 340.99 211.69 C 342.57 213.22 344.40 214.45 346.15 215.77 C 347.92 214.23 350.89 213.12 350.76 210.36 C 349.99 209.37 349.12 208.46 348.26 207.57 C 348.27 208.70 348.29 209.82 348.31 210.95 C 347.25 211.67 346.20 212.40 345.14 213.12 C 344.05 211.25 342.91 209.23 343.54 206.99 C 346.60 203.80 351.34 204.74 355.28 204.73 C 354.97 205.13 354.33 205.92 354.02 206.31 C 354.24 207.80 354.43 209.29 354.62 210.78 C 359.50 211.11 364.39 211.15 369.28 210.98 C 368.77 208.91 368.28 206.83 367.78 204.75 C 369.75 204.71 371.73 204.69 373.71 204.69 C 373.91 207.66 371.97 209.67 369.61 211.09 C 375.14 211.24 380.66 211.02 386.19 210.84 C 386.21 209.68 386.24 208.53 386.27 207.38 C 386.65 207.41 387.41 207.46 387.79 207.48 C 387.57 206.55 387.35 205.63 387.14 204.71 C 390.06 204.70 392.98 204.71 395.91 204.58 C 396.49 205.11 397.07 205.65 397.66 206.19 C 397.50 208.72 397.44 211.26 397.43 213.80 C 399.15 212.29 400.71 210.60 402.06 208.74 C 401.65 208.68 400.84 208.55 400.43 208.49 C 400.26 206.59 399.99 204.70 399.70 202.82 C 395.41 202.92 391.34 201.20 387.04 201.41 C 375.68 201.49 364.31 201.47 352.94 201.42 C 349.08 201.44 344.79 202.18 341.98 205.02 M 390.55 208.31 C 390.45 210.70 391.52 212.71 393.10 214.41 C 393.87 214.40 395.41 214.38 396.18 214.38 C 394.49 212.20 393.15 209.56 390.55 208.31 M 405.71 217.48 C 409.85 218.11 414.07 218.02 418.23 217.56 C 414.08 217.04 409.87 217.03 405.71 217.48 M 357.46 217.78 C 357.05 221.90 356.99 226.08 357.55 230.20 C 357.97 226.07 357.94 221.90 357.46 217.78 M 381.50 227.33 C 381.92 224.11 381.89 220.85 381.39 217.64 C 380.49 220.82 380.81 224.13 381.50 227.33 M 376.50 219.75 C 376.03 223.89 376.09 228.08 376.58 232.22 C 377.31 228.10 377.28 223.86 376.50 219.75 M 352.28 269.68 C 351.40 270.62 351.39 272.41 352.29 273.35 C 353.84 273.36 353.85 269.65 352.28 269.68 Z" />
<path fill="#fff" opacity="1.00" d=" M 356.45 203.30 C 357.62 202.36 358.27 202.60 358.42 204.01 C 357.24 204.95 356.59 204.71 356.45 203.30 Z" />
<path fill="#fff" opacity="1.00" d=" M 371.52 203.54 C 375.45 202.99 379.44 203.15 383.38 203.57 C 379.48 204.41 375.37 204.85 371.52 203.54 Z" />
<path fill="#fff" opacity="1.00" d=" M 356.79 204.95 C 359.48 204.55 362.18 204.48 364.74 205.52 C 363.95 207.01 363.16 208.51 362.39 210.01 C 359.49 209.69 357.80 207.49 356.79 204.95 Z" />
<path fill="#fff" opacity="1.00" d=" M 376.94 205.26 C 379.08 205.08 381.21 204.70 383.36 204.55 C 383.10 205.94 382.84 207.34 382.58 208.74 C 381.28 209.14 379.98 209.54 378.68 209.94 C 378.11 208.38 377.54 206.81 376.94 205.26 Z" />
<path fill="#fff" opacity="1.00" d=" M 576.31 255.26 C 584.75 255.37 593.19 255.46 601.64 255.27 C 601.80 260.19 601.72 265.11 600.75 269.95 C 601.13 275.70 599.24 281.27 599.71 287.02 C 599.75 288.89 599.94 291.02 598.40 292.40 C 594.82 293.98 590.54 294.97 586.91 292.97 C 584.43 292.17 583.36 288.88 584.66 286.69 C 585.09 284.65 587.37 284.88 588.97 284.69 C 589.70 284.12 590.41 283.53 591.15 282.95 C 592.28 283.57 593.39 284.22 594.52 284.87 C 595.38 282.59 596.52 280.32 596.43 277.83 C 596.12 272.38 598.00 267.09 597.38 261.62 C 591.96 261.62 586.51 261.19 581.11 261.74 C 577.37 269.09 579.11 277.70 578.66 285.66 C 578.15 283.75 577.75 281.79 577.29 279.85 C 577.42 283.89 578.04 288.23 575.55 291.74 C 572.17 291.16 568.75 291.52 565.35 291.43 C 564.01 290.11 563.08 288.42 561.94 286.94 C 560.57 289.53 561.46 292.66 562.90 295.02 C 565.39 299.02 566.54 303.63 568.41 307.92 C 568.50 308.87 568.59 309.82 568.69 310.78 C 571.18 314.83 569.65 320.17 572.64 323.94 C 572.71 328.21 572.55 332.48 572.59 336.75 C 572.17 337.00 571.33 337.49 570.91 337.74 C 570.80 340.09 570.79 342.55 569.64 344.68 C 568.17 348.06 564.54 349.51 561.68 351.46 C 558.78 353.60 554.80 351.72 551.86 353.76 C 549.93 354.61 549.11 356.64 548.05 358.30 C 546.39 358.43 544.73 358.60 543.09 358.72 C 547.23 362.65 552.35 365.43 557.66 367.44 C 558.81 367.86 559.91 368.48 560.77 369.39 C 560.83 370.87 560.18 372.26 559.82 373.68 C 543.23 373.64 526.64 373.66 510.05 373.70 C 507.27 374.24 505.65 370.40 507.21 368.38 C 512.82 366.09 518.89 364.24 523.41 360.00 C 523.31 357.96 521.07 357.82 519.66 357.03 C 517.12 356.11 515.25 354.10 512.96 352.76 C 510.35 352.29 507.41 353.32 505.06 351.84 C 498.79 347.65 494.73 340.47 494.20 332.97 C 493.41 323.75 497.29 315.13 499.79 306.47 C 501.04 301.86 503.82 297.94 505.85 293.69 C 507.38 287.25 507.31 280.54 507.13 273.96 C 504.90 273.86 502.64 273.96 500.45 273.52 C 497.43 272.12 497.91 268.21 498.62 265.57 C 501.02 262.37 504.43 258.50 508.89 259.18 C 512.42 259.82 516.24 261.78 517.43 265.42 C 517.93 269.32 517.47 273.27 517.59 277.18 C 519.48 277.13 521.38 277.09 523.28 277.06 C 522.53 273.50 522.37 269.86 522.42 266.24 C 524.74 266.28 527.02 266.78 528.96 268.12 C 528.81 271.10 528.54 274.06 528.25 277.03 C 529.37 277.07 530.50 277.11 531.63 277.14 C 531.25 271.82 529.29 266.35 531.21 261.12 C 532.92 261.58 535.63 260.72 536.64 262.42 C 536.66 267.36 535.50 272.23 535.59 277.18 C 537.27 277.14 538.95 277.10 540.64 277.07 C 539.82 275.04 538.75 273.10 538.17 270.99 C 538.43 269.45 539.04 268.00 539.56 266.54 C 541.29 266.45 543.02 266.35 544.76 266.23 C 545.24 268.03 546.23 269.86 545.82 271.77 C 544.99 274.01 543.57 275.96 542.32 277.98 C 544.90 278.48 547.53 278.75 550.17 278.84 C 548.20 278.30 546.20 277.89 544.20 277.55 C 545.83 277.25 547.47 276.97 549.12 276.72 C 549.26 271.86 548.16 265.83 552.34 262.27 C 555.29 258.82 560.74 258.08 564.53 260.46 C 566.91 263.17 569.26 266.27 569.90 269.91 C 569.00 274.69 563.32 273.72 559.73 273.95 C 559.85 278.08 558.52 282.96 561.70 286.32 C 564.12 284.27 566.47 281.52 569.86 281.29 C 571.29 281.81 572.63 282.55 573.99 283.26 C 574.37 283.11 575.13 282.79 575.51 282.63 C 575.67 280.65 575.80 278.68 575.96 276.70 C 575.42 276.66 574.36 276.59 573.83 276.55 C 577.11 269.80 573.85 262.23 576.31 255.26 M 527.29 269.68 C 526.22 270.22 526.41 272.69 527.86 272.36 C 528.91 271.80 528.74 269.36 527.29 269.68 M 544.15 270.32 C 542.63 273.32 547.48 270.41 544.15 270.32 M 508.43 273.73 C 508.10 276.89 508.06 280.08 508.41 283.24 C 509.02 280.10 508.95 276.88 508.43 273.73 M 527.27 282.37 C 526.70 292.23 527.13 302.12 527.00 312.00 C 527.12 323.24 526.74 334.48 527.20 345.72 C 528.66 345.71 530.13 345.71 531.61 345.72 C 532.36 337.83 531.86 329.91 532.00 322.00 C 531.88 308.78 532.24 295.56 531.82 282.35 C 530.29 282.36 528.78 282.37 527.27 282.37 M 518.17 283.35 C 515.69 292.29 511.46 300.74 509.72 309.91 C 509.47 313.61 509.75 317.32 509.63 321.03 C 509.25 327.15 511.53 332.97 513.16 338.76 C 514.19 343.17 519.07 345.43 523.24 345.73 C 523.40 324.85 523.34 303.97 523.25 283.09 C 521.55 283.19 519.86 283.28 518.17 283.35 M 543.37 282.79 C 543.29 303.54 543.51 324.29 543.27 345.04 C 543.68 344.00 544.10 342.96 544.52 341.93 C 544.67 342.87 544.96 344.75 545.11 345.69 C 548.05 344.69 551.79 344.29 553.35 341.19 C 556.08 334.38 557.27 327.11 558.42 319.91 C 558.72 316.80 557.27 313.83 557.50 310.72 C 557.43 304.81 554.38 299.45 553.04 293.79 C 552.26 290.31 550.28 287.30 548.73 284.13 C 547.45 284.00 546.18 283.87 544.91 283.76 C 544.77 285.90 544.65 288.05 544.46 290.20 C 544.08 287.73 543.82 285.25 543.37 282.79 M 535.74 283.76 C 535.71 304.68 535.38 325.62 535.92 346.53 C 537.45 346.12 538.99 345.73 540.54 345.37 C 540.65 324.92 540.41 304.47 540.66 284.03 C 539.02 283.93 537.37 283.84 535.74 283.76 Z" />
<path fill="#fff" opacity="1.00" d=" M 203.54 276.48 C 205.60 273.02 210.54 272.20 213.85 274.25 C 223.36 279.38 232.91 284.41 242.25 289.84 C 247.40 292.67 253.02 294.71 257.65 298.42 C 263.14 302.92 271.42 303.18 275.54 309.49 C 276.17 311.89 275.58 314.44 274.49 316.62 C 271.36 323.31 267.56 329.66 264.23 336.25 C 261.47 341.72 257.19 346.31 254.82 351.99 C 251.99 359.92 247.25 366.95 243.30 374.33 C 241.78 377.77 237.13 378.69 234.06 376.88 C 232.22 375.89 230.32 375.04 228.36 374.35 C 225.48 378.32 221.06 381.78 215.94 381.64 C 199.60 381.42 183.26 381.65 166.93 381.49 C 163.22 381.05 160.72 384.92 157.01 384.50 C 152.39 384.46 147.76 384.44 143.13 384.54 C 139.19 384.86 136.33 381.27 135.24 377.87 C 133.65 374.11 134.13 369.96 134.09 365.99 C 134.13 351.64 134.13 337.29 134.08 322.95 C 134.01 319.12 134.70 315.12 136.88 311.90 C 138.75 310.00 141.21 308.22 144.01 308.35 C 153.69 308.38 163.38 308.44 173.06 308.43 C 179.18 309.23 179.93 300.74 185.26 299.44 C 187.39 299.12 189.56 299.15 191.70 299.06 C 192.71 295.64 194.10 292.09 197.21 290.04 C 198.03 285.02 201.04 280.78 203.54 276.48 M 208.16 277.38 C 204.17 284.53 200.33 291.77 196.84 299.17 C 199.49 299.20 202.17 299.45 204.80 299.02 C 207.76 295.07 209.10 290.16 212.08 286.21 C 223.28 292.78 235.06 298.36 246.03 305.32 C 251.61 307.47 256.72 310.59 262.00 313.37 C 260.57 321.07 253.68 325.96 251.43 333.28 C 247.96 341.77 242.75 349.39 238.85 357.67 C 236.02 356.22 233.15 354.82 230.40 353.23 C 230.51 359.13 230.29 365.05 230.89 370.93 C 233.40 371.85 235.90 373.89 238.72 373.15 C 240.66 370.96 242.15 368.42 243.72 365.96 C 243.85 362.47 246.17 359.69 247.70 356.71 C 249.40 353.41 251.69 350.43 253.14 347.00 C 254.93 342.60 258.05 338.93 259.92 334.57 C 263.50 326.67 268.81 319.62 271.63 311.37 C 271.09 311.35 270.01 311.31 269.47 311.29 C 269.01 309.59 268.55 307.90 268.06 306.21 C 266.75 306.50 265.40 307.60 264.06 306.84 C 257.27 303.94 251.48 299.15 244.70 296.22 C 237.68 293.01 231.24 288.69 225.02 284.15 C 222.28 285.03 220.31 282.83 218.42 281.23 C 215.01 279.90 211.58 278.64 208.16 277.38 M 185.81 303.46 C 191.91 304.03 198.09 303.99 204.19 303.45 C 198.07 303.08 191.92 303.07 185.81 303.46 M 264.25 303.17 C 264.78 303.70 264.78 303.70 264.25 303.17 M 185.24 305.08 C 182.44 306.76 182.17 310.65 179.58 312.55 C 168.71 312.81 157.82 312.49 146.95 312.61 C 144.14 312.44 142.01 314.56 139.80 315.96 C 139.98 335.33 139.84 354.70 139.87 374.08 C 139.82 376.43 140.56 379.34 143.22 379.94 C 147.46 380.49 151.79 380.18 156.06 380.20 C 159.07 380.38 160.98 377.11 163.99 377.33 C 180.01 377.38 196.03 377.33 212.05 377.40 C 215.65 377.44 219.43 376.53 222.33 374.34 C 224.46 371.72 226.60 368.61 226.35 365.06 C 226.25 351.35 226.30 337.65 226.32 323.94 C 226.46 321.17 224.47 318.99 222.97 316.88 C 220.18 312.92 214.78 312.62 210.36 312.55 C 208.56 310.01 206.63 307.55 204.84 304.99 C 198.32 304.89 191.74 304.42 185.24 305.08 M 270.38 306.19 C 270.90 306.73 270.90 306.73 270.38 306.19 M 138.46 317.78 C 137.84 330.50 138.34 343.26 138.18 356.00 C 138.37 362.75 137.72 369.54 138.59 376.26 C 139.10 362.85 138.68 349.42 138.81 336.00 C 138.63 329.93 139.26 323.82 138.46 317.78 M 252.35 354.28 C 252.87 354.79 252.87 354.79 252.35 354.28 Z" />
<path fill="#fff" opacity="1.00" d=" M 349.39 278.04 C 350.69 278.22 351.99 278.40 353.29 278.57 C 353.51 281.47 353.78 284.36 354.05 287.25 C 365.43 287.38 376.82 287.32 388.20 287.30 C 388.20 284.82 388.19 282.34 388.21 279.86 C 389.72 279.92 391.23 279.85 392.75 279.87 C 392.80 282.29 392.83 284.72 392.89 287.15 C 394.45 287.23 396.01 287.32 397.58 287.41 C 398.03 288.31 398.46 289.22 398.89 290.14 C 396.53 290.26 394.16 290.32 391.81 290.51 C 393.61 290.73 395.42 290.91 397.23 291.05 C 396.03 291.57 394.81 292.06 393.61 292.58 C 392.62 293.74 391.63 295.00 390.18 295.61 C 388.51 294.30 387.52 291.51 385.04 291.88 C 375.67 291.89 366.30 291.81 356.94 291.91 C 354.06 291.64 352.69 294.61 350.89 296.30 C 350.15 295.00 349.44 293.69 348.73 292.39 C 346.54 291.93 344.37 291.40 342.25 290.73 C 342.53 289.59 342.82 288.45 343.11 287.32 C 345.20 287.30 347.29 287.31 349.39 287.29 C 349.43 284.21 349.43 281.12 349.39 278.04 M 353.68 290.44 C 359.76 291.23 365.89 290.65 372.00 290.81 C 377.72 290.67 383.47 291.19 389.17 290.44 C 377.36 290.05 365.50 290.02 353.68 290.44 Z" />
<path fill="#fff" opacity="1.00" d=" M 336.55 279.10 C 338.64 279.28 340.92 280.69 340.77 283.05 C 340.99 288.45 340.80 293.87 340.90 299.29 C 361.05 299.43 381.21 299.33 401.36 299.35 C 401.49 292.64 401.28 285.92 401.52 279.21 C 403.68 279.14 406.04 280.66 405.85 283.04 C 406.09 288.46 405.80 293.89 406.03 299.32 C 408.03 299.23 410.13 298.44 412.09 299.14 C 413.45 299.60 413.18 301.27 413.86 302.30 C 411.23 302.42 408.59 302.47 405.96 302.57 C 405.89 305.21 405.78 307.86 405.56 310.50 C 404.16 310.67 402.77 310.84 401.38 311.01 C 401.39 308.27 401.37 305.53 401.35 302.80 C 395.26 302.06 389.12 302.40 383.00 302.35 C 369.05 302.62 355.06 301.75 341.14 302.82 C 340.96 305.03 340.78 307.25 340.43 309.46 C 340.07 307.24 339.69 305.03 339.37 302.81 C 339.28 305.57 339.31 308.33 339.31 311.09 C 338.61 310.86 337.20 310.39 336.49 310.15 C 336.46 307.59 336.42 305.04 336.33 302.49 C 333.67 302.42 331.00 302.46 328.34 302.60 C 328.26 301.52 328.21 300.44 328.17 299.36 C 330.81 299.33 333.44 299.23 336.08 299.02 C 336.74 292.39 336.14 285.74 336.55 279.10 Z" />
<path fill="#fff" opacity="1.00" d=" M 568.64 292.16 C 569.65 291.34 571.39 291.39 572.41 292.21 C 572.42 293.78 568.61 293.72 568.64 292.16 Z" />
<path fill="#fff" opacity="1.00" d=" M 143.03 316.22 C 146.45 315.24 150.07 315.01 153.60 315.48 C 155.18 316.00 156.01 317.59 157.08 318.75 C 155.63 319.76 154.19 320.83 152.59 321.60 C 149.61 322.43 146.47 321.46 143.75 320.23 C 143.48 318.90 143.25 317.56 143.03 316.22 Z" />
<path fill="#fff" opacity="1.00" d=" M 191.59 319.60 C 194.81 318.67 198.01 320.04 201.16 320.62 C 204.96 322.95 209.73 323.73 212.71 327.29 C 217.77 331.86 218.77 338.98 220.83 345.12 C 220.32 355.12 214.92 365.00 206.35 370.36 C 204.78 371.05 203.02 371.08 201.35 371.33 C 197.04 373.67 191.97 372.15 187.30 372.62 C 187.09 372.14 186.68 371.19 186.48 370.72 C 181.12 371.74 176.10 368.02 173.03 363.98 C 170.45 359.70 166.84 355.29 167.58 349.97 C 167.92 346.56 167.46 343.15 167.47 339.75 C 168.10 337.28 169.62 335.15 170.52 332.77 C 172.30 328.17 176.35 324.94 180.49 322.51 C 183.84 320.46 187.89 320.56 191.59 319.60 M 196.66 322.88 C 196.66 323.38 196.64 324.38 196.63 324.88 C 192.96 324.78 189.11 324.11 185.58 325.44 C 180.98 327.25 176.62 330.40 174.35 334.89 C 171.81 340.23 170.69 346.51 172.56 352.24 C 173.63 355.80 174.68 359.80 178.00 361.98 C 183.22 365.56 189.25 369.48 195.90 368.25 C 200.61 367.30 205.98 366.24 209.05 362.16 C 211.61 358.68 213.69 354.85 215.43 350.90 C 215.43 347.87 215.48 344.85 215.57 341.83 C 215.26 341.70 214.64 341.43 214.33 341.29 C 214.29 339.76 214.23 338.24 214.15 336.72 C 211.21 334.03 208.94 330.62 205.68 328.30 C 202.64 326.55 199.35 325.19 196.66 322.88 Z" />
<path fill="#fff" opacity="1.00" d=" M 154.46 333.98 C 154.60 329.57 151.62 323.34 156.74 320.67 C 157.74 321.56 158.74 322.45 159.76 323.34 C 159.68 341.41 160.08 359.50 159.56 377.56 C 157.72 377.62 155.89 377.67 154.05 377.72 C 154.86 363.15 154.30 348.55 154.46 333.98 M 158.48 327.76 C 158.06 343.96 158.11 360.21 158.46 376.41 C 159.31 370.31 158.75 364.13 158.89 358.00 C 158.63 347.92 159.42 337.80 158.48 327.76 Z" />
<path fill="#fff" opacity="1.00" d=" M 176.18 338.06 C 178.69 332.32 184.47 328.22 190.67 327.55 C 195.63 327.98 201.16 328.34 204.95 331.99 C 208.80 335.48 212.75 340.25 211.23 345.82 C 211.84 345.14 212.45 344.46 213.07 343.79 C 212.94 349.66 211.04 355.63 207.06 360.02 C 203.77 362.85 199.47 364.72 195.08 364.42 C 191.93 364.27 188.61 364.98 185.65 363.59 C 181.18 362.11 178.37 358.00 175.87 354.28 C 174.30 349.04 173.96 343.19 176.18 338.06 M 200.42 332.60 C 198.12 333.81 195.97 335.90 195.49 338.53 C 196.27 340.85 198.64 342.00 200.91 342.39 C 203.69 341.52 206.88 338.30 204.83 335.33 C 204.18 333.78 202.09 331.94 200.42 332.60 M 200.28 345.26 C 200.80 345.78 200.80 345.78 200.28 345.26 Z" />
<path fill="#fff" opacity="1.00" d=" M 166.48 343.55 C 167.80 344.15 167.82 347.94 166.42 348.50 C 165.52 347.09 165.60 344.95 166.48 343.55 Z" />
<path fill="#fff" opacity="1.00" d=" M 374.43 349.46 C 405.24 346.29 436.76 359.74 457.34 382.59 C 471.18 399.00 481.24 419.30 482.87 440.92 C 483.02 450.56 483.30 460.24 482.53 469.86 C 480.15 488.21 474.54 506.24 465.50 522.42 C 458.16 536.96 447.74 549.79 435.62 560.61 C 430.21 565.72 423.78 569.53 417.43 573.34 C 409.77 577.91 401.03 581.02 392.03 580.98 C 380.82 580.87 369.06 582.17 358.55 577.34 C 342.78 569.93 328.58 558.96 317.79 545.23 C 300.47 523.65 289.12 497.30 285.45 469.87 C 285.16 461.87 283.29 453.88 284.74 445.90 C 285.21 432.11 288.96 418.50 295.28 406.26 C 304.44 387.33 319.36 371.07 337.94 361.07 C 349.23 354.98 361.67 350.95 374.43 349.46 Z" />
<path fill="#fff" opacity="1.00" d=" M 191.60 365.15 C 192.22 364.19 194.65 364.29 194.41 365.72 C 193.81 366.72 191.31 366.59 191.60 365.15 Z" />
<path fill="#fff" opacity="1.00" d=" M 602.30 396.00 C 608.57 400.65 613.06 408.06 613.86 415.95 C 613.50 419.59 610.69 422.28 608.20 424.69 C 612.00 428.50 610.55 434.82 614.58 438.38 C 619.58 443.42 624.86 448.50 627.89 455.05 C 630.33 459.74 630.81 465.09 631.68 470.22 C 632.60 475.37 630.09 480.16 628.96 485.05 C 627.36 492.62 620.83 497.69 614.83 501.88 C 613.66 502.98 612.33 502.47 611.16 501.73 C 609.51 506.58 609.31 511.67 608.62 516.70 C 608.66 519.74 603.63 519.69 603.09 517.00 C 601.62 512.63 601.08 507.92 601.45 503.32 C 597.41 503.45 593.00 502.81 589.46 505.19 C 580.74 509.57 574.46 517.69 565.21 521.13 C 559.44 523.83 553.03 524.11 546.78 523.91 C 547.45 523.30 548.13 522.70 548.82 522.10 C 546.56 522.34 544.28 522.78 542.01 522.57 C 532.48 519.91 524.28 513.32 519.19 504.88 C 516.13 499.67 514.37 493.80 513.42 487.87 C 513.55 481.03 512.48 473.97 515.10 467.45 C 516.80 456.67 522.67 446.91 530.45 439.39 C 534.54 435.45 539.11 431.85 544.49 429.85 C 549.04 427.74 553.72 425.65 558.83 425.54 C 563.56 425.57 568.11 423.43 572.87 424.30 C 578.26 425.25 583.74 425.64 589.12 426.68 C 591.50 427.58 593.98 428.19 596.52 428.47 C 596.45 429.09 596.38 429.71 596.32 430.33 C 598.06 430.21 599.80 430.25 601.53 430.44 C 601.49 428.89 601.45 427.34 601.44 425.80 C 603.45 425.95 604.95 424.32 606.84 424.25 C 605.03 423.83 603.21 423.63 601.37 423.52 C 600.09 421.19 597.90 418.97 598.21 416.11 C 598.82 410.91 602.60 406.41 602.04 401.01 C 602.04 399.34 601.57 397.58 602.30 396.00 M 557.31 431.34 C 557.71 430.39 558.11 429.44 558.51 428.50 C 556.23 430.33 553.93 432.58 550.80 432.60 C 546.38 432.93 543.55 436.85 539.80 438.75 C 532.24 443.22 527.36 450.78 523.20 458.28 C 520.75 463.60 519.43 469.36 518.01 475.02 C 516.46 481.00 517.98 487.16 519.17 493.05 C 521.29 498.18 523.73 503.33 527.46 507.51 C 531.80 511.82 536.94 515.64 542.96 517.18 C 548.07 518.79 553.50 518.18 558.77 518.49 C 560.38 517.44 562.10 516.58 563.92 515.94 C 569.49 514.05 573.29 509.28 578.14 506.18 C 581.39 504.14 584.42 501.72 587.86 500.01 C 595.93 497.56 605.39 502.06 612.74 496.81 C 619.71 492.82 624.41 485.66 626.17 477.92 C 626.31 473.09 627.02 468.02 625.29 463.39 C 625.71 463.37 626.55 463.32 626.97 463.29 C 623.47 460.36 622.54 455.69 620.06 452.04 C 618.28 449.15 615.69 446.89 613.13 444.72 C 613.21 446.63 613.31 448.55 613.40 450.47 C 608.40 450.50 603.40 450.49 598.40 450.45 C 597.59 445.22 599.89 440.19 599.23 434.96 C 593.98 433.22 588.60 431.98 583.26 430.55 C 577.15 428.62 570.68 430.81 564.49 429.34 C 561.85 428.30 559.57 430.30 557.31 431.34 Z" />
<path fill="#fff" opacity="1.00" d=" M 113.55 434.48 C 114.69 430.94 119.31 432.18 121.92 433.20 C 127.62 435.87 134.06 435.86 139.85 438.21 C 142.63 439.21 145.63 438.18 148.51 438.61 C 151.88 439.02 155.25 438.50 158.57 437.95 C 158.62 438.50 158.70 439.60 158.74 440.15 C 162.63 438.20 166.74 436.70 171.08 436.21 C 176.26 435.68 180.81 432.63 185.99 432.21 C 188.11 431.83 189.76 434.09 189.58 436.06 C 189.69 443.24 189.63 450.43 190.27 457.59 C 194.18 457.46 198.10 457.40 202.03 457.50 C 207.31 457.85 212.29 454.92 217.61 455.82 C 217.96 455.26 218.31 454.70 218.67 454.15 C 220.03 454.41 221.38 454.67 222.75 454.94 C 222.24 454.46 221.75 453.98 221.25 453.51 C 224.04 452.89 226.78 452.10 229.47 451.12 C 229.53 451.50 229.65 452.25 229.72 452.63 C 231.34 453.03 232.97 453.43 234.60 453.85 C 234.51 456.94 233.84 459.97 233.51 463.03 C 234.17 465.91 235.08 468.80 234.54 471.80 C 235.32 471.23 236.10 470.66 236.90 470.11 C 237.61 470.61 238.32 471.11 239.04 471.63 C 240.31 470.31 241.66 469.05 242.81 467.62 C 243.46 465.03 243.04 462.29 243.75 459.71 C 248.20 456.16 254.30 455.94 259.70 456.76 C 259.28 457.99 258.86 459.23 258.45 460.47 C 255.44 461.11 252.40 461.64 249.41 462.39 C 248.56 466.02 248.66 469.86 246.88 473.25 C 242.50 473.80 238.35 475.44 233.98 476.11 C 233.33 481.13 232.25 486.13 232.88 491.23 C 232.25 490.54 231.63 489.85 231.02 489.16 C 231.40 491.77 231.74 494.38 232.05 497.01 C 231.55 496.56 230.55 495.66 230.06 495.21 C 230.16 497.11 230.24 499.02 230.25 500.94 C 229.48 501.72 228.72 502.52 227.95 503.31 C 228.44 503.33 229.43 503.36 229.92 503.37 C 227.04 514.11 223.02 525.83 213.34 532.30 C 207.59 536.41 200.33 535.14 193.74 535.57 C 189.66 533.38 185.50 531.34 181.26 529.48 C 181.32 530.23 181.42 531.73 181.47 532.48 C 179.23 525.89 173.66 521.01 172.14 514.09 C 168.74 517.93 163.73 519.51 159.68 522.49 C 158.88 522.10 158.08 521.71 157.28 521.32 C 155.64 522.47 154.09 524.19 151.89 523.95 C 149.04 524.23 146.79 522.11 144.52 520.74 C 144.51 521.35 144.48 522.59 144.47 523.20 C 141.84 521.13 138.84 519.65 135.78 518.34 C 131.71 516.60 129.03 512.87 126.77 509.23 C 120.94 499.69 118.04 488.66 116.49 477.67 C 115.47 470.75 113.80 463.86 114.32 456.82 C 110.33 455.03 104.95 456.88 101.96 453.08 C 99.75 450.48 100.39 446.79 99.29 443.75 C 97.48 442.37 95.18 441.96 93.06 441.31 C 93.51 441.08 94.41 440.61 94.87 440.37 C 91.73 440.70 88.82 439.74 87.16 436.93 C 91.07 436.54 95.00 436.40 98.92 436.15 C 98.42 436.61 97.91 437.08 97.40 437.55 C 100.56 438.20 104.28 438.87 105.93 442.04 C 107.61 444.16 106.16 446.79 105.72 449.09 C 108.22 449.95 110.70 450.89 113.14 451.93 C 113.43 446.11 113.12 440.28 113.55 434.48 M 188.33 451.70 C 187.44 452.98 187.43 455.03 188.31 456.33 C 189.81 455.95 189.82 452.10 188.33 451.70 M 224.01 456.96 C 223.80 457.55 223.59 458.15 223.39 458.75 C 222.33 458.68 221.29 458.61 220.24 458.56 C 215.59 461.10 210.03 460.81 204.93 461.60 C 199.56 461.22 193.82 462.79 188.74 460.55 C 188.79 462.40 188.83 464.26 188.87 466.13 C 188.27 465.45 187.67 464.78 187.08 464.11 C 188.10 469.40 187.33 474.70 186.37 479.93 C 189.04 479.17 191.74 478.51 194.50 478.20 C 194.34 480.24 194.67 482.55 193.31 484.27 C 191.53 486.91 188.13 487.44 185.26 488.10 C 183.16 491.54 182.20 495.44 181.19 499.29 C 180.15 503.48 176.93 506.76 176.08 511.01 C 176.66 515.05 179.34 518.30 181.21 521.81 C 183.41 525.96 187.19 529.50 191.90 530.45 C 197.03 531.55 202.81 532.22 207.68 529.81 C 213.74 526.05 218.82 520.42 221.24 513.65 C 222.52 510.19 224.92 507.12 225.29 503.37 C 225.87 498.25 226.98 493.19 227.31 488.05 C 227.82 488.63 228.34 489.22 228.86 489.81 C 228.19 483.92 229.36 478.05 229.51 472.17 C 230.90 466.64 230.23 460.94 230.48 455.32 C 228.41 456.16 226.22 456.66 224.01 456.96 M 126.90 461.41 C 126.56 463.35 126.61 465.35 128.45 466.54 C 132.64 471.71 139.79 470.44 145.62 471.40 C 145.31 467.79 143.13 464.52 139.76 463.11 C 135.84 460.86 131.22 461.44 126.90 461.41 M 161.29 464.23 C 158.56 465.55 158.57 468.85 157.89 471.38 C 161.51 470.72 165.15 470.32 168.83 470.22 C 172.20 469.63 174.28 466.52 176.48 464.19 C 176.31 463.48 175.98 462.07 175.82 461.36 C 170.83 461.22 165.53 461.18 161.29 464.23 M 233.08 467.31 C 231.61 470.31 236.41 467.39 233.08 467.31 M 149.07 491.56 C 150.87 491.57 152.67 491.62 154.47 491.68 C 154.41 485.21 154.29 478.61 151.71 472.54 C 148.88 478.46 147.96 485.08 149.07 491.56 M 192.33 479.21 C 192.86 479.74 192.86 479.74 192.33 479.21 M 132.80 494.31 C 134.14 498.35 136.77 501.71 139.49 504.91 C 144.86 505.74 150.20 508.53 155.70 506.83 C 162.21 505.38 168.69 501.25 170.15 494.32 C 166.61 496.35 163.65 499.54 159.53 500.42 C 155.82 501.32 151.75 502.79 148.10 500.87 C 145.49 499.61 142.51 499.91 139.80 499.11 C 137.36 497.66 135.28 495.69 132.80 494.31 M 224.25 514.30 C 222.76 517.31 227.60 514.34 224.25 514.30 Z" />
<path fill="#fff" opacity="1.00" d=" M 578.45 436.54 C 581.61 436.18 585.35 435.67 587.82 438.18 C 591.68 440.53 590.90 445.65 590.37 449.45 C 588.47 452.27 585.42 454.46 581.99 454.87 C 578.34 454.43 574.66 452.19 573.51 448.54 C 571.81 444.21 573.58 437.85 578.45 436.54 Z" />
<path fill="#fff" opacity="1.00" d=" M 550.36 439.35 C 552.95 436.19 557.00 439.88 560.05 437.48 C 562.47 439.11 565.48 441.11 564.46 444.48 C 564.83 444.42 565.57 444.29 565.95 444.23 C 565.92 445.84 565.91 447.46 565.89 449.09 C 565.57 448.65 564.94 447.77 564.62 447.33 C 564.04 450.12 562.70 452.64 560.81 454.76 C 556.92 454.13 551.49 456.09 549.19 451.80 C 546.23 448.14 546.51 442.28 550.36 439.35 Z" />
<path fill="#fff" opacity="1.00" d=" M 85.27 439.26 C 85.78 439.77 85.78 439.77 85.27 439.26 Z" />
<path fill="#fff" opacity="1.00" d=" M 534.55 453.61 C 540.75 451.06 545.22 457.92 546.79 462.97 C 545.57 466.22 544.20 470.34 540.57 471.56 C 537.18 472.29 533.20 471.97 530.76 469.23 C 528.03 466.77 527.74 462.80 528.44 459.42 C 529.35 456.57 532.06 454.92 534.55 453.61 Z" />
<path fill="#fff" opacity="1.00" d=" M 599.49 454.50 C 603.86 454.10 608.26 454.48 612.64 454.27 C 612.32 462.53 612.68 470.80 612.95 479.06 C 613.07 481.30 612.60 484.20 610.29 485.20 C 606.54 486.95 602.22 485.85 599.26 483.13 C 599.17 475.67 600.34 468.18 599.42 460.76 C 599.09 463.91 599.14 467.08 599.17 470.25 L 598.08 470.33 C 598.29 465.35 597.93 460.36 598.39 455.41 C 598.66 455.18 599.22 454.73 599.49 454.50 M 611.22 478.68 C 610.13 479.21 610.36 481.65 611.80 481.32 C 612.88 480.78 612.66 478.33 611.22 478.68 Z" />
<path fill="#fff" opacity="1.00" d=" M 544.20 455.32 C 544.73 455.84 544.73 455.84 544.20 455.32 Z" />
<path fill="#fff" opacity="1.00" d=" M 204.32 478.03 C 209.83 479.48 215.75 478.96 220.99 481.46 C 221.54 483.49 222.26 485.47 222.97 487.46 C 220.14 488.07 217.32 488.74 214.45 489.16 C 214.41 488.68 214.34 487.72 214.30 487.24 C 211.54 487.62 208.37 488.06 206.36 485.64 C 203.61 483.99 204.39 480.71 204.32 478.03 Z" />
<path fill="#fff" opacity="1.00" d=" M 530.78 477.94 C 536.47 477.36 541.96 481.40 542.87 487.07 C 543.19 490.71 539.89 493.18 537.55 495.45 C 535.71 497.35 532.80 496.92 530.46 496.53 C 523.76 495.24 521.84 485.09 527.07 481.05 C 528.63 479.69 530.90 479.79 532.85 479.47 C 532.33 479.08 531.30 478.32 530.78 477.94 Z" />
<path fill="#fff" opacity="1.00" d=" M 198.24 483.24 C 200.03 482.49 200.63 484.48 201.19 485.76 C 202.17 488.35 201.36 491.15 201.09 493.80 C 201.73 493.15 202.35 492.48 202.93 491.78 C 202.82 495.75 202.68 499.73 202.50 503.70 C 200.18 503.68 197.86 503.63 195.54 503.55 C 194.67 496.74 195.08 489.43 198.24 483.24 Z" />
<path fill="#fff" opacity="1.00" d=" M 545.87 495.94 C 548.58 494.81 551.72 495.31 554.60 495.46 C 556.88 497.40 559.92 499.70 559.76 503.02 C 559.98 505.87 559.13 508.62 558.27 511.30 C 552.93 513.34 546.09 513.75 542.21 508.80 C 543.17 504.54 541.73 498.76 545.87 495.94 Z" />
<path fill="#fff" opacity="1.00" d=" M 541.33 502.63 C 542.77 502.32 542.90 504.76 541.89 505.33 C 540.43 505.66 540.26 503.17 541.33 502.63 Z" />
<path fill="#fff" opacity="1.00" d=" M 184.63 518.73 C 185.92 513.60 190.53 509.18 196.02 509.37 C 200.41 509.55 205.70 508.45 209.19 511.86 C 211.38 513.66 212.48 516.33 213.11 519.03 C 210.13 518.69 207.57 517.14 204.87 516.02 C 202.24 515.61 199.57 515.86 196.92 515.80 C 192.59 515.54 188.77 517.89 184.63 518.73 M 196.62 514.28 C 197.07 515.73 200.91 515.74 201.36 514.29 C 200.03 513.39 197.94 513.39 196.62 514.28 Z" />
<path fill="#fff" opacity="1.00" d=" M 651.58 550.71 C 656.04 549.39 660.68 548.95 665.26 548.26 C 669.26 547.61 673.27 548.69 677.28 548.28 C 684.01 547.55 690.72 549.08 697.27 550.47 C 695.37 550.83 693.49 551.23 691.62 551.65 C 695.07 552.29 698.56 551.76 701.95 550.98 C 701.36 551.60 700.79 552.23 700.22 552.86 C 702.32 552.85 704.42 552.87 706.52 552.92 C 706.50 553.46 706.44 554.54 706.41 555.08 C 707.42 554.74 708.44 554.39 709.46 554.06 C 709.42 554.45 709.33 555.23 709.28 555.62 C 712.40 555.71 715.17 557.25 718.09 558.16 C 718.18 560.13 718.29 562.10 718.37 564.08 C 719.87 563.34 721.33 562.49 722.96 562.04 C 724.69 562.52 725.81 564.09 727.20 565.15 C 721.84 567.26 715.85 566.80 710.66 569.36 C 709.27 569.87 707.79 569.12 706.39 569.02 C 706.45 569.55 706.56 570.63 706.62 571.17 C 704.69 570.76 702.77 570.30 700.85 569.89 C 701.33 570.34 702.31 571.23 702.79 571.67 C 698.97 572.62 694.81 574.85 691.09 572.41 C 691.26 573.17 691.44 573.94 691.63 574.72 C 689.82 574.35 687.99 574.04 686.17 573.77 C 686.76 574.51 687.36 575.25 687.97 576.01 C 686.77 576.03 685.58 576.05 684.40 576.06 C 684.38 575.57 684.33 574.60 684.31 574.11 C 683.14 574.18 681.98 574.25 680.82 574.32 C 680.68 574.75 680.41 575.61 680.28 576.04 C 676.78 575.12 672.65 572.48 669.54 575.59 C 673.47 576.23 677.87 575.33 681.27 577.87 C 677.51 578.07 673.69 576.58 670.02 577.87 C 670.53 578.39 671.54 579.43 672.05 579.94 C 661.99 582.58 651.75 584.53 641.89 587.91 C 638.25 589.30 634.31 589.13 630.48 589.03 C 630.47 589.53 630.44 590.52 630.42 591.02 C 629.38 590.65 628.35 590.29 627.33 589.94 C 627.34 590.40 627.37 591.33 627.38 591.79 C 624.26 592.42 620.98 592.55 618.08 591.04 C 618.31 591.63 618.79 592.81 619.03 593.40 C 617.79 592.94 616.58 592.49 615.36 592.05 C 615.43 590.61 615.46 589.17 615.48 587.74 C 616.64 588.12 617.81 588.51 618.98 588.91 C 618.41 587.60 617.81 586.30 617.23 585.01 C 618.87 583.94 620.51 582.88 622.17 581.85 C 621.43 582.91 620.69 583.97 619.95 585.04 C 620.70 585.01 622.19 584.96 622.93 584.93 C 622.83 582.93 622.72 580.95 622.70 578.96 C 623.14 579.37 624.01 580.21 624.44 580.63 C 625.78 578.40 627.78 576.82 630.35 576.23 C 630.70 575.19 631.04 574.15 631.39 573.12 C 632.53 573.33 633.67 573.56 634.82 573.78 C 634.38 572.20 633.87 570.64 633.37 569.08 C 634.94 567.57 636.53 566.08 638.16 564.63 C 638.17 565.43 638.18 567.02 638.19 567.82 C 639.09 566.84 639.99 565.87 640.91 564.91 C 641.57 567.28 642.17 569.69 642.96 572.04 C 642.61 568.69 641.91 565.33 640.31 562.35 C 641.76 560.86 643.20 559.37 644.65 557.89 C 644.87 558.34 645.32 559.23 645.55 559.68 C 646.62 558.72 647.70 557.76 648.80 556.82 C 649.00 557.66 649.41 559.35 649.62 560.19 C 649.67 558.83 649.70 557.48 649.75 556.13 C 648.06 556.39 646.38 556.71 644.70 557.00 C 646.44 555.15 648.22 553.34 650.02 551.54 C 653.00 551.89 656.00 551.95 659.01 552.03 L 658.93 551.15 C 656.47 551.07 654.02 550.95 651.58 550.71 M 690.65 553.06 C 693.38 554.31 696.36 554.99 699.39 554.90 C 696.64 553.65 693.67 552.88 690.65 553.06 M 649.86 553.91 C 650.24 554.50 650.99 555.68 651.37 556.27 C 653.15 556.11 654.61 555.13 656.29 554.70 C 654.15 554.32 652.01 554.04 649.86 553.91 M 701.35 554.99 C 700.64 555.05 698.47 556.44 700.01 556.94 C 701.16 556.96 702.25 556.67 703.26 556.08 C 704.53 554.93 702.05 554.41 701.35 554.99 M 691.28 556.08 C 691.38 559.42 694.24 554.55 691.28 556.08 M 705.50 556.12 C 705.64 557.53 706.30 557.78 707.47 556.87 C 707.31 555.44 706.66 555.20 705.50 556.12 M 647.21 560.20 C 645.85 560.86 645.81 561.52 647.11 562.20 C 648.46 561.54 648.49 560.88 647.21 560.20 M 715.19 561.34 C 714.81 562.72 715.32 563.23 716.71 562.85 C 717.09 561.45 716.58 560.95 715.19 561.34 M 642.15 562.31 C 642.67 562.84 642.67 562.84 642.15 562.31 M 707.25 565.11 C 707.36 568.44 710.24 563.59 707.25 565.11 M 701.34 566.22 C 700.65 566.27 698.41 567.39 699.89 568.03 C 701.43 568.11 703.26 567.69 704.36 566.54 C 704.12 565.27 702.14 566.03 701.34 566.22 M 636.04 568.11 C 634.71 568.80 634.71 569.47 636.03 570.13 C 637.34 569.43 637.34 568.76 636.04 568.11 M 639.25 569.29 C 639.79 569.82 639.79 569.82 639.25 569.29 M 631.25 577.26 C 631.78 577.77 631.78 577.77 631.25 577.26 M 634.13 577.49 C 633.19 578.64 633.44 579.30 634.86 579.46 C 635.78 578.30 635.53 577.64 634.13 577.49 M 629.69 580.21 C 629.39 581.63 631.83 581.81 632.42 580.80 C 632.71 579.35 630.26 579.16 629.69 580.21 M 639.52 581.31 C 639.98 582.77 643.85 582.74 644.38 581.33 C 642.99 580.49 640.90 580.45 639.52 581.31 M 648.76 582.92 C 651.39 583.20 653.99 582.61 656.36 581.48 C 653.76 581.57 651.18 582.00 648.76 582.92 M 641.57 583.07 C 641.57 583.42 641.56 584.13 641.56 584.48 C 640.23 585.34 638.91 586.21 637.62 587.11 C 640.48 586.61 643.18 585.51 645.88 584.46 C 644.43 583.99 643.00 583.53 641.57 583.07 M 625.49 585.08 C 625.05 586.47 625.52 586.95 626.93 586.51 C 627.37 585.09 626.89 584.62 625.49 585.08 M 624.12 587.26 C 622.49 587.15 622.30 589.91 624.00 589.89 C 625.61 589.97 625.79 587.23 624.12 587.26 M 620.24 588.12 C 620.41 591.44 623.22 586.56 620.24 588.12 Z" />
<path fill="#fff" opacity="1.00" d=" M 164.85 564.75 C 166.58 562.88 169.34 563.24 171.64 562.90 C 174.49 565.93 175.97 570.50 173.23 574.14 C 168.67 579.23 163.58 583.82 158.63 588.54 C 158.30 588.26 157.63 587.70 157.29 587.42 C 156.92 591.70 153.33 594.30 150.40 596.97 C 150.18 596.55 149.73 595.72 149.51 595.30 C 148.66 598.27 146.38 601.19 147.49 604.39 C 149.21 611.39 151.31 618.30 152.50 625.41 C 154.62 633.62 156.71 641.83 159.01 649.99 C 159.79 653.53 161.32 657.18 160.47 660.85 C 159.26 662.42 157.70 663.68 156.25 665.03 C 155.72 664.36 155.20 663.70 154.68 663.05 C 154.51 664.57 154.37 666.11 154.02 667.61 C 152.67 667.76 151.10 667.96 150.64 666.32 C 142.94 650.91 135.19 635.51 127.61 620.04 C 121.07 624.94 115.61 631.07 109.69 636.67 C 104.46 641.48 109.41 648.64 108.59 654.57 C 106.83 657.45 104.28 659.74 101.84 662.03 C 99.70 658.51 97.49 655.02 95.69 651.32 C 94.48 649.02 93.47 646.32 91.02 645.05 C 86.14 642.36 81.06 640.06 76.07 637.58 C 77.63 633.49 81.49 630.37 85.91 630.19 C 90.10 630.89 94.33 631.38 98.57 631.65 C 104.74 624.62 111.54 618.15 118.35 611.75 C 113.12 606.78 105.07 606.41 100.41 600.73 C 100.17 600.89 99.71 601.22 99.48 601.39 C 94.26 598.25 86.55 597.51 84.14 591.17 C 84.09 591.81 84.01 593.10 83.96 593.74 C 79.72 591.46 75.38 589.38 70.91 587.62 C 72.70 583.52 76.52 580.99 79.24 577.59 C 89.64 579.44 99.72 582.63 110.02 584.93 C 118.48 586.83 126.95 588.77 135.25 591.30 C 139.86 592.39 141.91 587.33 144.84 584.88 C 150.29 580.73 153.80 574.29 160.32 571.53 C 160.43 568.54 162.82 566.61 164.85 564.75 M 169.31 575.23 C 169.84 575.76 169.84 575.76 169.31 575.23 M 154.27 579.28 C 154.79 579.81 154.79 579.81 154.27 579.28 M 165.25 579.37 C 165.78 579.89 165.78 579.89 165.25 579.37 M 153.27 591.20 C 153.81 591.74 153.81 591.74 153.27 591.20 M 91.27 592.26 C 91.78 592.78 91.78 592.78 91.27 592.26 M 81.15 635.07 C 80.64 636.68 81.19 637.23 82.82 636.70 C 83.34 635.07 82.78 634.52 81.15 635.07 M 101.28 655.09 C 101.47 658.40 104.27 653.52 101.28 655.09 Z" />
<path fill="#fff" opacity="1.00" d=" M 304.35 569.34 C 306.97 568.39 308.83 570.90 310.60 572.38 C 323.41 585.16 339.14 595.11 356.30 600.89 C 363.03 602.72 370.00 603.81 376.98 604.13 C 386.99 604.31 397.19 604.82 406.95 602.18 C 424.43 597.46 440.62 588.21 453.83 575.85 C 456.28 573.64 458.30 570.86 461.21 569.20 C 463.95 568.94 466.52 570.23 469.07 571.08 C 480.69 575.63 492.48 579.76 503.74 585.17 C 522.22 593.50 540.45 602.53 557.51 613.51 C 563.99 618.21 570.45 623.39 574.50 630.43 C 577.98 636.47 579.95 643.21 582.08 649.80 C 584.90 659.04 587.83 668.33 588.90 677.96 C 589.84 687.82 584.08 696.69 577.48 703.44 C 565.18 714.76 549.99 722.31 534.59 728.48 C 514.23 736.35 492.90 741.51 471.42 745.21 C 460.53 746.78 449.69 748.77 438.69 749.44 C 428.20 751.11 417.56 750.53 407.03 751.74 C 392.37 752.10 377.70 752.14 363.04 751.71 C 357.03 750.92 350.97 750.83 344.92 750.70 C 317.07 748.48 289.28 744.55 262.17 737.66 C 243.36 732.44 224.50 726.43 207.68 716.31 C 198.08 710.65 188.75 703.70 183.08 693.89 C 179.99 688.69 178.25 682.44 179.45 676.40 C 181.82 662.27 186.33 648.58 191.23 635.16 C 194.87 624.72 204.29 618.10 213.02 612.12 C 233.38 598.67 255.64 588.41 278.20 579.28 C 286.98 576.12 295.45 572.12 304.35 569.34 Z" />
<path fill="#fff" opacity="1.00" d=" M 697.66 582.58 C 708.41 578.55 719.89 577.16 730.87 573.93 C 730.69 581.09 731.15 588.24 730.72 595.40 C 725.60 594.31 720.46 595.30 715.74 597.36 C 714.96 601.49 710.50 603.08 706.74 602.80 C 707.59 600.87 708.44 598.94 709.12 596.95 C 706.30 597.23 706.78 600.75 706.02 602.78 C 702.10 601.59 697.70 600.95 693.91 602.93 C 691.45 603.90 689.98 606.16 688.36 608.10 C 688.29 607.38 688.16 605.94 688.09 605.21 C 686.97 605.71 685.86 606.22 684.75 606.72 C 685.50 607.49 686.26 608.25 687.04 609.04 C 684.11 609.27 680.87 610.46 678.17 608.76 C 676.65 607.73 675.68 606.13 674.54 604.75 C 674.82 605.81 675.10 606.88 675.39 607.95 C 673.59 607.53 671.79 607.12 669.99 606.75 C 670.61 607.46 671.24 608.18 671.88 608.90 C 669.88 609.41 667.36 609.05 665.88 610.76 C 663.74 613.15 661.40 615.36 658.68 617.08 C 659.24 615.59 659.87 614.14 660.51 612.69 C 658.57 613.57 656.87 614.84 655.83 616.72 C 650.98 614.51 645.81 615.75 640.74 615.39 C 639.94 618.21 638.38 621.08 635.42 622.06 C 635.22 622.45 634.82 623.23 634.62 623.62 C 628.75 622.07 622.66 621.25 616.61 621.99 C 615.16 626.00 611.58 628.97 607.90 630.88 C 605.52 630.59 603.30 629.61 601.05 628.87 C 600.91 622.16 600.96 615.45 601.32 608.76 C 604.62 607.53 607.89 606.21 611.29 605.31 C 616.29 604.18 621.82 604.38 626.03 601.04 C 626.52 601.41 627.01 601.80 627.51 602.19 C 635.18 598.04 644.00 596.93 652.23 594.27 C 658.49 592.19 665.24 591.99 671.34 589.38 C 675.83 588.01 680.58 587.66 685.00 585.99 C 689.10 584.41 693.46 583.79 697.66 582.58 M 721.36 578.07 C 721.47 581.40 724.33 576.54 721.36 578.07 M 691.11 585.10 C 690.56 586.72 691.11 587.26 692.74 586.73 C 693.28 585.09 692.74 584.55 691.11 585.10 M 722.24 591.10 C 722.42 594.44 725.19 589.52 722.24 591.10 M 719.34 592.15 C 718.83 593.75 719.39 594.31 721.03 593.82 C 721.53 592.20 720.97 591.64 719.34 592.15 M 703.22 598.09 C 703.35 601.41 706.20 596.55 703.22 598.09 M 710.24 598.26 C 708.83 599.06 710.09 601.59 711.51 600.39 C 712.94 599.57 711.65 597.06 710.24 598.26 M 691.09 599.65 C 690.00 600.45 691.11 602.63 692.39 601.84 C 693.40 601.05 692.32 598.88 691.09 599.65 M 698.32 599.25 C 698.85 599.78 698.85 599.78 698.32 599.25 M 635.22 600.33 C 634.67 601.94 635.23 602.50 636.88 601.99 C 637.41 600.38 636.85 599.83 635.22 600.33 M 670.29 605.19 C 670.47 608.52 673.26 603.62 670.29 605.19 M 667.07 606.18 C 666.63 607.60 667.11 608.07 668.50 607.57 C 668.93 606.14 668.45 605.68 667.07 606.18 M 683.11 606.28 C 681.57 609.28 686.43 606.42 683.11 606.28 M 610.08 609.31 C 608.55 612.27 613.42 609.42 610.08 609.31 M 635.17 613.51 C 634.40 614.25 634.37 616.20 635.66 616.39 C 637.38 616.13 637.01 612.48 635.17 613.51 M 635.25 618.25 C 635.76 618.77 635.76 618.77 635.25 618.25 M 612.09 623.21 C 610.54 626.17 615.42 623.35 612.09 623.21 Z" />
<path fill="#fff" opacity="1.00" d=" M 609.26 594.07 C 611.84 592.90 615.23 592.47 617.36 594.76 C 614.62 595.65 611.83 595.22 609.26 594.07 Z" />
<path fill="#fff" opacity="1.00" d=" M 608.23 595.29 C 609.61 594.89 610.12 595.39 609.76 596.80 C 608.38 597.17 607.87 596.67 608.23 595.29 Z" />
<path fill="#fff" opacity="1.00" d=" M 722.44 604.50 C 725.28 604.03 728.13 604.80 730.95 605.10 C 730.85 611.28 731.44 617.52 730.72 623.68 C 729.14 626.88 726.91 630.10 723.35 631.25 C 717.59 632.98 711.37 633.18 705.88 635.78 C 701.91 637.58 697.55 638.08 693.40 639.28 C 692.27 639.60 691.31 638.55 690.32 638.21 C 690.43 638.65 690.66 639.53 690.78 639.97 C 685.78 641.56 680.53 644.01 675.25 642.15 C 675.40 642.68 675.71 643.73 675.87 644.26 C 668.66 645.76 661.55 647.72 654.40 649.43 C 653.13 649.92 652.04 649.08 650.96 648.58 C 650.94 649.10 650.90 650.12 650.88 650.64 C 643.51 652.79 635.83 653.80 628.63 656.49 C 624.00 658.24 618.94 658.42 614.38 660.38 C 610.83 661.74 607.00 661.88 603.26 661.87 C 602.29 659.34 600.95 656.85 601.01 654.08 C 601.06 649.00 600.37 643.78 601.85 638.83 C 604.85 639.30 607.85 640.33 610.93 640.18 C 614.47 638.46 617.26 635.47 619.39 632.21 C 621.18 631.97 622.96 631.67 624.75 631.39 C 625.55 632.17 626.36 632.93 627.18 633.71 C 626.31 633.98 624.57 634.51 623.70 634.78 C 625.18 634.51 626.67 634.65 628.18 634.60 C 628.33 633.72 628.50 632.85 628.68 631.99 C 633.13 633.43 637.78 632.72 641.82 630.47 C 642.05 630.89 642.53 631.72 642.77 632.14 C 642.88 630.45 642.99 628.77 643.12 627.09 C 645.41 626.03 647.70 624.98 650.00 623.93 C 649.77 625.33 649.55 626.73 649.36 628.15 C 650.34 627.09 651.30 626.01 652.27 624.95 C 655.60 625.69 659.15 627.01 662.51 625.60 C 666.53 623.68 669.22 619.86 673.17 617.83 C 676.53 617.49 679.59 619.27 682.85 619.71 C 685.42 619.61 687.79 618.53 689.90 617.12 C 689.88 618.47 689.80 619.82 689.64 621.17 C 691.27 619.35 692.93 617.55 694.65 615.82 C 694.35 615.39 693.75 614.54 693.45 614.11 C 695.67 612.87 697.99 611.28 700.66 611.62 C 705.75 611.99 710.99 612.98 715.95 611.21 C 719.43 610.54 719.10 605.47 722.44 604.50 M 721.28 607.24 C 721.79 607.76 721.79 607.76 721.28 607.24 M 721.26 609.26 C 721.79 609.79 721.79 609.79 721.26 609.26 M 719.23 610.25 C 719.76 610.78 719.76 610.78 719.23 610.25 M 721.09 611.37 C 719.54 614.34 724.41 611.52 721.09 611.37 M 717.51 612.03 C 717.64 613.44 718.30 613.71 719.50 612.84 C 719.36 611.42 718.69 611.15 717.51 612.03 M 697.26 615.26 C 697.77 615.77 697.77 615.77 697.26 615.26 M 695.25 617.26 C 695.79 617.79 695.79 617.79 695.25 617.26 M 672.30 620.26 C 672.82 620.78 672.82 620.78 672.30 620.26 M 619.24 635.29 C 619.77 635.79 619.77 635.79 619.24 635.29 M 626.24 636.25 C 626.77 636.77 626.77 636.77 626.24 636.25 M 651.19 645.41 C 650.17 646.78 652.57 648.13 653.51 646.93 C 654.47 645.57 652.09 644.21 651.19 645.41 Z" />
<path fill="#fff" opacity="1.00" d=" M 692.26 616.39 C 692.81 616.92 692.81 616.92 692.26 616.39 Z" />
</g>
</svg>
