<?xml version="1.0" encoding="UTF-8" ?>
<!DOCTYPE svg PUBLIC "-//W3C//DTD SVG 1.1//EN" "http://www.w3.org/Graphics/SVG/1.1/DTD/svg11.dtd">
<svg width="609pt" height="528pt" viewBox="0 0 609 528" version="1.1" xmlns="http://www.w3.org/2000/svg">
<g id="#000">
</g>
<g id="#000">
<path fill="#000" opacity="1.00" d=" M 207.01 62.97 C 211.85 59.36 218.04 58.46 223.93 58.50 C 277.62 58.50 331.31 58.49 385.01 58.51 C 391.10 58.50 397.32 59.99 402.20 63.80 C 409.42 69.06 413.75 78.06 413.50 86.98 C 413.45 104.85 413.63 122.72 413.41 140.59 C 447.28 140.37 481.16 140.56 515.03 140.50 C 521.13 140.53 527.55 139.99 533.22 142.70 C 542.08 146.08 548.42 154.59 549.89 163.85 C 550.39 167.53 550.25 171.25 550.26 174.94 C 550.27 277.28 550.26 379.61 550.27 481.94 C 550.75 489.71 543.75 496.72 535.98 496.23 C 381.33 496.27 226.67 496.25 72.02 496.24 C 66.74 496.50 61.55 493.48 59.20 488.76 C 57.53 485.45 57.74 481.63 57.73 478.04 C 57.75 375.04 57.72 272.03 57.74 169.03 C 57.63 162.26 59.93 155.46 64.24 150.24 C 69.59 144.03 77.74 140.28 85.97 140.50 C 122.18 140.55 158.39 140.37 194.60 140.60 C 194.38 122.75 194.54 104.89 194.50 87.04 C 194.26 77.62 198.93 68.02 207.01 62.97 M 290.26 132.99 C 290.22 140.11 290.27 147.24 290.37 154.37 C 283.25 154.27 276.13 154.22 269.02 154.26 C 266.33 154.17 262.88 155.78 263.07 158.89 C 262.88 164.62 263.05 170.36 263.07 176.10 C 262.72 178.87 265.23 181.61 268.02 181.42 C 275.44 181.57 282.87 181.50 290.30 181.48 C 290.19 188.63 290.25 195.78 290.31 202.93 C 290.22 205.35 291.52 208.19 294.13 208.64 C 298.71 209.31 303.38 208.81 308.00 209.03 C 310.79 208.92 314.11 209.47 316.33 207.36 C 318.01 205.28 317.72 202.43 317.78 199.94 C 317.68 193.77 317.76 187.61 317.65 181.45 C 325.10 181.43 332.57 181.60 340.02 181.46 C 342.78 181.52 345.37 178.89 344.98 176.07 C 345.04 170.38 345.01 164.68 344.89 158.99 C 345.14 155.89 341.73 154.13 339.02 154.31 C 331.92 154.25 324.81 154.19 317.70 154.30 C 317.72 146.66 317.93 139.00 317.54 131.37 C 317.45 128.05 313.91 126.59 311.03 126.75 C 305.69 126.82 300.35 126.54 295.03 126.89 C 291.90 126.98 290.07 130.13 290.26 132.99 M 149.41 277.45 C 143.97 277.75 139.92 282.60 139.82 287.91 C 139.62 298.28 139.84 308.66 139.74 319.04 C 139.59 323.01 140.74 327.32 143.91 329.94 C 146.17 331.77 149.21 331.92 151.98 332.01 C 161.64 332.05 171.30 331.90 180.96 331.97 C 184.27 331.97 187.97 331.98 190.59 329.61 C 193.74 327.49 194.52 323.52 194.50 319.97 C 194.50 309.98 194.48 299.99 194.52 290.01 C 194.44 286.88 194.33 283.36 192.07 280.93 C 189.23 278.00 184.97 277.04 181.01 277.23 C 170.48 277.40 159.93 277.02 149.41 277.45 M 286.41 277.44 C 281.43 277.83 276.85 281.93 276.87 287.10 C 276.58 297.07 276.87 307.06 276.73 317.04 C 276.77 320.77 276.47 325.01 279.09 328.03 C 281.07 330.92 284.66 331.97 288.01 331.93 C 298.01 331.98 308.01 331.98 318.01 332.02 C 321.32 332.05 324.95 331.87 327.52 329.49 C 330.58 327.37 331.26 323.46 331.24 319.99 C 331.26 309.99 331.23 299.98 331.27 289.97 C 331.18 286.93 331.07 283.53 328.91 281.15 C 326.19 278.14 321.97 277.06 318.04 277.25 C 307.49 277.44 296.93 276.97 286.41 277.44 M 423.35 277.42 C 420.43 277.89 417.29 278.96 415.58 281.53 C 413.68 283.90 413.51 287.09 413.48 290.01 C 413.52 299.34 413.52 308.68 413.48 318.02 C 413.48 320.34 413.49 322.70 414.10 324.97 C 415.40 328.72 418.91 331.79 423.00 331.85 C 432.98 332.27 442.99 331.81 452.98 331.97 C 456.66 331.88 460.86 332.40 463.93 329.90 C 467.43 327.55 468.25 322.93 468.27 319.01 C 468.24 309.33 468.23 299.66 468.26 289.98 C 468.26 286.67 467.65 283.12 465.39 280.57 C 462.63 277.95 458.71 277.08 455.00 277.23 C 444.45 277.38 433.89 277.06 423.35 277.42 M 146.38 387.49 C 141.73 389.09 139.69 394.48 139.74 399.04 C 139.82 409.71 139.62 420.40 139.85 431.07 C 139.99 436.49 144.40 441.72 150.10 441.42 C 161.39 441.57 172.70 441.53 183.99 441.44 C 189.21 441.50 194.18 437.31 194.34 431.96 C 194.73 422.00 194.36 412.01 194.52 402.03 C 194.50 397.80 194.87 392.74 191.29 389.70 C 186.97 385.43 180.42 387.07 174.98 386.76 C 165.46 387.15 155.79 385.89 146.38 387.49 M 283.26 387.49 C 279.47 388.96 276.80 392.94 276.84 397.02 C 276.64 407.68 276.82 418.35 276.74 429.01 C 276.65 432.53 277.38 436.34 280.20 438.73 C 282.73 441.36 286.60 441.49 290.01 441.52 C 299.99 441.45 309.97 441.55 319.95 441.48 C 323.52 441.60 327.12 440.12 329.26 437.20 C 331.34 434.65 331.15 431.12 331.27 428.02 C 331.13 417.69 331.42 407.35 331.15 397.03 C 331.35 391.51 326.40 386.80 320.98 386.84 C 313.00 386.60 305.00 386.83 297.01 386.76 C 292.43 386.87 287.75 386.29 283.26 387.49 M 419.56 387.69 C 415.67 389.53 413.32 393.80 413.53 398.06 C 413.52 409.03 413.42 420.01 413.56 430.98 C 413.39 436.64 418.31 441.70 424.02 441.43 C 435.30 441.54 446.59 441.55 457.88 441.43 C 463.51 441.57 468.04 436.56 468.14 431.08 C 468.43 420.72 468.13 410.35 468.27 399.99 C 468.28 396.00 467.58 391.31 464.04 388.87 C 461.57 386.75 458.13 386.80 455.07 386.74 C 445.72 386.77 436.37 386.76 427.03 386.73 C 424.51 386.75 421.94 386.83 419.56 387.69 Z" />
</g>
</svg>
