<?xml version="1.0" encoding="UTF-8" ?>
<!DOCTYPE svg PUBLIC "-//W3C//DTD SVG 1.1//EN" "http://www.w3.org/Graphics/SVG/1.1/DTD/svg11.dtd">
<svg width="611pt" height="501pt" viewBox="0 0 611 501" version="1.1" xmlns="http://www.w3.org/2000/svg">
<g id="#000">
</g>
<g id="#000">
<path fill="#000" opacity="1.00" d=" M 92.98 33.89 C 96.97 30.85 102.27 31.92 106.92 31.71 C 112.17 32.02 118.28 30.57 122.68 34.25 C 126.33 36.98 128.19 41.52 128.12 46.02 C 128.27 68.50 128.13 90.98 128.13 113.45 C 146.38 113.52 164.64 113.50 182.90 113.46 C 182.92 90.64 182.74 67.82 182.93 45.00 C 182.86 39.60 186.43 34.49 191.38 32.47 C 195.79 31.18 200.47 31.91 205.00 31.71 C 209.36 31.85 214.33 31.01 218.02 33.90 C 221.92 36.58 223.98 41.30 223.90 45.97 C 223.96 68.47 223.90 90.98 223.93 113.48 C 242.16 113.50 260.39 113.48 278.62 113.49 C 278.64 92.64 278.63 71.78 278.63 50.93 C 278.89 40.89 287.82 31.75 297.97 31.76 C 338.62 31.65 379.28 31.80 419.94 31.70 C 424.77 31.51 429.94 32.06 433.88 35.13 C 439.72 39.02 442.89 46.02 442.79 52.94 C 442.83 100.45 442.79 147.97 442.81 195.48 C 481.90 195.52 520.99 195.46 560.08 195.51 C 570.59 195.85 579.87 205.42 579.32 216.05 C 579.41 291.36 579.35 366.68 579.35 442.00 C 579.92 454.31 570.32 465.64 558.56 468.39 C 554.43 469.28 550.19 469.03 546.01 469.04 C 386.33 469.06 226.65 469.03 66.97 469.06 C 62.23 469.00 57.41 469.39 52.77 468.24 C 41.27 465.29 32.06 454.10 32.65 442.01 C 32.63 340.34 32.65 238.66 32.63 136.99 C 32.67 133.56 32.41 129.99 33.66 126.72 C 36.94 117.76 46.75 112.45 56.07 113.47 C 66.42 113.51 76.76 113.49 87.11 113.48 C 87.12 90.97 87.11 68.46 87.12 45.95 C 86.88 41.25 89.09 36.57 92.98 33.89 M 341.41 86.54 C 336.98 87.33 333.39 91.51 333.41 96.04 C 333.26 106.35 333.45 116.66 333.35 126.97 C 333.37 130.01 333.15 133.31 334.85 136.01 C 336.70 139.17 340.29 141.08 343.95 140.94 C 355.33 140.93 366.71 141.11 378.09 140.93 C 383.33 140.97 388.01 136.30 388.02 131.06 C 388.14 120.03 388.04 108.99 388.08 97.96 C 388.22 94.27 386.91 90.37 383.76 88.22 C 380.39 85.65 375.94 86.38 372.00 86.26 C 361.81 86.49 351.58 85.82 341.41 86.54 M 96.25 168.39 C 91.00 168.71 86.75 173.72 87.12 178.94 C 87.12 190.31 87.10 201.68 87.20 213.05 C 87.19 218.20 91.71 222.92 96.91 222.88 C 108.28 223.02 119.65 223.01 131.02 222.98 C 136.54 223.34 141.76 218.66 141.78 213.09 C 141.96 202.04 141.75 190.99 141.82 179.94 C 141.99 176.30 140.69 172.45 137.63 170.29 C 134.63 167.88 130.59 168.30 127.00 168.25 C 116.75 168.40 106.49 168.03 96.25 168.39 M 206.22 168.33 C 201.13 168.43 196.54 172.94 196.61 178.08 C 196.55 189.71 196.52 201.36 196.62 213.00 C 196.59 218.42 201.50 223.19 206.93 222.93 C 218.31 222.95 229.70 223.08 241.08 222.95 C 246.43 223.07 251.27 218.36 251.21 212.99 C 251.37 202.35 251.20 191.70 251.30 181.06 C 251.40 177.50 250.85 173.54 248.00 171.07 C 245.68 168.67 242.23 168.16 239.05 168.25 C 228.11 168.36 217.16 168.11 206.22 168.33 M 341.39 168.56 C 336.61 169.44 333.03 174.17 333.38 179.00 C 333.41 190.33 333.28 201.67 333.41 213.00 C 333.33 218.52 338.41 223.28 343.91 222.98 C 355.29 223.03 366.68 223.00 378.07 222.89 C 383.34 222.96 388.00 218.26 388.00 213.01 C 388.19 202.02 388.00 191.03 388.08 180.04 C 388.19 176.80 387.35 173.33 384.86 171.10 C 382.07 168.14 377.74 168.17 373.99 168.23 C 363.13 168.46 352.22 167.88 341.39 168.56 M 96.24 250.40 C 91.00 250.76 86.74 255.80 87.15 261.03 C 87.20 272.35 87.02 283.68 87.17 295.01 C 87.14 300.21 91.70 304.94 96.94 304.93 C 108.29 305.11 119.66 304.92 131.01 304.94 C 136.57 305.33 141.78 300.56 141.77 294.97 C 141.85 283.65 141.86 272.32 141.82 260.99 C 142.08 255.57 137.62 250.34 132.08 250.33 C 120.14 250.21 108.18 250.16 96.24 250.40 M 206.26 250.34 C 201.15 250.43 196.58 254.96 196.61 260.10 C 196.48 270.40 196.64 280.71 196.55 291.01 C 196.59 293.82 196.35 296.81 197.67 299.39 C 199.36 302.82 203.08 305.07 206.91 304.97 C 218.28 305.05 229.66 304.98 241.03 304.91 C 246.43 305.08 251.23 300.32 251.21 294.93 C 251.35 283.63 251.25 272.33 251.25 261.04 C 251.61 255.37 246.72 250.10 241.00 250.29 C 229.42 250.23 217.84 250.21 206.26 250.34 M 341.42 250.54 C 336.99 251.33 333.40 255.49 333.41 260.02 C 333.26 270.35 333.45 280.68 333.35 291.01 C 333.38 293.86 333.16 296.89 334.56 299.49 C 336.32 302.93 340.09 305.11 343.95 304.93 C 355.31 304.93 366.68 305.10 378.05 304.94 C 383.31 304.99 388.02 300.31 388.02 295.05 C 388.15 284.04 388.04 273.03 388.08 262.02 C 388.18 258.55 387.14 254.85 384.31 252.65 C 380.93 249.61 376.10 250.35 371.95 250.26 C 361.78 250.48 351.57 249.84 341.42 250.54 M 478.40 250.52 C 473.58 251.30 469.86 256.03 470.19 260.90 C 470.22 272.30 470.06 283.71 470.21 295.11 C 470.22 300.24 474.72 304.90 479.89 304.93 C 490.25 305.16 500.63 304.85 511.00 304.98 C 514.10 304.92 517.53 305.20 520.19 303.27 C 523.27 301.29 524.98 297.66 524.84 294.04 C 524.78 282.67 525.02 271.29 524.79 259.93 C 524.65 254.40 519.48 249.87 514.00 250.27 C 502.14 250.37 490.25 249.97 478.40 250.52 M 93.27 333.33 C 89.52 334.94 86.91 338.88 87.13 342.99 C 87.07 353.98 87.17 364.97 87.15 375.96 C 86.99 379.34 88.22 382.87 90.98 384.98 C 93.70 387.39 97.56 387.25 100.98 387.28 C 111.31 387.16 121.66 387.36 131.99 387.16 C 137.32 387.19 141.88 382.30 141.80 377.03 C 141.89 365.67 141.83 354.30 141.77 342.93 C 141.95 337.57 137.38 332.58 131.96 332.58 C 122.00 332.39 112.04 332.59 102.08 332.49 C 99.14 332.54 96.07 332.26 93.27 333.33 M 202.40 333.46 C 198.81 335.20 196.31 339.03 196.58 343.08 C 196.58 354.38 196.51 365.70 196.61 377.00 C 196.47 382.58 201.51 387.53 207.11 387.22 C 218.37 387.28 229.65 387.26 240.91 387.19 C 246.43 387.42 251.39 382.49 251.23 376.98 C 251.30 365.65 251.31 354.32 251.23 343.00 C 251.42 337.46 246.60 332.35 240.99 332.55 C 230.67 332.43 220.34 332.57 210.02 332.48 C 207.46 332.53 204.78 332.40 202.40 333.46 M 476.24 333.36 C 472.54 334.98 469.97 338.87 470.17 342.95 C 470.09 353.30 470.24 363.65 470.16 374.00 C 470.15 377.07 470.11 380.45 472.12 382.99 C 474.11 385.86 477.59 387.32 481.03 387.23 C 492.33 387.25 503.65 387.31 514.95 387.16 C 520.30 387.22 524.93 382.34 524.83 377.04 C 524.94 365.66 524.85 354.28 524.81 342.91 C 524.97 337.54 520.38 332.53 514.93 332.58 C 504.61 332.39 494.28 332.59 483.96 332.48 C 481.37 332.53 478.68 332.37 476.24 333.36 Z" />
</g>
</svg>
