<?xml version="1.0" encoding="UTF-8" ?>
<!DOCTYPE svg PUBLIC "-//W3C//DTD SVG 1.1//EN" "http://www.w3.org/Graphics/SVG/1.1/DTD/svg11.dtd">
<svg width="584pt" height="512pt" viewBox="0 0 584 512" version="1.1" xmlns="http://www.w3.org/2000/svg">
<g id="#000">
</g>
<g id="#000">
<path fill="#000" opacity="1.00" d=" M 55.59 43.68 C 58.45 40.46 62.83 39.32 67.00 39.51 C 221.35 39.50 375.69 39.50 530.03 39.51 C 537.10 39.01 544.02 44.89 544.14 52.07 C 544.39 61.37 544.23 70.69 544.27 80.00 C 544.39 84.69 542.11 89.46 538.02 91.89 C 531.75 95.87 524.00 93.77 517.04 94.27 C 517.03 203.69 516.99 313.12 517.06 422.54 C 522.01 422.56 526.97 422.31 531.92 422.63 C 538.70 422.88 544.46 429.25 544.20 436.00 C 544.30 445.00 544.28 454.00 544.27 462.99 C 544.50 468.69 540.87 474.27 535.57 476.35 C 531.82 477.58 527.83 477.19 523.96 477.25 C 457.71 477.26 391.47 477.21 325.23 477.27 C 325.24 454.52 325.28 431.77 325.22 409.01 C 325.62 401.81 319.21 395.20 312.03 395.29 C 302.69 395.18 293.35 395.28 284.01 395.32 C 276.81 395.20 270.47 401.83 270.78 409.00 C 270.73 431.75 270.74 454.50 270.77 477.25 C 202.54 477.23 134.30 477.26 66.06 477.24 C 58.64 477.87 51.74 471.37 51.81 463.96 C 51.71 454.66 51.67 445.36 51.77 436.06 C 51.67 431.28 54.39 426.81 58.44 424.38 C 64.70 421.03 72.17 423.04 78.95 422.52 C 79.03 313.09 78.93 203.67 79.00 94.25 C 71.68 93.63 63.20 96.16 56.94 91.18 C 53.34 88.71 51.70 84.27 51.76 80.03 C 51.72 72.01 51.75 64.00 51.70 55.98 C 51.57 51.62 52.17 46.78 55.59 43.68 M 168.35 122.57 C 163.82 124.31 161.22 129.27 161.27 133.97 C 161.34 144.33 161.13 154.69 161.32 165.04 C 161.57 170.75 166.26 175.80 172.04 176.11 C 181.02 176.44 190.01 176.12 199.00 176.27 C 203.03 176.29 207.53 176.58 210.87 173.90 C 214.55 171.63 216.12 167.16 215.97 163.00 C 215.87 152.95 216.14 142.90 215.93 132.86 C 215.79 126.67 210.12 121.42 203.97 121.54 C 195.97 121.43 187.95 121.56 179.95 121.49 C 176.07 121.54 172.04 121.09 168.35 122.57 M 277.47 122.64 C 273.61 124.59 270.63 128.60 270.80 133.05 C 270.72 143.69 270.71 154.33 270.81 164.96 C 270.68 170.88 276.11 176.11 281.96 176.17 C 290.64 176.35 299.33 176.16 308.01 176.26 C 311.33 176.24 314.77 176.52 317.96 175.36 C 321.95 173.50 325.32 169.65 325.17 165.02 C 325.33 154.38 325.25 143.72 325.20 133.07 C 325.57 126.57 319.27 121.21 313.00 121.51 C 303.70 121.48 294.39 121.54 285.08 121.47 C 282.51 121.44 279.86 121.59 277.47 122.64 M 387.34 122.48 C 382.93 124.39 379.85 129.15 380.05 133.98 C 380.07 144.00 379.94 154.03 380.02 164.05 C 379.88 170.07 384.83 175.83 390.94 176.12 C 399.61 176.43 408.30 176.13 416.98 176.26 C 421.11 176.23 425.66 176.72 429.25 174.23 C 433.25 172.15 434.78 167.35 434.73 163.10 C 434.71 153.72 434.75 144.34 434.77 134.96 C 434.78 131.81 434.20 128.46 432.22 125.92 C 429.69 123.05 425.90 121.40 422.07 121.50 C 413.39 121.47 404.71 121.55 396.03 121.47 C 393.11 121.45 390.10 121.41 387.34 122.48 M 168.39 204.51 C 163.80 206.25 161.17 211.26 161.25 216.02 C 161.26 226.35 161.23 236.69 161.32 247.02 C 161.49 252.72 166.12 258.21 172.08 258.14 C 181.68 258.43 191.30 258.13 200.92 258.27 C 204.36 258.19 208.28 258.51 211.07 256.09 C 214.71 253.68 216.21 249.19 216.02 244.98 C 215.96 234.95 216.03 224.91 215.89 214.87 C 215.77 208.67 210.07 203.49 203.95 203.53 C 195.28 203.42 186.60 203.58 177.92 203.49 C 174.73 203.48 171.43 203.33 168.39 204.51 M 277.43 204.61 C 273.60 206.59 270.55 210.55 270.80 215.03 C 270.73 225.68 270.70 236.34 270.80 246.99 C 270.65 252.91 275.95 258.41 281.94 258.19 C 292.63 258.30 303.34 258.26 314.03 258.20 C 320.00 258.41 325.54 252.95 325.20 246.93 C 325.33 237.97 325.18 229.01 325.27 220.06 C 325.25 216.85 325.43 213.53 324.35 210.46 C 322.27 206.30 317.78 203.37 313.07 203.50 C 304.05 203.45 295.03 203.56 286.01 203.48 C 283.12 203.46 280.13 203.45 277.43 204.61 M 387.28 204.46 C 382.88 206.39 379.84 211.14 380.01 215.96 C 379.95 225.97 380.07 235.97 380.05 245.98 C 379.78 252.00 384.70 258.23 391.00 258.14 C 401.64 258.38 412.30 258.21 422.95 258.21 C 428.89 258.54 434.40 253.68 434.64 247.69 C 434.96 238.13 434.59 228.56 434.75 219.00 C 434.86 215.20 434.62 211.04 432.19 207.93 C 429.65 205.08 425.87 203.42 422.05 203.50 C 413.37 203.46 404.70 203.56 396.03 203.48 C 393.09 203.47 390.07 203.41 387.28 204.46 M 282.94 287.11 C 266.12 290.48 250.04 298.67 238.47 311.49 C 224.10 326.43 215.62 346.93 216.03 367.74 C 270.69 367.74 325.35 367.72 380.02 367.75 C 380.08 356.92 378.04 346.05 373.79 336.08 C 370.65 328.69 366.14 321.97 361.27 315.62 C 349.20 300.80 331.72 290.72 313.02 287.06 C 303.06 285.44 292.89 285.53 282.94 287.11 Z" />
</g>
</svg>
