<?xml version="1.0" encoding="UTF-8" ?>
<!DOCTYPE svg PUBLIC "-//W3C//DTD SVG 1.1//EN" "http://www.w3.org/Graphics/SVG/1.1/DTD/svg11.dtd">
<svg width="768pt" height="768pt" viewBox="0 0 768 768" version="1.1" xmlns="http://www.w3.org/2000/svg">
<g id="#000">
</g>
<g id="#000">
<path fill="#000" opacity="1.00" d=" M 244.85 66.75 C 249.16 61.20 256.59 61.23 262.95 60.55 C 270.95 60.28 278.97 60.90 286.95 60.03 C 308.53 60.01 330.12 59.91 351.71 60.08 C 353.39 62.76 355.22 65.36 357.42 67.64 C 359.46 71.46 361.21 75.56 361.01 79.99 C 362.64 89.65 361.70 99.50 361.85 109.26 C 369.24 113.20 377.45 115.34 384.94 119.10 C 390.12 121.60 395.88 122.66 400.92 125.47 C 401.90 124.26 402.97 123.12 404.17 122.11 C 407.22 119.18 409.94 115.88 413.39 113.39 C 418.96 108.38 423.85 102.16 430.90 99.14 C 437.44 96.38 443.83 101.05 448.87 104.80 C 450.73 106.79 453.35 107.95 454.94 110.22 C 459.99 115.12 465.18 119.87 470.28 124.71 C 471.50 125.98 472.64 127.31 473.71 128.72 C 478.15 132.42 481.80 136.97 486.23 140.70 C 487.82 142.44 489.44 144.17 491.16 145.79 C 494.03 149.67 497.82 152.67 501.02 156.25 C 501.35 156.54 502.01 157.11 502.33 157.40 C 506.17 162.88 512.26 167.70 512.27 174.97 C 512.86 183.00 506.98 189.41 501.54 194.51 C 496.67 199.68 490.98 204.18 487.18 210.26 C 486.13 212.41 486.59 215.17 487.92 217.11 C 491.70 222.92 492.90 230.34 491.22 237.06 C 490.56 238.42 489.90 239.78 489.22 241.13 C 488.50 241.76 487.80 242.40 487.11 243.05 C 486.08 243.81 485.06 244.58 484.07 245.37 C 479.29 248.37 473.46 248.42 468.05 247.74 C 461.30 245.38 457.67 238.77 453.78 233.26 C 451.00 229.09 449.24 224.39 446.99 219.95 C 445.22 215.03 442.31 210.16 442.58 204.79 C 444.54 199.14 448.54 194.65 452.29 190.10 C 455.27 185.90 459.73 183.01 462.73 178.83 C 463.54 177.78 464.49 176.85 465.50 175.98 C 465.53 175.30 465.57 174.62 465.61 173.95 C 463.82 172.53 462.22 170.93 460.65 169.30 C 458.33 166.95 455.95 164.67 453.68 162.29 C 452.39 160.95 451.06 159.65 449.69 158.40 C 448.73 157.34 447.75 156.31 446.72 155.33 C 443.74 152.30 440.61 149.43 437.76 146.29 C 436.79 145.24 435.62 144.43 434.36 143.80 C 429.61 148.96 424.45 153.73 419.58 158.77 C 414.70 162.93 409.21 167.72 402.37 167.38 C 397.82 166.31 393.00 165.38 389.03 162.80 C 388.47 162.70 387.36 162.48 386.81 162.38 C 381.91 159.88 377.11 157.07 371.92 155.21 C 368.11 153.59 364.27 152.01 360.41 150.50 C 353.98 147.46 346.90 146.14 340.16 143.92 C 336.65 142.66 333.43 140.74 330.03 139.24 C 325.35 134.78 324.97 128.05 324.68 122.00 C 324.65 113.72 324.76 105.43 324.59 97.14 C 313.74 96.83 302.87 97.08 292.01 97.00 C 287.63 97.12 283.21 96.66 278.86 97.37 C 279.00 104.58 279.16 111.81 278.84 119.01 C 277.61 122.98 278.54 127.45 276.38 131.13 C 275.09 134.40 272.42 136.71 269.99 139.12 C 263.55 143.39 256.04 145.88 248.46 147.20 C 242.12 150.07 235.50 152.30 229.18 155.21 C 227.71 155.69 226.29 156.30 224.98 157.12 C 217.68 161.27 210.05 164.87 201.93 167.13 C 195.73 168.79 190.06 165.06 185.17 161.76 C 182.33 160.02 180.79 156.78 177.80 155.28 C 175.01 152.02 172.27 148.56 168.68 146.16 C 168.29 145.62 167.50 144.55 167.11 144.01 C 164.69 144.71 163.28 146.95 161.53 148.58 C 153.37 156.76 145.20 164.95 136.98 173.09 C 136.27 173.92 135.24 174.67 135.15 175.85 C 138.54 179.82 142.24 183.53 146.24 186.88 C 148.14 189.90 151.27 191.85 153.34 194.74 C 156.12 199.41 159.60 204.52 158.24 210.27 C 156.17 218.15 152.90 225.71 148.74 232.71 C 145.19 239.94 142.38 247.51 139.32 254.96 C 138.00 257.94 137.45 261.16 136.76 264.32 C 134.38 271.20 131.79 278.37 126.02 283.19 C 123.93 284.34 121.86 285.53 119.65 286.45 C 116.52 287.09 113.26 286.92 110.16 287.79 C 102.87 288.36 95.53 287.61 88.24 288.19 C 87.76 303.30 88.01 318.45 88.11 333.57 C 96.76 333.78 105.42 333.55 114.07 333.70 C 119.43 334.19 125.54 334.30 129.52 338.48 C 131.13 340.89 132.57 343.44 133.79 346.07 C 134.28 347.34 134.75 348.62 135.23 349.90 C 138.60 363.45 144.02 376.37 149.85 389.02 C 153.60 395.92 156.65 403.26 158.35 410.93 C 159.04 417.82 154.15 423.18 150.21 428.19 C 144.94 433.09 140.14 438.48 134.84 443.36 C 136.35 446.36 139.12 448.31 141.41 450.67 C 146.96 456.42 152.71 461.97 158.33 467.65 C 158.99 468.34 159.66 469.02 160.34 469.69 C 161.99 471.26 163.64 472.85 165.04 474.66 C 165.66 474.58 166.29 474.50 166.91 474.43 C 174.02 468.40 180.11 461.25 187.77 455.85 C 191.72 452.60 197.13 451.18 202.13 452.42 C 207.55 453.36 212.18 456.46 217.11 458.69 C 224.95 462.89 233.27 467.28 238.53 474.71 C 242.73 483.84 237.78 495.59 228.90 499.85 C 221.66 502.25 213.83 500.23 207.43 496.52 C 205.83 495.50 203.80 495.43 201.99 495.81 C 192.10 501.67 186.04 512.09 176.50 518.39 C 171.97 521.50 165.93 522.18 160.81 520.23 C 150.12 514.76 142.91 504.80 133.87 497.24 C 131.54 495.04 129.38 492.69 127.26 490.30 C 126.94 490.05 126.30 489.54 125.98 489.29 C 125.02 488.13 123.96 487.08 122.83 486.10 C 119.93 482.59 116.02 480.06 113.35 476.37 C 113.00 476.13 112.28 475.66 111.92 475.42 C 104.84 466.89 95.72 459.92 90.58 449.89 C 89.98 447.27 88.50 444.53 89.57 441.84 C 91.96 433.51 99.40 428.20 104.82 421.89 C 107.33 418.36 110.88 415.79 113.68 412.52 C 114.60 411.65 115.52 410.78 116.45 409.94 C 115.98 408.93 115.52 407.93 115.06 406.94 C 114.17 404.82 113.45 402.64 112.78 400.44 C 111.27 398.24 111.04 395.49 109.77 393.18 C 106.27 385.86 104.14 377.90 100.14 370.83 C 90.80 370.71 81.36 371.63 72.11 370.04 C 67.34 370.31 62.81 368.76 58.71 366.44 C 56.44 363.93 52.93 362.65 51.09 359.82 C 50.89 337.23 51.03 314.61 51.02 292.01 C 52.10 284.72 50.75 277.28 52.01 270.06 C 52.32 265.06 53.42 260.02 55.80 255.59 C 56.74 253.51 59.01 252.71 60.78 251.51 C 64.18 250.88 67.48 249.65 70.94 249.30 C 76.43 249.30 81.87 248.45 87.38 248.62 C 92.34 247.56 97.76 248.05 102.38 245.40 C 105.02 239.62 106.79 233.49 109.70 227.83 C 111.38 224.33 112.71 220.69 114.31 217.16 C 115.10 215.40 115.83 213.62 116.56 211.83 C 113.00 208.27 109.56 204.59 105.86 201.18 C 102.86 196.60 98.22 193.51 95.06 189.07 C 91.65 185.57 88.49 181.17 89.06 176.00 C 88.65 169.02 94.24 164.19 97.87 158.95 C 101.30 155.98 103.56 151.97 106.97 148.99 C 119.46 136.60 131.83 124.08 144.33 111.69 C 147.48 109.81 149.76 106.83 152.76 104.72 C 156.85 101.13 161.63 98.07 167.22 97.72 C 174.00 97.72 178.61 102.94 183.49 106.83 C 189.07 112.81 195.59 117.78 201.07 123.87 C 201.68 124.43 202.29 124.98 202.91 125.53 C 205.69 124.51 208.36 123.21 211.13 122.14 C 214.29 120.57 217.65 119.47 220.76 117.78 C 225.84 115.19 231.48 113.92 236.50 111.22 C 241.52 99.01 238.22 85.30 241.92 72.78 C 242.30 70.51 243.10 68.33 244.85 66.75 Z" />
<path fill="#000" opacity="1.00" d=" M 261.88 217.65 C 279.36 210.84 298.55 207.77 317.15 211.07 C 327.72 213.57 338.67 215.96 347.96 221.87 C 353.81 224.40 358.76 228.49 363.79 232.32 C 365.98 234.04 367.51 236.53 370.04 237.84 C 372.54 240.75 375.28 243.72 376.38 247.48 C 377.25 253.82 376.43 260.97 371.82 265.77 C 367.61 270.17 360.91 270.59 355.27 269.49 C 350.56 268.13 346.12 265.87 342.04 263.17 C 332.59 254.81 320.38 250.18 308.09 248.04 C 303.02 247.97 297.95 247.94 292.89 248.05 C 286.74 249.38 280.48 250.68 274.91 253.75 C 271.12 255.26 267.67 257.44 264.35 259.76 C 260.73 262.94 256.52 265.70 254.06 269.96 C 250.37 273.28 248.28 277.81 245.81 282.00 C 245.69 282.47 245.44 283.43 245.32 283.91 C 241.71 289.25 240.74 295.83 239.14 301.96 C 238.84 307.78 238.98 313.64 239.11 319.47 C 240.60 322.40 240.45 325.81 241.61 328.85 C 243.24 332.99 244.89 337.13 247.11 341.00 C 248.06 342.68 249.06 344.33 250.17 345.91 C 251.53 347.67 252.76 349.54 254.40 351.07 C 254.52 351.43 254.76 352.15 254.88 352.51 C 259.98 359.40 263.15 369.05 259.33 377.26 C 258.66 378.29 258.01 379.34 257.39 380.41 C 254.62 383.05 251.04 384.33 247.49 385.53 C 244.27 385.44 240.96 385.92 237.81 385.18 C 232.03 382.73 227.42 378.23 223.64 373.32 C 219.55 368.23 215.81 362.83 212.82 357.01 C 212.21 355.69 211.53 354.41 210.71 353.22 C 207.73 346.76 205.81 339.89 204.06 333.01 C 201.50 322.28 200.59 311.19 201.48 300.19 C 203.18 288.32 205.60 276.31 211.31 265.65 C 213.11 261.64 215.67 258.05 217.69 254.16 C 218.45 253.46 219.11 252.67 219.70 251.83 C 224.02 245.22 230.00 240.04 235.47 234.43 C 237.69 232.24 240.44 230.70 242.82 228.68 C 243.93 227.85 245.03 226.99 246.13 226.14 C 251.27 223.09 256.50 220.24 261.88 217.65 Z" />
<path fill="#000" opacity="1.00" d=" M 428.10 274.66 C 432.47 272.70 437.26 271.99 442.02 272.20 C 448.64 271.29 455.32 271.79 461.98 271.67 C 471.98 271.76 482.00 271.50 492.01 271.79 C 496.93 272.80 502.02 271.60 506.90 272.80 C 509.33 273.29 511.69 274.11 514.14 274.54 C 516.65 276.90 519.54 279.05 521.06 282.24 C 522.00 284.40 522.55 286.70 523.10 288.98 C 523.91 294.26 523.88 299.63 524.18 304.95 C 525.02 308.33 524.93 311.82 525.16 315.28 C 526.50 315.75 527.84 316.24 529.17 316.75 C 536.18 318.81 542.89 321.73 549.86 323.88 C 553.01 322.87 554.70 319.30 557.63 317.69 C 559.06 316.39 560.42 315.01 561.76 313.61 C 566.07 310.36 569.98 306.33 575.10 304.28 C 578.40 303.53 581.94 303.62 585.21 304.52 C 588.19 306.23 591.16 308.03 593.76 310.29 C 597.26 312.38 599.41 316.07 602.98 318.05 C 611.50 326.57 620.04 335.07 628.53 343.62 C 634.46 349.05 639.34 355.45 644.36 361.69 C 645.96 364.84 648.10 368.18 647.49 371.89 C 645.99 378.11 641.18 382.65 637.11 387.28 C 633.79 391.98 629.00 395.35 625.46 399.85 C 629.28 408.41 632.28 417.34 636.23 425.81 C 646.20 427.05 656.64 427.16 666.76 428.56 C 670.28 429.73 673.43 432.28 674.88 435.75 C 678.85 446.42 676.86 457.92 677.88 469.01 C 678.53 480.68 677.27 492.31 677.49 503.98 C 677.69 511.08 676.61 518.26 674.27 524.97 C 672.96 526.48 671.67 528.01 670.42 529.57 C 668.49 530.30 666.50 530.85 664.50 531.30 C 663.03 531.65 661.55 531.86 660.08 532.11 C 652.11 532.80 644.13 533.34 636.22 534.56 C 633.54 538.72 632.02 543.51 630.32 548.14 C 628.69 551.17 627.49 554.43 625.81 557.45 C 625.01 558.49 625.13 559.76 625.24 561.00 C 628.36 563.01 630.70 565.94 633.23 568.61 C 637.38 573.85 642.78 578.12 645.93 584.14 C 647.79 587.47 647.51 591.66 645.89 595.03 C 644.85 597.18 643.74 599.31 642.35 601.27 C 640.82 602.79 639.60 604.57 638.27 606.25 C 635.19 608.53 633.34 611.96 630.56 614.53 C 622.03 623.02 613.54 631.57 604.99 640.04 C 601.09 642.71 598.31 646.64 594.36 649.24 C 593.67 649.91 592.99 650.58 592.32 651.27 C 587.89 654.85 582.24 657.03 576.51 655.79 C 570.33 652.51 565.50 647.35 560.28 642.81 C 557.18 640.01 554.00 637.23 551.54 633.84 C 545.72 635.40 540.73 639.21 534.88 640.74 C 533.76 640.99 532.77 641.50 531.91 642.25 C 529.40 643.01 527.15 644.58 525.84 646.89 C 524.37 649.03 525.14 651.71 524.88 654.12 C 523.64 660.76 524.25 667.72 521.71 674.12 C 520.92 677.71 518.42 680.46 516.42 683.42 C 510.75 686.30 504.09 685.34 497.99 686.39 C 489.68 686.88 481.31 685.99 473.02 686.94 C 459.34 687.10 445.65 686.91 431.96 687.03 C 430.31 687.07 428.66 686.91 427.08 686.45 C 425.36 682.84 422.03 680.35 420.25 676.78 C 416.38 666.68 418.30 655.53 417.25 644.99 C 413.57 644.27 410.34 642.25 406.82 641.04 C 401.58 639.62 396.81 636.92 391.95 634.57 C 387.16 636.00 384.89 641.09 380.90 643.82 C 377.91 646.27 375.25 649.11 372.06 651.30 C 371.17 651.95 370.30 652.64 369.47 653.37 C 364.98 656.82 358.99 656.31 354.15 653.88 C 351.94 652.48 349.99 650.73 347.82 649.28 C 343.33 645.45 338.62 641.83 334.60 637.49 C 326.12 629.10 317.65 620.69 309.32 612.16 C 307.24 608.80 303.89 606.52 301.72 603.23 C 300.30 601.49 299.10 599.59 297.71 597.85 C 294.42 593.80 294.28 588.27 295.44 583.40 C 296.38 582.37 297.07 581.16 297.64 579.90 C 299.90 576.76 302.37 573.78 304.70 570.69 C 305.36 569.98 306.03 569.28 306.70 568.58 C 307.56 567.77 308.39 566.94 309.23 566.12 C 310.84 563.62 313.04 561.61 315.20 559.62 C 314.50 556.83 313.57 554.09 312.24 551.54 C 310.54 546.73 308.86 541.91 307.50 536.99 C 307.17 535.73 306.67 534.00 305.06 534.05 C 301.95 533.91 298.84 533.93 295.81 533.17 C 290.57 532.85 285.29 532.94 280.09 532.13 C 274.28 531.38 268.79 528.28 265.90 523.07 C 264.04 518.97 263.82 514.42 263.25 510.03 C 263.27 486.13 263.20 462.24 263.28 438.34 C 268.48 434.24 273.00 428.44 280.01 427.57 C 288.63 426.00 297.54 427.85 306.20 426.36 C 309.18 417.22 311.70 407.86 315.69 399.09 C 309.57 392.53 303.61 385.87 297.86 378.97 C 296.54 376.49 294.79 374.02 294.81 371.10 C 294.40 365.14 298.97 360.63 302.19 356.15 C 304.87 353.10 307.46 349.96 310.23 347.00 C 311.88 345.45 313.48 343.85 315.06 342.23 C 318.83 338.52 322.48 334.70 326.27 331.02 C 330.46 326.67 334.95 322.62 339.02 318.15 C 340.05 316.98 341.34 316.09 342.67 315.28 C 345.97 311.68 350.05 308.90 354.06 306.14 C 358.82 302.82 365.60 302.96 370.02 306.82 C 371.12 308.10 372.51 309.08 374.02 309.85 C 377.25 313.88 381.86 316.43 385.12 320.43 C 386.89 322.26 388.74 324.02 390.81 325.52 C 395.45 322.84 400.69 321.50 405.52 319.22 C 409.56 318.18 413.23 316.10 417.27 315.10 C 418.53 304.77 416.63 294.04 420.09 284.02 C 421.85 280.18 424.49 276.89 428.10 274.66 M 457.30 310.71 C 456.50 318.42 458.34 326.67 454.78 333.88 C 452.84 339.44 447.93 343.20 442.82 345.71 C 440.95 346.63 438.97 347.31 437.10 348.25 C 431.33 349.89 425.60 351.76 420.14 354.26 C 414.63 356.55 409.18 359.03 403.85 361.75 C 400.67 363.49 397.23 364.64 393.97 366.22 C 391.12 366.90 388.15 368.64 385.17 367.64 C 379.80 365.59 375.49 361.68 371.02 358.22 C 368.12 355.34 365.23 352.38 361.78 350.16 C 360.23 350.54 359.40 352.18 358.24 353.18 C 352.31 358.68 346.98 364.84 340.88 370.14 C 343.51 374.68 347.61 378.03 350.81 382.13 C 353.87 385.49 356.43 389.34 358.36 393.47 C 359.91 396.62 357.84 399.91 357.36 403.07 C 354.76 408.26 352.48 413.72 349.72 418.89 C 346.22 426.84 342.64 434.80 340.00 443.10 C 338.44 449.31 335.52 455.43 330.96 460.01 C 328.12 462.95 324.10 464.10 320.37 465.46 C 314.20 466.40 307.93 465.89 301.72 466.24 C 301.66 475.62 302.23 485.00 301.81 494.38 C 310.19 495.12 319.15 492.93 326.97 496.90 C 329.52 497.93 331.29 500.11 333.29 501.92 C 335.97 505.67 337.61 509.97 339.36 514.19 C 342.44 523.47 346.91 532.18 350.57 541.23 C 353.68 548.40 357.34 555.47 358.81 563.22 C 359.31 565.28 358.12 567.23 357.50 569.14 C 356.34 570.13 355.79 571.55 355.20 572.90 C 351.86 576.72 348.63 580.64 345.18 584.37 C 343.69 586.18 341.88 587.84 341.03 590.09 C 344.29 592.77 346.97 596.05 350.11 598.86 C 353.27 602.29 356.95 605.28 359.45 609.27 C 362.63 608.50 364.15 605.34 366.79 603.71 C 371.21 599.88 375.62 595.79 381.08 593.51 C 384.99 592.67 389.06 592.78 393.02 593.17 C 399.66 594.74 405.41 598.56 411.57 601.31 C 415.15 603.32 419.05 604.63 422.72 606.48 C 430.47 609.27 438.54 611.25 445.95 614.94 C 446.94 615.57 447.94 616.19 448.95 616.82 C 449.97 617.90 451.01 618.96 452.05 620.02 C 452.74 621.03 453.43 622.05 454.13 623.07 C 457.91 631.53 456.92 640.92 457.13 649.94 C 466.57 649.94 476.03 650.24 485.46 649.77 C 485.61 643.86 485.50 637.95 485.53 632.04 C 485.35 628.26 487.07 624.79 488.61 621.46 C 490.63 617.39 495.08 615.54 498.97 613.73 C 506.78 610.40 515.26 608.75 522.83 604.88 C 526.25 603.87 529.20 601.78 532.45 600.39 C 539.17 597.34 545.57 592.69 553.23 592.68 C 556.73 592.70 560.75 592.84 563.47 595.37 C 569.67 599.71 574.51 605.58 580.02 610.70 C 587.37 603.63 594.69 596.49 601.63 589.01 C 596.68 583.72 591.26 578.88 586.75 573.20 C 582.75 568.49 583.70 561.75 584.50 556.12 C 589.24 544.50 596.10 533.82 599.92 521.80 C 602.34 514.60 604.14 506.94 608.77 500.76 C 611.15 497.34 615.41 496.30 619.09 494.86 C 626.31 494.11 633.61 494.68 640.86 494.28 C 641.14 484.90 640.98 475.51 640.95 466.13 C 631.25 465.81 620.63 467.31 612.04 461.79 C 605.84 457.67 603.80 450.15 601.41 443.55 C 599.45 438.46 598.56 432.94 595.76 428.20 C 592.67 419.89 587.42 412.51 584.74 404.03 C 583.60 400.78 583.97 397.27 583.97 393.89 C 583.82 389.19 586.99 385.42 589.70 381.93 C 591.54 379.33 593.77 377.05 595.69 374.51 C 597.20 372.46 599.85 371.17 600.21 368.43 C 592.98 363.23 587.53 355.98 580.81 350.18 C 578.20 351.13 576.33 353.51 574.16 355.20 C 573.47 355.85 572.78 356.51 572.10 357.16 C 570.48 358.41 568.99 359.82 567.54 361.24 C 566.17 362.05 564.95 363.07 563.89 364.24 C 562.50 364.76 561.16 365.40 560.09 366.45 C 558.13 367.16 556.14 368.37 553.98 367.88 C 547.86 366.80 542.23 364.00 536.69 361.30 C 526.62 356.87 516.71 351.89 506.07 348.94 C 500.50 347.29 495.37 344.53 490.76 341.03 C 488.27 337.04 485.95 332.73 485.55 327.97 C 485.49 322.39 485.54 316.80 485.57 311.22 C 481.76 310.39 477.87 311.12 474.02 310.97 C 468.44 310.84 462.87 310.66 457.30 310.71 Z" />
<path fill="#000" opacity="1.00" d=" M 462.03 395.52 C 469.26 394.29 476.57 395.32 483.79 396.05 C 492.58 397.09 501.00 400.09 509.03 403.72 C 514.75 406.91 520.32 410.44 525.36 414.66 C 526.18 415.49 527.11 416.21 528.08 416.90 C 539.12 426.85 546.94 439.96 551.60 454.00 C 555.78 469.15 555.99 485.29 553.02 500.69 C 551.88 505.97 550.06 511.06 547.77 515.95 C 545.41 520.75 543.16 525.63 539.81 529.84 C 536.34 534.93 531.85 539.17 527.49 543.47 C 525.50 545.28 522.96 546.40 521.14 548.42 C 518.73 549.86 516.50 551.58 514.16 553.13 C 513.04 553.71 511.93 554.30 510.81 554.87 C 509.50 555.48 508.20 556.12 506.91 556.76 C 502.41 558.91 497.92 561.25 492.91 561.93 C 487.30 562.73 481.74 564.24 476.03 563.91 C 470.08 563.65 464.03 564.52 458.17 563.14 C 454.96 562.74 451.74 562.42 448.60 561.69 C 444.30 560.52 440.19 558.91 436.08 557.24 C 432.19 554.84 427.61 553.64 424.02 550.74 C 421.68 549.16 419.39 547.54 417.24 545.73 C 412.07 541.90 407.57 537.25 403.64 532.19 C 403.14 531.30 402.53 530.51 401.73 529.89 C 400.81 528.30 400.01 526.63 398.76 525.29 C 397.13 523.03 396.23 520.36 394.75 518.02 C 386.18 502.57 384.81 484.10 386.87 466.85 C 387.71 458.13 390.65 449.74 394.76 442.04 C 396.11 439.67 397.37 437.26 398.77 434.92 C 406.77 422.71 417.44 412.29 430.13 405.05 C 440.05 400.03 450.67 395.42 462.03 395.52 M 453.82 435.86 C 451.80 436.59 449.81 437.42 447.88 438.37 C 439.97 443.04 433.78 450.11 429.08 457.94 C 428.31 459.58 427.57 461.23 426.90 462.91 C 425.37 467.80 424.31 472.80 423.91 477.92 C 424.02 489.87 428.08 501.93 436.15 510.88 C 437.68 512.64 439.32 514.32 441.05 515.90 C 442.00 516.58 442.96 517.27 443.92 517.97 C 445.97 519.78 448.49 520.90 450.85 522.25 C 453.24 523.21 455.64 524.19 458.13 524.90 C 471.64 529.06 486.96 526.32 498.50 518.23 C 499.69 517.17 500.92 516.16 502.21 515.22 C 503.97 513.68 505.63 512.01 506.91 510.04 C 508.10 508.85 509.11 507.50 509.87 506.00 C 516.27 496.21 518.79 484.14 517.34 472.58 C 515.53 465.67 513.57 458.63 509.35 452.74 C 506.10 448.34 501.98 444.73 497.92 441.12 C 496.38 439.98 494.71 439.04 493.05 438.11 C 489.05 435.25 483.72 435.88 479.49 434.07 C 470.89 434.06 462.15 433.21 453.82 435.86 Z" />
</g>
</svg>
