<?xml version="1.0" encoding="UTF-8" ?>
<!DOCTYPE svg PUBLIC "-//W3C//DTD SVG 1.1//EN" "http://www.w3.org/Graphics/SVG/1.1/DTD/svg11.dtd">
<svg width="768pt" height="768pt" viewBox="0 0 768 768" version="1.1" xmlns="http://www.w3.org/2000/svg">
<g id="#000">
</g>
<g id="#000">
<path fill="#000" opacity="1.00" d=" M 626.46 85.34 C 629.32 85.41 632.31 84.95 635.04 86.09 C 635.83 86.11 637.41 86.15 638.20 86.17 C 642.47 84.55 647.21 85.45 651.66 85.72 C 652.24 94.54 651.95 103.40 651.84 112.24 C 648.57 108.84 645.03 105.73 641.95 102.17 C 633.10 109.92 623.34 116.70 614.93 124.95 C 612.51 126.05 610.97 128.25 608.92 129.83 C 606.94 130.85 605.50 132.56 604.03 134.16 C 601.56 135.17 599.93 137.32 598.19 139.22 C 593.75 142.36 590.02 146.39 585.77 149.78 C 580.43 154.17 575.09 158.54 570.00 163.18 C 566.73 164.93 564.75 168.34 561.33 169.85 C 560.86 172.57 560.91 175.34 560.95 178.09 C 559.99 180.66 559.29 183.45 557.08 185.28 C 555.74 185.88 554.43 186.56 553.17 187.31 C 549.09 188.23 544.73 188.30 540.98 186.19 C 539.65 184.52 538.07 183.10 536.62 181.56 C 535.40 179.47 535.28 177.01 535.38 174.66 C 535.00 174.21 534.24 173.31 533.86 172.86 C 532.91 172.70 531.97 172.54 531.04 172.37 C 530.00 171.48 528.76 170.88 527.56 170.26 C 522.77 168.85 518.79 165.46 513.84 164.40 C 511.19 161.92 507.40 161.54 504.39 159.65 C 500.78 157.43 496.59 156.47 492.97 154.28 C 490.09 152.59 486.84 151.71 483.85 150.24 C 482.06 149.13 480.18 148.19 478.23 147.43 C 472.30 145.30 467.16 141.42 461.14 139.53 C 459.07 138.88 457.35 137.52 455.66 136.24 C 453.14 135.56 450.73 134.57 448.19 134.00 C 446.39 135.54 444.75 137.88 442.11 137.78 C 438.35 137.90 434.44 138.22 430.93 136.59 C 429.95 137.36 429.07 138.24 428.17 139.10 C 422.33 143.50 417.39 149.15 411.48 153.53 C 408.72 156.81 404.86 158.85 402.04 162.06 C 399.67 164.74 396.33 166.33 394.09 169.16 C 392.11 170.06 390.63 171.67 389.16 173.21 C 386.57 174.45 385.15 177.09 382.82 178.65 C 380.13 180.58 377.87 183.02 375.68 185.49 C 375.89 188.01 375.64 190.55 374.59 192.88 C 374.16 193.62 373.75 194.36 373.36 195.12 C 371.91 197.89 368.88 199.23 366.14 200.39 C 362.86 200.50 359.60 200.24 356.41 199.46 C 351.07 196.77 348.56 190.42 349.29 184.68 C 350.00 183.23 350.45 181.67 350.87 180.12 C 347.77 176.46 344.78 172.73 341.91 168.90 C 340.22 168.58 338.48 168.73 336.78 168.65 C 334.33 172.92 332.51 177.52 330.02 181.78 C 326.75 190.36 321.79 198.18 318.40 206.72 C 314.25 212.59 312.39 219.73 308.73 225.89 C 308.51 226.40 308.05 227.42 307.82 227.93 C 305.13 233.78 302.39 239.58 299.02 245.07 C 297.86 246.95 298.88 248.84 300.66 249.75 C 303.05 255.32 301.60 261.55 298.15 266.32 C 296.16 267.40 294.13 268.42 291.91 268.89 C 289.39 269.84 286.62 269.68 284.08 268.93 C 282.96 268.38 281.84 267.83 280.72 267.28 C 279.21 264.89 276.87 262.85 276.23 260.01 C 276.06 256.30 275.52 252.11 277.92 248.94 C 280.27 244.75 285.42 243.49 289.83 242.78 C 291.63 242.31 291.25 239.95 291.76 238.56 C 294.24 235.50 295.69 231.81 297.19 228.21 C 299.48 222.98 302.21 217.96 304.71 212.82 C 307.08 206.31 311.56 200.79 313.63 194.15 C 314.19 192.67 315.03 191.32 315.80 189.94 C 318.17 184.97 320.81 180.13 322.69 174.94 C 323.73 174.15 324.26 172.95 324.88 171.84 C 325.66 170.58 326.27 169.23 326.81 167.85 C 327.11 166.95 327.40 166.05 327.68 165.14 C 323.72 160.65 324.40 153.69 326.41 148.46 C 330.55 143.26 339.01 140.94 344.64 144.93 C 345.04 145.07 345.84 145.34 346.24 145.47 C 346.97 147.12 347.92 148.67 349.45 149.71 C 351.28 153.76 351.47 159.42 348.48 163.00 C 349.33 163.64 350.16 164.32 350.94 165.07 C 352.97 167.08 354.69 169.38 355.98 171.94 C 357.02 172.89 357.91 174.07 359.16 174.77 C 362.80 175.31 366.83 174.38 370.10 176.53 C 371.41 175.78 372.72 175.03 374.02 174.25 C 375.57 172.37 377.48 170.82 379.07 168.97 C 382.36 167.36 384.28 164.06 387.35 162.13 C 390.26 160.18 392.16 157.04 395.26 155.33 C 397.61 152.88 400.11 150.59 402.87 148.61 C 404.66 146.51 406.61 144.55 409.03 143.17 C 410.40 141.56 411.94 140.11 413.53 138.72 C 415.21 137.72 416.71 136.45 418.01 134.98 C 420.35 132.32 423.65 130.75 425.87 127.95 C 425.93 124.64 425.20 120.95 427.17 118.02 C 428.36 115.97 430.41 114.68 432.26 113.28 C 436.44 111.62 442.09 111.13 445.73 114.27 C 446.91 115.14 448.09 116.01 449.29 116.88 C 450.53 119.24 451.18 121.80 451.27 124.47 C 457.06 126.52 462.25 129.93 468.00 132.09 C 468.93 132.47 469.86 132.85 470.79 133.24 C 475.17 136.25 480.69 136.95 484.84 140.39 C 489.67 141.23 493.50 144.36 497.88 146.28 C 507.78 150.59 517.39 155.57 527.34 159.76 C 530.92 162.38 535.50 162.99 539.11 165.60 C 542.23 162.17 547.16 161.80 551.50 162.08 C 552.76 162.35 554.23 163.21 555.50 162.44 C 557.58 160.48 560.08 159.02 561.98 156.86 C 563.41 155.97 564.82 155.03 565.93 153.73 C 567.39 152.99 568.75 152.06 569.66 150.66 C 576.92 144.99 584.01 138.95 590.90 132.79 C 592.78 131.79 594.40 130.40 595.78 128.78 C 605.45 119.66 616.12 111.75 625.88 102.74 C 627.87 101.79 629.31 100.14 630.74 98.52 C 632.20 97.46 633.96 96.78 634.92 95.14 C 633.53 93.83 632.16 92.53 630.77 91.24 C 629.48 89.74 628.06 88.37 626.49 87.19 C 626.48 86.73 626.47 85.80 626.46 85.34 Z" />
<path fill="#000" opacity="1.00" d=" M 410.22 183.97 C 414.80 184.05 419.40 183.79 423.96 184.36 C 428.31 184.18 432.67 183.71 437.04 184.08 C 442.36 184.90 447.69 183.44 453.04 184.07 C 458.11 184.85 463.19 183.60 468.30 184.00 C 468.34 262.58 468.20 341.15 468.37 419.72 C 449.00 419.94 429.63 419.83 410.27 419.77 C 410.16 341.17 410.27 262.57 410.22 183.97 Z" />
<path fill="#000" opacity="1.00" d=" M 532.13 250.18 C 536.01 249.34 539.99 249.60 543.92 249.09 C 549.98 248.55 555.99 249.76 562.05 249.55 C 570.47 250.47 578.75 252.42 586.82 255.05 C 589.39 255.69 591.76 256.88 594.10 258.11 C 596.59 258.57 598.90 259.60 601.16 260.69 C 605.42 263.19 609.77 265.53 614.06 267.98 C 615.37 269.70 617.37 270.58 619.19 271.65 C 620.12 272.39 621.09 273.09 622.07 273.79 C 628.72 279.77 635.73 285.66 641.11 292.88 C 641.84 293.61 642.59 294.35 643.33 295.09 C 646.78 300.79 651.09 306.03 653.88 312.09 C 655.11 314.88 656.94 317.39 657.88 320.31 C 659.48 325.55 662.39 330.32 663.22 335.80 C 664.63 342.50 666.66 349.14 666.83 356.04 C 668.08 359.56 667.30 363.36 667.50 367.02 C 667.95 377.86 665.47 388.49 663.25 399.02 C 662.87 400.08 662.51 401.14 662.16 402.21 C 661.16 405.21 660.22 408.24 659.10 411.21 C 658.69 412.09 658.29 412.98 657.90 413.88 C 656.89 417.33 654.58 420.22 653.39 423.62 C 651.67 425.54 650.52 427.85 649.33 430.12 C 646.69 433.97 643.82 437.66 641.13 441.47 C 637.50 446.67 632.53 450.65 628.28 455.31 C 627.49 456.27 626.36 456.82 625.32 457.44 C 622.49 460.29 618.87 462.19 615.85 464.84 C 609.99 468.96 603.55 472.06 597.15 475.24 C 591.99 478.08 586.12 478.99 580.70 481.19 C 571.95 483.17 563.02 484.96 554.01 484.87 C 551.77 485.89 549.27 485.94 547.04 484.89 C 536.95 485.38 526.98 483.43 517.25 480.96 C 513.17 479.79 509.19 478.29 505.19 476.87 C 502.47 475.55 499.67 474.42 496.86 473.30 C 493.60 470.65 489.18 469.85 486.12 466.92 C 484.42 465.46 482.36 464.54 480.42 463.47 C 473.33 458.05 466.74 451.99 460.72 445.41 C 458.65 442.36 455.55 440.06 454.07 436.63 C 449.48 435.48 444.69 436.16 440.01 436.00 C 381.35 435.97 322.68 436.08 264.01 435.94 C 264.03 433.13 264.02 430.31 263.97 427.51 C 332.21 427.47 400.45 427.58 468.69 427.45 C 468.90 427.91 469.32 428.82 469.52 429.28 C 472.59 432.30 474.89 436.00 478.19 438.81 C 481.31 442.02 484.99 444.61 488.21 447.71 C 491.42 449.43 494.11 451.92 497.24 453.74 C 499.87 455.18 502.53 456.58 505.24 457.87 C 507.78 459.15 510.45 460.16 513.02 461.39 C 518.72 463.00 524.17 465.58 530.10 466.28 C 538.36 467.65 546.70 468.54 555.09 468.15 C 557.92 466.97 561.02 467.44 564.00 467.22 C 574.09 464.99 584.45 462.75 593.64 457.80 C 596.74 456.75 599.12 454.39 602.13 453.20 C 606.91 449.70 612.15 446.75 616.24 442.38 C 617.65 440.66 619.97 439.99 621.24 438.15 C 622.59 436.22 624.08 434.39 625.81 432.78 C 626.94 431.64 627.94 430.38 628.87 429.06 C 631.42 425.81 633.81 422.43 635.75 418.76 C 639.04 414.19 640.74 408.68 643.72 403.89 C 638.48 401.90 633.42 399.50 628.05 397.87 C 625.54 396.56 622.80 395.83 620.18 394.81 C 608.84 390.52 597.42 386.34 586.12 381.87 C 583.66 381.12 581.27 380.17 578.89 379.21 C 577.87 378.78 576.83 378.40 575.79 378.07 C 567.20 374.89 558.71 371.44 550.08 368.38 C 550.06 353.26 550.08 338.15 550.08 323.05 C 550.03 319.11 550.43 315.11 549.38 311.27 C 548.42 307.88 550.60 304.57 549.80 301.20 C 548.87 296.50 548.85 291.54 550.05 286.89 C 548.82 282.40 549.05 277.66 549.43 273.08 C 550.26 270.78 549.65 268.41 549.16 266.12 C 542.69 265.33 536.41 267.01 530.07 267.96 C 525.68 269.61 520.85 269.63 516.57 271.58 C 514.66 272.37 512.84 273.38 510.81 273.79 C 508.05 274.96 505.49 276.53 502.81 277.85 C 500.58 278.68 498.41 279.69 496.57 281.22 C 493.96 282.72 491.44 284.37 489.10 286.26 C 487.60 287.03 486.30 288.09 485.17 289.32 C 484.03 290.11 482.94 290.95 481.90 291.84 C 480.13 294.07 477.96 295.92 475.67 297.57 C 474.80 290.20 475.26 282.64 475.44 275.22 C 478.47 271.97 482.26 269.38 486.16 267.28 C 492.27 263.86 498.12 259.78 504.86 257.68 C 507.48 256.78 509.91 255.43 512.52 254.50 C 519.15 253.47 525.39 250.62 532.13 250.18 Z" />
<path fill="#000" opacity="1.00" d=" M 337.20 274.92 C 343.16 274.60 349.10 275.90 355.02 275.01 C 358.74 274.81 362.47 275.10 366.18 275.44 C 371.47 274.77 376.83 274.86 382.13 275.39 C 386.46 274.96 390.80 274.87 395.15 275.07 C 394.78 323.30 395.14 371.54 394.96 419.77 C 375.69 419.88 356.42 419.85 337.15 419.78 C 337.15 371.50 337.04 323.20 337.20 274.92 Z" />
<path fill="#000" opacity="1.00" d=" M 263.97 313.99 C 283.27 313.91 302.57 314.12 321.87 313.91 C 322.02 349.20 322.01 384.51 321.86 419.80 C 302.58 419.85 283.30 419.84 264.02 419.81 C 263.98 384.54 264.08 349.26 263.97 313.99 Z" />
<path fill="#000" opacity="1.00" d=" M 107.89 410.70 C 110.58 410.45 113.27 409.98 115.99 409.99 C 145.98 410.02 175.98 409.98 205.98 410.01 C 210.32 409.98 214.67 410.93 218.14 413.66 C 219.48 415.13 220.90 416.52 222.38 417.85 C 223.31 419.92 224.31 421.96 225.11 424.10 C 225.64 429.11 225.28 434.17 225.39 439.21 C 222.66 439.15 219.93 439.14 217.20 439.28 C 217.06 434.27 217.71 429.14 216.23 424.27 C 214.85 421.16 211.67 418.59 208.14 418.74 C 176.08 418.78 144.01 418.76 111.95 418.75 C 107.20 418.79 103.47 423.31 103.80 427.96 C 103.83 504.34 103.76 580.71 103.83 657.09 C 103.85 662.75 109.90 666.26 115.05 666.01 C 145.37 665.99 175.69 665.99 206.01 666.01 C 210.23 666.11 215.00 663.91 216.23 659.58 C 218.16 653.11 216.71 646.25 217.27 639.62 C 219.98 639.63 222.69 639.65 225.40 639.69 C 224.87 647.63 226.72 655.96 223.82 663.59 C 222.50 665.99 221.00 668.30 219.01 670.20 C 214.26 673.98 208.10 674.36 202.27 674.02 C 201.71 676.06 201.34 678.29 200.07 680.04 C 196.19 682.33 191.32 682.47 187.59 679.80 C 186.55 678.03 186.11 676.02 185.75 674.03 C 168.55 674.05 151.35 673.82 134.16 674.10 C 134.20 674.87 134.29 676.42 134.33 677.20 C 131.99 682.98 122.94 683.58 119.63 678.44 C 118.68 677.17 119.18 675.51 119.12 674.08 C 113.19 674.18 106.70 674.47 101.96 670.24 C 99.93 667.93 97.44 665.84 96.39 662.86 C 95.24 660.03 95.61 656.95 95.57 653.99 C 95.61 577.67 95.54 501.36 95.61 425.05 C 96.56 418.42 101.53 412.81 107.89 410.70 Z" />
<path fill="#000" opacity="1.00" d=" M 107.41 422.49 C 111.02 419.58 115.70 420.54 119.98 420.44 C 149.35 420.45 178.73 420.42 208.11 420.45 C 211.33 420.12 214.06 423.13 214.70 426.06 C 214.91 430.45 214.69 434.85 214.77 439.25 C 210.61 439.12 206.45 439.14 202.30 439.19 C 202.31 438.58 202.33 437.37 202.34 436.76 C 201.10 433.87 197.98 432.81 195.03 432.95 C 171.30 432.96 147.57 432.86 123.84 433.00 C 120.77 432.85 119.18 435.70 117.68 437.88 C 118.41 439.32 118.97 440.86 119.89 442.20 C 121.80 443.90 124.57 443.97 126.99 444.01 C 144.97 443.91 162.94 444.07 180.92 443.93 C 180.78 444.44 180.49 445.45 180.35 445.96 C 177.52 448.51 177.05 452.43 175.75 455.82 C 159.17 455.68 142.59 455.82 126.00 455.74 C 124.01 455.67 122.03 455.92 120.10 456.38 C 119.33 457.89 118.58 459.42 117.82 460.95 C 118.54 462.36 119.24 463.79 119.90 465.24 C 121.90 465.71 123.94 466.11 126.01 466.06 C 142.68 466.00 159.34 466.05 176.00 466.03 C 176.00 469.95 176.00 473.88 176.00 477.80 C 162.34 477.80 148.68 477.80 135.02 477.80 C 130.09 477.89 125.05 477.29 120.27 478.80 C 119.32 480.39 118.53 482.06 117.81 483.77 C 119.06 486.11 120.94 488.97 123.91 488.98 C 141.27 489.03 158.64 488.98 176.00 489.00 C 176.05 534.17 175.90 579.34 176.07 624.51 C 176.90 626.00 177.48 627.61 177.85 629.28 C 180.20 634.66 185.39 638.49 191.09 639.59 C 198.98 639.75 206.88 639.53 214.78 639.69 C 214.72 646.12 214.88 652.56 214.73 658.99 C 213.28 661.81 210.38 664.21 207.03 664.00 C 177.70 664.02 148.37 663.99 119.04 664.01 C 115.49 663.97 111.71 664.49 108.50 662.61 C 107.24 660.90 105.18 659.37 105.49 657.01 C 105.52 580.63 105.50 504.26 105.50 427.88 C 105.31 425.86 106.53 424.19 107.41 422.49 M 152.42 591.53 C 151.03 594.44 153.04 597.26 154.17 599.86 C 156.93 601.31 160.10 602.90 163.21 601.40 C 166.76 600.35 168.00 596.71 168.81 593.50 C 168.16 592.08 167.60 590.64 167.08 589.19 C 166.34 588.42 165.62 587.65 164.90 586.88 C 162.65 585.93 160.22 585.70 157.80 585.71 C 155.39 586.96 153.03 588.71 152.42 591.53 M 157.82 615.73 C 157.86 618.59 157.86 621.46 157.81 624.34 C 158.20 625.17 158.59 626.01 158.97 626.87 C 159.81 626.86 161.49 626.85 162.33 626.84 C 162.42 622.48 162.41 618.11 162.37 613.75 C 161.49 613.71 159.74 613.63 158.87 613.59 C 158.61 614.12 158.09 615.19 157.82 615.73 Z" />
<path fill="#000" opacity="1.00" d=" M 183.85 452.89 C 184.93 448.94 188.86 445.94 192.98 446.07 C 279.03 446.09 365.08 446.08 451.13 446.08 C 455.83 446.00 460.33 450.21 460.03 455.03 C 459.97 511.38 460.02 567.74 460.00 624.10 C 460.32 626.57 458.70 628.49 457.35 630.35 C 455.09 631.55 452.76 633.10 450.08 632.89 C 363.67 632.87 277.27 632.85 190.87 632.89 C 188.53 631.72 186.34 630.27 184.62 628.29 C 184.20 626.96 183.76 625.63 183.17 624.38 C 182.93 569.91 183.15 515.43 183.06 460.95 C 183.13 458.25 182.69 455.42 183.85 452.89 M 201.88 464.81 C 201.92 514.50 202.07 564.20 201.80 613.89 C 226.88 614.17 251.96 613.93 277.04 614.01 C 331.81 613.95 386.59 614.13 441.36 613.92 C 441.17 564.24 441.30 514.56 441.29 464.88 C 412.18 465.04 383.06 464.89 353.94 464.95 C 303.25 464.85 252.56 465.13 201.88 464.81 M 318.54 620.53 C 318.24 621.78 317.94 623.03 317.63 624.29 C 318.64 625.92 319.69 628.18 322.05 627.47 C 324.35 627.78 325.31 625.48 326.52 624.01 C 325.53 622.50 324.83 620.71 323.36 619.60 C 321.72 618.53 320.08 620.02 318.54 620.53 Z" />
<path fill="#000" opacity="1.00" d=" M 317.13 499.17 C 323.16 494.74 331.39 494.02 337.98 497.68 C 339.00 498.40 340.07 499.06 341.16 499.68 C 342.80 501.08 343.86 502.97 345.32 504.54 C 349.58 511.78 348.28 521.00 343.22 527.48 C 340.89 529.31 338.63 531.36 335.73 532.23 C 335.82 530.10 334.43 526.90 337.30 526.11 C 345.01 521.34 345.34 508.41 337.97 503.20 C 334.95 500.54 330.79 499.61 326.86 499.77 C 318.42 501.15 311.62 510.78 314.96 519.09 C 316.46 522.11 318.08 525.81 321.66 526.73 C 321.93 528.30 322.18 529.88 322.42 531.47 C 320.63 531.16 318.80 530.84 317.28 529.78 C 314.32 526.73 310.93 523.54 310.27 519.12 C 309.87 514.91 309.51 510.34 311.38 506.41 C 313.02 503.81 314.50 500.92 317.13 499.17 Z" />
<path fill="#000" opacity="1.00" d=" M 322.29 505.53 C 326.78 503.19 333.36 503.01 336.74 507.33 C 338.21 508.79 339.05 510.81 339.02 512.90 C 339.17 516.23 339.32 520.39 335.86 522.20 C 335.62 520.23 335.49 518.24 334.64 516.43 C 334.65 515.07 334.66 513.71 334.68 512.36 C 334.19 511.54 333.70 510.74 333.22 509.93 C 332.44 509.40 331.67 508.86 330.90 508.32 C 329.57 508.27 328.24 508.23 326.91 508.20 C 325.30 509.45 323.45 510.56 322.87 512.66 C 322.44 515.71 323.89 520.44 320.76 522.21 C 316.89 517.18 317.33 509.67 322.29 505.53 Z" />
<path fill="#000" opacity="1.00" d=" M 325.66 514.40 C 327.78 514.07 329.94 514.03 332.05 514.52 C 333.05 516.01 334.94 517.06 335.25 518.92 C 335.25 529.62 334.67 540.35 335.13 551.08 C 336.34 549.52 337.68 548.07 338.91 546.54 C 341.71 545.80 344.64 545.84 347.44 546.58 C 349.66 549.70 349.72 554.27 347.46 557.40 C 345.45 559.58 343.76 562.03 342.27 564.60 C 340.77 566.28 339.49 568.14 338.21 570.00 C 337.16 571.36 336.22 572.82 335.32 574.30 C 333.01 576.06 332.99 579.21 331.31 581.38 C 326.50 584.73 320.45 583.67 314.96 583.81 C 310.82 583.70 306.43 584.42 302.59 582.47 C 300.07 581.02 299.21 578.13 298.43 575.53 C 296.50 568.13 293.32 560.81 294.05 552.99 C 294.51 548.32 292.82 543.08 295.57 538.91 C 297.52 536.13 301.47 536.54 304.28 537.55 C 305.19 536.51 306.10 535.46 306.98 534.40 C 309.26 534.24 311.55 534.44 313.84 534.48 C 314.80 533.41 315.77 532.34 316.88 531.41 C 318.87 531.38 320.85 531.52 322.83 531.81 C 322.19 526.80 322.46 521.74 323.25 516.77 C 324.06 515.99 324.86 515.20 325.66 514.40 Z" />
<path fill="#000" opacity="1.00" d=" M 288.77 637.53 C 309.50 637.23 330.24 637.51 350.98 637.39 C 352.61 637.17 354.10 637.79 355.40 638.72 C 358.48 646.29 356.31 654.66 357.12 662.60 C 357.41 662.55 357.99 662.45 358.28 662.40 C 359.22 664.02 361.17 664.37 362.71 665.25 C 365.49 666.71 368.08 668.52 370.96 669.81 C 373.16 671.39 375.68 672.42 378.06 673.67 C 378.64 673.97 379.80 674.57 380.38 674.87 C 381.26 677.06 381.07 679.40 380.40 681.63 C 365.31 682.33 350.17 681.74 335.06 681.94 C 311.75 681.90 288.43 682.02 265.13 681.88 C 261.64 681.54 263.30 677.06 263.22 674.74 C 271.38 671.21 278.72 665.99 286.80 662.28 C 287.27 655.50 286.81 648.70 287.05 641.92 C 287.03 640.28 288.17 638.97 288.77 637.53 Z" />
</g>
</svg>
