<?xml version="1.0" encoding="UTF-8" ?>
<!DOCTYPE svg PUBLIC "-//W3C//DTD SVG 1.1//EN" "http://www.w3.org/Graphics/SVG/1.1/DTD/svg11.dtd">
<svg width="615pt" height="540pt" viewBox="0 0 615 540" version="1.1" xmlns="http://www.w3.org/2000/svg">
<g id="#000">
</g>
<g id="#000">
<path fill="#000" opacity="1.00" d=" M 73.45 67.60 C 228.31 67.36 383.18 67.59 538.04 67.48 C 542.68 67.26 547.61 68.78 550.37 72.74 C 553.45 76.04 553.25 80.82 553.27 85.02 C 553.13 93.34 553.49 101.68 553.14 110.01 C 552.66 117.04 545.87 122.35 539.04 122.28 C 384.69 122.24 230.33 122.28 75.98 122.26 C 70.89 122.60 65.73 120.17 62.86 115.95 C 60.54 112.43 60.70 108.04 60.73 104.01 C 60.85 96.02 60.52 88.03 60.84 80.05 C 61.08 73.51 66.93 67.78 73.45 67.60 Z" />
<path fill="#000" opacity="1.00" d=" M 88.10 149.43 C 193.39 149.59 298.69 149.44 403.99 149.50 C 444.61 149.43 485.24 149.62 525.86 149.40 C 526.26 199.94 525.88 250.48 526.05 301.02 C 525.97 350.85 526.07 400.67 526.00 450.49 C 531.33 450.65 536.70 450.18 542.02 450.76 C 546.59 451.24 550.27 454.69 552.23 458.67 C 553.27 461.32 553.22 464.23 553.27 467.04 C 553.18 475.33 553.38 483.62 553.23 491.91 C 553.19 498.90 547.01 505.34 539.92 505.19 C 495.61 505.35 451.30 505.17 406.99 505.27 C 403.19 505.21 399.00 505.57 395.72 503.30 C 391.11 500.66 388.75 495.12 388.99 489.95 C 388.92 438.96 389.06 387.97 388.92 336.98 C 388.05 310.36 372.55 284.90 349.83 271.19 C 335.58 262.47 318.66 258.12 301.97 259.30 C 281.08 260.59 260.59 269.97 246.60 285.64 C 232.80 300.50 224.66 320.60 225.04 340.96 C 224.99 391.00 225.04 441.03 225.02 491.07 C 225.10 494.76 223.34 498.20 221.13 501.04 C 218.43 504.27 213.98 505.31 209.94 505.25 C 166.30 505.27 122.66 505.22 79.02 505.27 C 74.73 505.29 69.95 505.52 66.42 502.66 C 62.64 500.07 60.62 495.51 60.76 490.99 C 60.82 481.69 60.55 472.38 60.84 463.09 C 61.03 456.62 66.73 451.05 73.11 450.62 C 78.02 450.34 82.95 450.52 87.87 450.57 C 88.21 350.19 87.74 249.80 88.10 149.43 Z" />
</g>
</svg>
