<?xml version="1.0" encoding="UTF-8" ?>
<!DOCTYPE svg PUBLIC "-//W3C//DTD SVG 1.1//EN" "http://www.w3.org/Graphics/SVG/1.1/DTD/svg11.dtd">
<svg width="587pt" height="506pt" viewBox="0 0 587 506" version="1.1" xmlns="http://www.w3.org/2000/svg">
<g id="#000">
</g>
<g id="#000">
<path fill="#000" opacity="1.00" d=" M 290.28 32.28 C 295.70 31.32 301.41 31.63 306.57 33.64 C 370.51 58.24 434.50 82.74 498.43 107.36 C 503.18 109.39 508.86 110.47 512.11 114.86 C 515.28 118.87 514.89 124.25 514.89 129.05 C 514.74 137.95 515.13 146.87 514.69 155.77 C 514.27 162.68 507.90 168.54 500.97 168.26 C 368.98 168.26 237.00 168.26 105.01 168.26 C 99.85 168.16 94.69 168.40 89.54 168.14 C 82.83 167.87 77.33 161.66 77.23 155.05 C 76.95 145.36 77.23 135.65 77.11 125.95 C 77.01 121.90 77.61 117.54 80.33 114.35 C 82.99 110.83 87.50 109.74 91.38 108.14 C 155.65 83.55 219.86 58.80 284.12 34.17 C 286.13 33.43 288.17 32.71 290.28 32.28 Z" />
<path fill="#000" opacity="1.00" d=" M 131.69 195.47 C 150.00 195.46 168.32 195.63 186.63 195.37 C 186.28 241.10 186.71 286.85 186.41 332.59 C 213.86 332.41 241.31 332.48 268.76 332.55 C 268.67 286.86 268.85 241.16 268.67 195.47 C 286.89 195.50 305.11 195.54 323.33 195.46 C 323.14 241.15 323.35 286.85 323.23 332.54 C 350.68 332.50 378.13 332.41 405.58 332.59 C 405.29 286.85 405.73 241.11 405.37 195.37 C 423.68 195.66 442.01 195.43 460.33 195.47 C 460.15 241.17 460.33 286.87 460.24 332.57 C 465.15 332.52 470.07 332.35 474.98 332.61 C 481.81 332.83 487.63 339.18 487.47 345.97 C 487.56 359.75 487.45 373.53 487.53 387.30 C 359.85 387.25 232.16 387.18 104.47 387.34 C 104.57 373.52 104.42 359.71 104.53 345.90 C 104.37 339.39 109.73 333.22 116.25 332.67 C 121.42 332.27 126.61 332.56 131.79 332.54 C 131.65 286.85 131.84 241.16 131.69 195.47 Z" />
<path fill="#000" opacity="1.00" d=" M 88.43 414.74 C 90.93 414.39 93.46 414.50 95.98 414.49 C 231.02 414.53 366.07 414.46 501.11 414.52 C 508.42 414.25 514.80 420.80 514.79 428.03 C 514.91 437.38 514.98 446.75 514.77 456.11 C 514.56 462.78 508.90 469.32 501.96 469.04 C 366.00 469.03 230.03 469.04 94.07 469.04 C 90.36 469.05 86.21 469.44 83.18 466.86 C 78.88 464.12 77.08 458.89 77.12 454.00 C 77.19 445.30 76.98 436.61 77.21 427.92 C 77.24 421.63 82.11 415.58 88.43 414.74 Z" />
</g>
</svg>
