<svg width="16" height="14" viewBox="0 0 16 14" fill="none" xmlns="http://www.w3.org/2000/svg">
<g clip-path="url(#clip0_2:391)">
<path d="M8.0318 6.80618L6.8191 7.10938C6.94215 7.60158 7.35055 7.97058 7.85265 8.04328C8.3548 8.11598 8.85105 7.87798 9.1087 7.44083L8.0318 6.80618ZM3.6669 1.56666L3.34618 0.358505L3.6669 1.56666ZM7.0317 12.5564L7.03455 13.8064C7.2157 13.806 7.3946 13.7662 7.5589 13.6898L7.0317 12.5564ZM12.417 3.81668L11.7022 4.84215L12.417 3.81668ZM2.41402 11.3168C1.72367 11.3184 1.16529 11.8793 1.16685 12.5696C1.16841 13.26 1.72931 13.8184 2.41967 13.8168L2.41402 11.3168ZM4.72428 12.5616L4.72146 11.3116L4.72428 12.5616ZM8.0318 6.80618C9.24445 6.50303 9.2444 6.50268 9.2443 6.50238C9.24425 6.50223 9.2442 6.50188 9.2441 6.50158C9.24395 6.50103 9.2438 6.50038 9.2436 6.49963C9.24325 6.49813 9.24275 6.49628 9.2422 6.49403C9.2411 6.48963 9.23955 6.48373 9.2377 6.47643C9.23395 6.46193 9.2287 6.44178 9.2219 6.41648C9.2084 6.36588 9.18885 6.29443 9.16335 6.20533C9.1123 6.02738 9.03695 5.77763 8.9373 5.48168C8.73975 4.89503 8.4389 4.10301 8.03185 3.32296C7.63385 2.56017 7.0867 1.71521 6.3605 1.10652C5.60125 0.470105 4.5624 0.0356505 3.34618 0.358505L3.98762 2.77482C4.20383 2.71742 4.42682 2.74778 4.75455 3.02248C5.11535 3.32491 5.4804 3.83736 5.81545 4.47951C6.14155 5.10438 6.39475 5.76483 6.568 6.27943C6.65375 6.53413 6.71795 6.74713 6.76015 6.89438C6.7812 6.96783 6.7967 7.02458 6.80655 7.06148C6.8115 7.07993 6.815 7.09343 6.8171 7.10153C6.81815 7.10558 6.81885 7.10828 6.8192 7.10963C6.81935 7.11028 6.8194 7.11058 6.8194 7.11053C6.8194 7.11053 6.8194 7.11043 6.81935 7.11023C6.8193 7.11013 6.81925 7.10993 6.81925 7.10988C6.8192 7.10963 6.8191 7.10938 8.0318 6.80618ZM3.34618 0.358505C1.67251 0.802796 0.754731 2.07427 0.416114 3.50466C0.0902968 4.88097 0.269599 6.45913 0.729246 7.89703C1.19255 9.34633 1.98027 10.7796 3.01412 11.872C4.04151 12.9575 5.41895 13.81 7.03455 13.8064L7.0289 11.3064C6.33705 11.308 5.5739 10.9397 4.82987 10.1535C4.09233 9.37423 3.47786 8.28488 3.11054 7.13578C2.73956 5.97528 2.65981 4.87921 2.84888 4.08057C3.02514 3.33602 3.39618 2.93182 3.98762 2.77482L3.34618 0.358505ZM7.0317 12.5564C7.5589 13.6898 7.5592 13.6896 7.55955 13.6895C7.5597 13.6894 7.5601 13.6892 7.56045 13.6891C7.5611 13.6887 7.56195 13.6884 7.563 13.6879C7.565 13.6869 7.56765 13.6857 7.57095 13.6841C7.57755 13.681 7.5867 13.6767 7.5983 13.6712C7.6215 13.6602 7.6545 13.6445 7.6964 13.6241C7.7803 13.5835 7.90015 13.5245 8.04935 13.4486C8.34745 13.2972 8.76455 13.0777 9.24705 12.8024C10.2034 12.2568 11.4542 11.4707 12.5466 10.5405C13.5963 9.64663 14.6962 8.45758 15.0501 7.06843C15.2383 6.32993 15.2139 5.53743 14.8684 4.75885C14.5311 3.9987 13.9309 3.34827 13.1318 2.79122L11.7022 4.84215C12.2442 5.21998 12.4817 5.54383 12.5833 5.77288C12.6768 5.98353 12.6928 6.19513 12.6275 6.45128C12.4746 7.05143 11.8929 7.81358 10.9258 8.63713C10.0012 9.42448 8.8998 10.1222 8.0081 10.631C7.5666 10.8829 7.18575 11.0832 6.91695 11.2198C6.7827 11.288 6.6768 11.3401 6.60585 11.3745C6.57035 11.3917 6.54365 11.4045 6.52645 11.4126C6.5179 11.4167 6.5117 11.4196 6.508 11.4214C6.50615 11.4222 6.50495 11.4228 6.50435 11.4231C6.50405 11.4232 6.50395 11.4233 6.50395 11.4233C6.504 11.4233 6.5041 11.4232 6.50415 11.4232C6.5043 11.4231 6.50455 11.423 7.0317 12.5564ZM13.1318 2.79122C12.2075 2.14695 11.2125 2.25428 10.4434 2.59309C9.7215 2.91111 9.09585 3.46442 8.6208 3.96449C8.13015 4.48098 7.71635 5.03113 7.4299 5.44218C7.2851 5.65003 7.1691 5.82773 7.08825 5.95523C7.0478 6.01908 7.0159 6.07063 6.99345 6.10743C6.98225 6.12588 6.97335 6.14063 6.9669 6.15138C6.96365 6.15678 6.96105 6.16118 6.95905 6.16453C6.95805 6.16623 6.9572 6.16763 6.9565 6.16883C6.95615 6.16938 6.95585 6.16993 6.9556 6.17038C6.95545 6.17058 6.9553 6.17088 6.9552 6.17098C6.95505 6.17128 6.9549 6.17153 8.0318 6.80618C9.1087 7.44083 9.10855 7.44108 9.1084 7.44128C9.1084 7.44133 9.1083 7.44153 9.10825 7.44163C9.1081 7.44183 9.10805 7.44193 9.108 7.44198C9.10795 7.44213 9.108 7.44198 9.1082 7.44163C9.10865 7.44088 9.1097 7.43918 9.1113 7.43648C9.1145 7.43113 9.12005 7.42193 9.12775 7.40928C9.1432 7.38398 9.1674 7.34473 9.19965 7.29393C9.2642 7.19213 9.36005 7.04513 9.48105 6.87143C9.72635 6.51943 10.0602 6.07918 10.4334 5.68633C10.8222 5.27698 11.1766 5.00193 11.4513 4.88092C11.6788 4.7807 11.6968 4.83837 11.7022 4.84215L13.1318 2.79122ZM7.0289 11.3064L4.72146 11.3116L4.7271 13.8116L7.03455 13.8064L7.0289 11.3064ZM4.72146 11.3116L2.41402 11.3168L2.41967 13.8168L4.7271 13.8116L4.72146 11.3116Z" fill="#FF3347"/>
</g>
<defs>
<clipPath id="clip0_2:391">
<rect width="15.5" height="14" fill="white"/>
</clipPath>
</defs>
</svg>
